<mxfile modified="2024-02-24T17:11:42.413Z" host="app.diagrams.net" agent="Mozilla/5.0 (Windows NT 10.0; Win64; x64) AppleWebKit/537.36 (KHTML, like Gecko) Chrome/121.0.0.0 Safari/537.36 Edg/121.0.0.0" etag="KRD-rveh0GESkMWPkcAQ" version="23.1.6" type="device">
  <diagram id="WI9T0HZ2pTsCkuznbFz-" name="Page-1">
    <mxGraphModel dx="2722" dy="973" grid="1" gridSize="10" guides="1" tooltips="1" connect="1" arrows="1" fold="1" page="1" pageScale="1" pageWidth="827" pageHeight="1169" math="0" shadow="0">
      <root>
        <mxCell id="0" />
        <mxCell id="1" parent="0" />
        <mxCell id="yIlqXNv4PA9Dnh1hxRCn-27" value="Users" style="aspect=fixed;html=1;perimeter=none;align=center;shadow=0;dashed=0;image;fontSize=12;image=img/lib/mscae/PersonWithFriend.svg;" parent="1" vertex="1">
          <mxGeometry x="710" y="962.5" width="50" height="49.5" as="geometry" />
        </mxCell>
        <mxCell id="qJES_g0famqZTqQpGA08-1" value="" style="rounded=0;whiteSpace=wrap;html=1;fillColor=#f5f5f5;strokeColor=default;fontColor=#333333;dashed=1;dashPattern=8 8;" parent="1" vertex="1">
          <mxGeometry x="20" y="939.5" width="605" height="383" as="geometry" />
        </mxCell>
        <mxCell id="qJES_g0famqZTqQpGA08-2" value="rg-eus-monitor-01" style="image;aspect=fixed;html=1;points=[];align=center;fontSize=12;image=img/lib/azure2/general/Resource_Groups.svg;" parent="1" vertex="1">
          <mxGeometry x="-10" y="914" width="68" height="64" as="geometry" />
        </mxCell>
        <mxCell id="qJES_g0famqZTqQpGA08-5" value="" style="rounded=0;whiteSpace=wrap;html=1;fillColor=#f5f5f5;strokeColor=default;fontColor=#333333;dashed=1;dashPattern=8 8;" parent="1" vertex="1">
          <mxGeometry x="75" y="1380" width="430" height="272" as="geometry" />
        </mxCell>
        <mxCell id="qJES_g0famqZTqQpGA08-6" value="rg-eus-app-01" style="image;aspect=fixed;html=1;points=[];align=center;fontSize=12;image=img/lib/azure2/general/Resource_Groups.svg;" parent="1" vertex="1">
          <mxGeometry x="40" y="1350" width="68" height="64" as="geometry" />
        </mxCell>
        <mxCell id="qJES_g0famqZTqQpGA08-15" style="edgeStyle=orthogonalEdgeStyle;rounded=0;orthogonalLoop=1;jettySize=auto;html=1;" parent="1" source="qJES_g0famqZTqQpGA08-11" target="qJES_g0famqZTqQpGA08-10" edge="1">
          <mxGeometry relative="1" as="geometry" />
        </mxCell>
        <mxCell id="qJES_g0famqZTqQpGA08-11" value="" style="image;aspect=fixed;html=1;points=[];align=center;fontSize=12;image=img/lib/azure2/networking/Public_IP_Addresses.svg;" parent="1" vertex="1">
          <mxGeometry x="440" y="960" width="65" height="52" as="geometry" />
        </mxCell>
        <mxCell id="qJES_g0famqZTqQpGA08-12" value="stacappmon" style="image;aspect=fixed;html=1;points=[];align=center;fontSize=12;image=img/lib/azure2/storage/Storage_Accounts.svg;" parent="1" vertex="1">
          <mxGeometry x="70" y="1100" width="65" height="52" as="geometry" />
        </mxCell>
        <mxCell id="qJES_g0famqZTqQpGA08-14" style="edgeStyle=orthogonalEdgeStyle;rounded=0;orthogonalLoop=1;jettySize=auto;html=1;" parent="1" source="yIlqXNv4PA9Dnh1hxRCn-27" target="qJES_g0famqZTqQpGA08-11" edge="1">
          <mxGeometry relative="1" as="geometry" />
        </mxCell>
        <mxCell id="qJES_g0famqZTqQpGA08-21" style="edgeStyle=orthogonalEdgeStyle;rounded=0;orthogonalLoop=1;jettySize=auto;html=1;entryX=0;entryY=0.5;entryDx=0;entryDy=0;" parent="1" source="qJES_g0famqZTqQpGA08-19" target="qJES_g0famqZTqQpGA08-5" edge="1">
          <mxGeometry relative="1" as="geometry" />
        </mxCell>
        <mxCell id="qJES_g0famqZTqQpGA08-19" value="" style="shape=image;verticalLabelPosition=bottom;labelBackgroundColor=default;verticalAlign=top;aspect=fixed;imageAspect=0;image=data:image/x-icon,AAABAAEAgIAAAAEAIAAoCAEAFgAAACgAAACAAAAAAAEAAAEAIAAAAAAAAAABADjsAAA47AAAAAAAAAAAAAAAAAAAAAAAAAAAAAAAAAAAAAAAAAAAAAAAAAAAAAAAAAAAAAAAAAAAAAAAAAAAAAAAAAAAAAAAAAAAAAAAAAAAAAAAAAAAAAAAAAAAAAAAAAAAAAAAAAAAAAAAAAAAAAAAAAAAAAAAAAAAAAAAAAAAAAAAAAAAAAAAAAAAAAAAAAAAAAAAAAAAAAAAAAAAAAAAAAAAAAAAAAAAAAAAAAAAAAAAAAAAAAAAAAAAAAAAAAAAAAAAAAAAAAAAAAAAAAAAAAAAAAAAAAAAAAAAAAAAAAAAAAAAAAAAAAAAAAAAAAAAAAAAAAAAAAAAAAAAAAAAAAAAAAAAAAAAAAAAAAAAAAAAAAAAAAAAAAAAAAAAAAAAAAAAAAAAAAAAAAAAAAAAAAAAAAAAAAAAAAAAAAAAAAAAAAAAAAAAAAAAAAAAAAAAAAAAAAAAAAAAAAAAAAAAAAAAAAAAAAAAAAAAAAAAAAAAAAAAAAAAAAAAAAAAAAAAAAAAAAAAAAAAAAAAAAAAAAAAAAAAAAAAAAAAAAAAAAAAAAAAAAAAAAAAAAAAAAAAAAAAAAAAAAAAAAAAAAAAAAAAAAAAAAAAAAAAAAAAAAAAAAAAAAAAAAAAAAAAAAAAAAAAAAAAAAAAAAAAAAAAAAAAAAAAAAAAAAAAAAAAAAAAAAAAAAAAAAAAAAAAAAAAAAAAAAAAAAAAAAAAAAAAAAAAAAAAAAAAAAAAAAAAAAAAAAAAAAAAAAAAAAAAAAAAAAAAAAAAAAAAAAAAAAAAAAAAAAAAAAAAAAAAAAAAAAAAAAAAAAAAAAAAAAAAAAAAAAAAAAAAAAAAAAAAAAAAAAAAAAAAAAAAAAAAAAAAAAAAAAAAAAAAAAAAAAAAAAAAAAAAAAAAAAAAAAAAAAAAAAAAAAAAAAAAAAAAAAAAAAAAAAAAAAAAAAAAAAAAAAAAAAAAAAAAAAAAAAAAAAAAAAAAAAAAAAAAAAAAAAAAAAAAAAAAAAAAAAAAAAAAAAAAAAAAAAAAAAAAAAAAAAAAAAAAAAAAAAAAAAAAAAAAAAAAAAAAAAAAAAAAAAAAAAAAAAAAAAAAAAAAAAAAAAAAAAAAAAAAAAAAAAAAAAAAAAAAAAAAAAAAAAAAAAAAAAAAAAAAAAAAAAAAAAAAAAAAAAAAAAAAAAAAAAAAAAAAAAAAAAAAAAAAAAAAAAAAAAAAAAAAAAAAAAAAAAAAAAAAAAAAAAAAAAAAAAAAAAAAAAAAAAAAAAAAAAAAAAAAAAAAAAAAAAAAAAAAAAAAAAAAAAAAAAAAAAAAAAAAAAAAAAAAAAAAAAAAAAAAAAAAAAAAAAAAAAAAAAAAAAAAAAAAAAAAAAAAAAAAAAAAAAAAAAAAAAAAAAAAAAAAAAAAAAAAAAAAAAAAAAAAAAAAAAAAAAAAAAAAAAAAAAAAAAAAAAAAAAAAAAAAAAAAAAAAAAAAAAAAAAAAAAAAAAAAAAAAAAAAAAAAAAAAAAAAAAAAAAAAAAAAAAAAAAAAAAAAAAAAAAAAAAAAAAAAAAAAAAAAAAAAAAAAAAAAAAAAAAAAAAAAAAAAAAAAAAAAAAAAAAAAAAAAAAAAAAAAAAAAAAAAAAAAAAAAAAAAAAAAAAAAAAAAAAAAAAAAAAAAAAAAAAAAAAAAAAAAAAAAAAAAAAAAAAAAAAAAAAAAAAAAAAAAAAAAAAAAAAAAAAAAAAAAAAAAAAAAAAAAAAAAAAAAAAAAAAAAAAAAAAAAAAAAAAAAAAAAAAAAAAAAAAAAAAAAAAAAAAAAAAAAAAAAAAAAAAAAAAAAAAAAAAAAAAAAAAAAAAAAAAAAAAAAAAAAAAAAAAAAAAAAAAAAAAAAAAAAAAAAAAAAAAAAAAAAAAAAAAAAAAAAAAAAAAAAAAAAAAAAAAAAAAAAAAAAAAAAAAAAAAAAAAAAAAAAAAAAAAAAAAAAAAAAAAAAAAAAAAAAAAAAAAAAAAAAAAAAAAAAAAAAAAAAAAAAAAAAAAAAAAAAAAAAAAAAAAAAAAAAAAAAAAAAAAAAAAAAAAAAAAAAAAAAAAAAAAAAAAAAAAAAAAAAAAAAAAAAAAAAAAAAAAAAAAAAAAAAAAAAAAAAAAAAAAAAAAAAAAAAAAAAAAAAAAAAAAAAAAAAAAAAAAAAAAAAAAAAAAAAAAAAAAAAAAAAAAAAAAAAAAAAAAAAAAAAAAAAAAAAAAAAAAAAAAAAAAAAAAAAAAAAAAAAAAAAAAAAAAAAAAAAAAAAAAAAAAAAAAAAAAAAAAAAAAAAAAAAAAAAAAAAAAAAAAAAAAAAAAAAAAAAAAAAAAAAAAAAAAAAAAAAAAAAAAAAAAAAAAAAAAAAAAAAAAAAAAAAAAAAAAAAAAAAAAAAAAAAAAAAAAAAAAAAAAAAAAAAAAAAAAAAAAAAAAAAAAAAAAAAAAAAAAAAAAAAAAAAAAAAAAAAAAAAAAAAAAAAAAAAAAAAAAAAAAAAAAAAAAAAAAAAAAAAAAAAAAAAAAAAAAAAAAAAAAAAAAAAAAAAAAAAAAAAAAAAAAAAAAAAAAAAAAAAAAAAAAAAAAAAAAAAAAAAAAAAAAAAAAAAAAAAAAAAAAAAAAAAAAAAAAAAAAAAAAAAAAAAAAAAAAAAAAAAAAAAAAAAAAAAAAAAAAAAAAAAAAAAAAAAAAAAAAAAAAAAAAAAAAAAAAAAAAAAAAAAAAAAAAAAAAAAAAAAAAAAAAAAAAAAAAAAAAAAAAAAAAAAAAAAAAAAAAAAAAAAAAAAAAAAAAAAAAAAAAAAAAAAAAAAAAAAAAAAAAAAAAAAAAAAAAAAAAAAAAAAAAAAAAAAAAAAAAAAAAAAAAAAAAAAAAAAAAAAAAAAAAAAAAAAAAAAAAAAAAAAAAAAAAAAAAAAAAAAAAAAAAAAAAAAAAAAAAAAAAAAAAAAAAAAAAAAAAAAAAAAAAAAAAAAAAAAAAAAAAAAAAAAAAAAAAAAAAAAAAAAAAAAAAAAAAAAAAAAAAAAAAAAAAAAAAAAAAAAAAAAAAAAAAAAAAAAAAAAAAAAAAAAAAAAAAAAAAAAAAAAAAAAAAAAAAAAAAAAAAAAAAAAAAAAAAAAAAAAAAAAAAAAAAAAAAAAAAAAAAAAAAAAAAAAAAAAAAAAAAAAAAAAAAAAAAAAAAAAAAAAAAAAAAAAAAAAAAAAAAAAAAAAAAAAAAAAAAAAAAAAAAAAAAAAAAAAAAAAAAAAAAAAAAAAAAAAAAAAAAAAAAAAAAAAAAAAAAAAAAAAAAAAAAAAAAAAAAAAAAAAAAAAAAAAAAAAAAAAAAAAAAAAAAAAAAAAAAAAAAAAAAAAAAAAAAAAAAAAAAAAAAAAAAAAAAAAAAAAAAAAAAAAAAAAAAAAAAAAAAAAAAAAAAAAAAAAAAAAAAAAAAAAAAAAAAAAAAAAAAAAAAAAAAAAAAAAAAAAAAAAAAAAAAAAAAAAAAAAAAAAAAAAAAAAAAAAAAAAAAAAAAAAAAAAAAAAAAAAAAAAAAAAAAAAAAAAAAAAAAAAAAAAAAAAAAAAAAAAAAAAAAAAAAAAAAAAAAAAAAAAAAAAAAAAAAAAAAAAAAAAAAAAAAAAAAAAAAAAAAAAAAAAAAAAAAAAAAAAAAAAAAAAAAAAAAAAAAAAAAAAAAAAAAAAAAAAAAAAAAAAAAAAAAAAAAAAAAAAAAAAAAAAAAAAAAAAAAAAAAAAAAAAAAAAAAAAAAAAAAAAAAAAAAAAAAAAAAAAAAAAAAAAAAAAAAAAAAAAAAAAAAAAAAAAAAAAAAAAAAAAAAAAAAAAAAAAAAAAAAAAAAAAAAAAAAAAAAAAAAAAAAAAAAAAAP85jgDzPIEA8zyBAPM8gQDyPIEA8jyBAPI8gQAAAAAAAAAAAAAAAAAAAAAAAAAAAAAAAAAAAAAAAAAAAAAAAAAAAAAAAAAAAAAAAAAAAAAAAAAAAAAAAAAAAAAAAAAAAAAAAAAAAAAAAAAAAAAAAAAAAAAAAAAAAAAAAAAAAAAAAAAAAAAAAAAAAAAAAAAAAAAAAAAAAAAAAAAAAAAAAAAAAAAAAAAAAAAAAAAAAAAAAAAAAAAAAAAAAAAAAAAAAAAAAAAAAAAAAAAAAAAAAAAAAAAAAAAAAAAAAAAAAAAAAAAAAAAAAAAAAAAAAAAAAAAAAAAAAAAAAAAAAAAAAAAAAAAAAAAAAAAAAAAAAAAAAAAAAAAAAAAAAAAAAAAAAAAAAAAAAAAAAAAAAAAAAAAAAAAAAAAAAAAAAAAAAAAAAAAAAAAAAAAAAAAAAAAAAAAAAAAAAAAAAAAAAAAAAAAAAAAAAAAAAAAAAAAAAAAAAAAAAAAAAAAAAAAAAAAAAAAAAAAAAAAAAAAAAAAAAAAAAAAAAAAAAAAAAAAAAAAAAAAAAAAAAAAAAAAAAAAAAAAAAAAAAAAAAAAAAAAAAAAAAAAAAAAAAAAAAAAAAAAAAAAAAAAAAAAAAAAAAAAAAAAAAAAAAAAAAAAAAAAAAAAAAAAAAAAAAAAAAADzPIEA8zyBAPM8gQDzPIEB8zyBA+FTbQDwQH4A8j2AAAAAAAAAAAAAAAAAAAAAAAAAAAAAAAAAAAAAAAAAAAAAAAAAAAAAAAAAAAAAAAAAAAAAAAAAAAAAAAAAAAAAAAAAAAAAAAAAAAAAAAAAAAAAAAAAAAAAAAAAAAAAAAAAAAAAAAAAAAAAAAAAAAAAAAAAAAAAAAAAAAAAAAAAAAAAAAAAAAAAAAAAAAAAAAAAAAAAAAAAAAAAAAAAAAAAAAAAAAAAAAAAAAAAAAAAAAAAAAAAAAAAAAAAAAAAAAAAAAAAAAAAAAAAAAAAAAAAAAAAAAAAAAAAAAAAAAAAAAAAAAAAAAAAAAAAAAAAAAAAAAAAAAAAAAAAAAAAAAAAAAAAAAAAAAAAAAAAAAAAAAAAAAAAAAAAAAAAAAAAAAAAAAAAAAAAAAAAAAAAAAAAAAAAAAAAAAAAAAAAAAAAAAAAAAAAAAAAAAAAAAAAAAAAAAAAAAAAAAAAAAAAAAAAAAAAAAAAAAAAAAAAAAAAAAAAAAAAAAAAAAAAAAAAAAAAAAAAAAAAAAAAAAAAAAAAAAAAAAAAAAAAAAAAAAAAAAAAAAAAAAAAAAAAAAAAAAAAAAAAAAAAAAAAAAAAAAAAAAAAAAAAAAAAAAAAAAAAAAAAAAAAAAAAAAD0PIIA8zyBAPM8gQDzPIEB8zyBA/Q8gQDwPIEB8DyAAvA8gADwPIAAAAAAAAAAAAAAAAAAAAAAAAAAAAAAAAAAAAAAAAAAAAAAAAAAAAAAAAAAAAAAAAAAAAAAAAAAAAAAAAAAAAAAAAAAAAAAAAAAAAAAAAAAAAAAAAAAAAAAAAAAAAAAAAAAAAAAAAAAAAAAAAAAAAAAAAAAAAAAAAAAAAAAAAAAAAAAAAAAAAAAAAAAAAAAAAAAAAAAAAAAAAAAAAAAAAAAAAAAAAAAAAAAAAAAAAAAAAAAAAAAAAAAAAAAAAAAAAAAAAAAAAAAAAAAAAAAAAAAAAAAAAAAAAAAAAAAAAAAAAAAAAAAAAAAAAAAAAAAAAAAAAAAAAAAAAAAAAAAAAAAAAAAAAAAAAAAAAAAAAAAAAAAAAAAAAAAAAAAAAAAAAAAAAAAAAAAAAAAAAAAAAAAAAAAAAAAAAAAAAAAAAAAAAAAAAAAAAAAAAAAAAAAAAAAAAAAAAAAAAAAAAAAAAAAAAAAAAAAAAAAAAAAAAAAAAAAAAAAAAAAAAAAAAAAAAAAAAAAAAAAAAAAAAAAAAAAAAAAAAAAAAAAAAAAAAAAAAAAAAAAAAAAAAAAAAAAAAAAAAAAAAAAAAAAAAAAAAAAAAAAAAAAAAAAAAAAAAAAAAD3O4YA8zyBAPQ8gAD0PIAA8zyBA/M8gQLzPIEA8zyBDvM8gZjzPIFF8zyBAPM8gQMAAAAAAAAAAAAAAAAAAAAAAAAAAAAAAAAAAAAAAAAAAAAAAAAAAAAAAAAAAAAAAAAAAAAAAAAAAAAAAAAAAAAAAAAAAAAAAAAAAAAAAAAAAAAAAAAAAAAAAAAAAAAAAAAAAAAAAAAAAAAAAAAAAAAAAAAAAAAAAAAAAAAAAAAAAAAAAAAAAAAAAAAAAAAAAAAAAAAAAAAAAAAAAAAAAAAAAAAAAAAAAAAAAAAAAAAAAAAAAAAAAAAAAAAAAAAAAAAAAAAAAAAAAAAAAAAAAAAAAAAAAAAAAAAAAAAAAAAAAAAAAAAAAAAAAAAAAAAAAAAAAAAAAAAAAAAAAAAAAAAAAAAAAAAAAAAAAAAAAAAAAAAAAAAAAAAAAAAAAAAAAAAAAAAAAAAAAAAAAAAAAAAAAAAAAAAAAAAAAAAAAAAAAAAAAAAAAAAAAAAAAAAAAAAAAAAAAAAAAAAAAAAAAAAAAAAAAAAAAAAAAAAAAAAAAAAAAAAAAAAAAAAAAAAAAAAAAAAAAAAAAAAAAAAAAAAAAAAAAAAAAAAAAAAAAAAAAAAAAAAAAAAAAAAAAAAAAAAAAAAAAAAAAAAAAAAAAAAAAAAAAAAAAAD/K4AA8zyAAPI8ggDyPIEA8zyBAvM8gQP0PIEA9DyABPM8gWbzPIHk8zyB//M8gUnzPIEA8zyBAwAAAAAAAAAAAAAAAAAAAAAAAAAAAAAAAAAAAAAAAAAAAAAAAAAAAAAAAAAAAAAAAAAAAAAAAAAAAAAAAAAAAAAAAAAAAAAAAAAAAAAAAAAAAAAAAAAAAAAAAAAAAAAAAAAAAAAAAAAAAAAAAAAAAAAAAAAAAAAAAAAAAAAAAAAAAAAAAAAAAAAAAAAAAAAAAAAAAAAAAAAAAAAAAAAAAAAAAAAAAAAAAAAAAAAAAAAAAAAAAAAAAAAAAAAAAAAAAAAAAAAAAAAAAAAAAAAAAAAAAAAAAAAAAAAAAAAAAAAAAAAAAAAAAAAAAAAAAAAAAAAAAAAAAAAAAAAAAAAAAAAAAAAAAAAAAAAAAAAAAAAAAAAAAAAAAAAAAAAAAAAAAAAAAAAAAAAAAAAAAAAAAAAAAAAAAAAAAAAAAAAAAAAAAAAAAAAAAAAAAAAAAAAAAAAAAAAAAAAAAAAAAAAAAAAAAAAAAAAAAAAAAAAAAAAAAAAAAAAAAAAAAAAAAAAAAAAAAAAAAAAAAAAAAAAAAAAAAAAAAAAAAAAAAAAAAAAAAAAAAAAAAAAAAAAAAAAAAAAAAAAAAAAAAAAAAAAAAAAAAAAA9DyCAPM8gQDzPIEA8zyBAfM8gQPzPIIB8zyCAPM8gUPzPIHP8zyB//M8gfvzPIH/8zyBSfM8gQDzPIEDAAAAAAAAAAAAAAAAAAAAAAAAAAAAAAAAAAAAAAAAAAAAAAAAAAAAAAAAAAAAAAAAAAAAAAAAAAAAAAAAAAAAAAAAAAAAAAAAAAAAAAAAAAAAAAAAAAAAAAAAAAAAAAAAAAAAAAAAAAAAAAAAAAAAAAAAAAAAAAAAAAAAAAAAAAAAAAAAAAAAAAAAAAAAAAAAAAAAAAAAAAAAAAAAAAAAAAAAAAAAAAAAAAAAAAAAAAAAAAAAAAAAAAAAAAAAAAAAAAAAAAAAAAAAAAAAAAAAAAAAAAAAAAAAAAAAAAAAAAAAAAAAAAAAAAAAAAAAAAAAAAAAAAAAAAAAAAAAAAAAAAAAAAAAAAAAAAAAAAAAAAAAAAAAAAAAAAAAAAAAAAAAAAAAAAAAAAAAAAAAAAAAAAAAAAAAAAAAAAAAAAAAAAAAAAAAAAAAAAAAAAAAAAAAAAAAAAAAAAAAAAAAAAAAAAAAAAAAAAAAAAAAAAAAAAAAAAAAAAAAAAAAAAAAAAAAAAAAAAAAAAAAAAAAAAAAAAAAAAAAAAAAAAAAAAAAAAAAAAAAAAAAAAAAAAAAAAAAAAAAAAAAAAAAAAAA9TuBAPM8gQDzPIEA8zyBAfM8gQPzPIEC8zyCAPM8gSbzPIGv8zyB//M8gf/zPIH88zyB+/M8gf/zPIFK8zyBAPM8gQMAAAAAAAAAAAAAAAAAAAAAAAAAAAAAAAAAAAAAAAAAAAAAAAAAAAAAAAAAAAAAAAAAAAAAAAAAAAAAAAAAAAAAAAAAAAAAAAAAAAAAAAAAAAAAAAAAAAAAAAAAAAAAAAAAAAAAAAAAAAAAAAAAAAAAAAAAAAAAAAAAAAAAAAAAAAAAAAAAAAAAAAAAAAAAAAAAAAAAAAAAAAAAAAAAAAAAAAAAAAAAAAAAAAAAAAAAAAAAAAAAAAAAAAAAAAAAAAAAAAAAAAAAAAAAAAAAAAAAAAAAAAAAAAAAAAAAAAAAAAAAAAAAAAAAAAAAAAAAAAAAAAAAAAAAAAAAAAAAAAAAAAAAAAAAAAAAAAAAAAAAAAAAAAAAAAAAAAAAAAAAAAAAAAAAAAAAAAAAAAAAAAAAAAAAAAAAAAAAAAAAAAAAAAAAAAAAAAAAAAAAAAAAAAAAAAAAAAAAAAAAAAAAAAAAAAAAAAAAAAAAAAAAAAAAAAAAAAAAAAAAAAAAAAAAAAAAAAAAAAAAAAAAAAAAAAAAAAAAAAAAAAAAAAAAAAAAAAAAAAAAAAAAAAAAAAAAAAAAAAAA+DWBAPM8gQD0PIAA9TyBAPM8gQPzPIEC8zyBAPM8gRHzPIGL8zyB9/M8gf/zPIH88zyB/PM8gf/zPIH88zyB//M8gUrzPIEA8zyBAwAAAAAAAAAAAAAAAAAAAAAAAAAAAAAAAAAAAAAAAAAAAAAAAAAAAAAAAAAAAAAAAAAAAAAAAAAAAAAAAAAAAAAAAAAAAAAAAAAAAAAAAAAAAAAAAAAAAAAAAAAAAAAAAAAAAAAAAAAAAAAAAAAAAAAAAAAAAAAAAAAAAAAAAAAAAAAAAAAAAAAAAAAAAAAAAAAAAAAAAAAAAAAAAAAAAAAAAAAAAAAAAAAAAAAAAAAAAAAAAAAAAAAAAAAAAAAAAAAAAAAAAAAAAAAAAAAAAAAAAAAAAAAAAAAAAAAAAAAAAAAAAAAAAAAAAAAAAAAAAAAAAAAAAAAAAAAAAAAAAAAAAAAAAAAAAAAAAAAAAAAAAAAAAAAAAAAAAAAAAAAAAAAAAAAAAAAAAAAAAAAAAAAAAAAAAAAAAAAAAAAAAAAAAAAAAAAAAAAAAAAAAAAAAAAAAAAAAAAAAAAAAAAAAAAAAAAAAAAAAAAAAAAAAAAAAAAAAAAAAAAAAAAAAAAAAAAAAAAAAAAAAAAAAAAAAAAAAAAAAAAAAAAAAAAAAAAAAAAAAAAAAAAAAAAA/yuAAPM8gQDyO4EA8jyBAPM8gQLzPIED8zuAAPM8fwTzPIFl8zyB5/M8gf/zPIH98zyB/PM8gf/zPIH/8zyB//M8gfzzPIH/8zyBSvM8gQDzPIEDAAAAAAAAAAAAAAAAAAAAAAAAAAAAAAAAAAAAAAAAAAAAAAAAAAAAAAAAAAAAAAAAAAAAAAAAAAAAAAAAAAAAAAAAAAAAAAAAAAAAAAAAAAAAAAAAAAAAAAAAAAAAAAAAAAAAAAAAAAAAAAAAAAAAAAAAAAAAAAAAAAAAAAAAAAAAAAAAAAAAAAAAAAAAAAAAAAAAAAAAAAAAAAAAAAAAAAAAAAAAAAAAAAAAAAAAAAAAAAAAAAAAAAAAAAAAAAAAAAAAAAAAAAAAAAAAAAAAAAAAAAAAAAAAAAAAAAAAAAAAAAAAAAAAAAAAAAAAAAAAAAAAAAAAAAAAAAAAAAAAAAAAAAAAAAAAAAAAAAAAAAAAAAAAAAAAAAAAAAAAAAAAAAAAAAAAAAAAAAAAAAAAAAAAAAAAAAAAAAAAAAAAAAAAAAAAAAAAAAAAAAAAAAAAAAAAAAAAAAAAAAAAAAAAAAAAAAAAAAAAAAAAAAAAAAAAAAAAAAAAAAAAAAAAAAAAAAAAAAAAAAAAAAAAAAAAAAAAAAAAAAAAAAAAAAAAAAAAAAAAAAAAAPM9gQDzO4EA8zyBAPM8gQHzPIED8zyCAfM8gwDzPIFD8zyBzvM8gf/zPIH+8zyB/PM8gf7zPIH/8zyB//M8gf/zPIH/8zyB/PM8gf/zPIFK8zyBAPM8gQMAAAAAAAAAAAAAAAAAAAAAAAAAAAAAAAAAAAAAAAAAAAAAAAAAAAAAAAAAAAAAAAAAAAAAAAAAAAAAAAAAAAAAAAAAAAAAAAAAAAAAAAAAAAAAAAAAAAAAAAAAAAAAAAAAAAAAAAAAAAAAAAAAAAAAAAAAAAAAAAAAAAAAAAAAAAAAAAAAAAAAAAAAAAAAAAAAAAAAAAAAAAAAAAAAAAAAAAAAAAAAAAAAAAAAAAAAAAAAAAAAAAAAAAAAAAAAAAAAAAAAAAAAAAAAAAAAAAAAAAAAAAAAAAAAAAAAAAAAAAAAAAAAAAAAAAAAAAAAAAAAAAAAAAAAAAAAAAAAAAAAAAAAAAAAAAAAAAAAAAAAAAAAAAAAAAAAAAAAAAAAAAAAAAAAAAAAAAAAAAAAAAAAAAAAAAAAAAAAAAAAAAAAAAAAAAAAAAAAAAAAAAAAAAAAAAAAAAAAAAAAAAAAAAAAAAAAAAAAAAAAAAAAAAAAAAAAAAAAAAAAAAAAAAAAAAAAAAAAAAAAAAAAAAAAAAAAAAAAAAAAAAAAAAAAAAAAAPU7gQDzPIEA8zyBAPM8gQHzPIED8zyBAvM8ggDzPIEm8zyBr/M8gf/zPIH/8zyB/PM8gf3zPIH/8zyB//M8gf/zPIH/8zyB//M8gf/zPIH88zyB//M8gUrzPIEA8zyBAwAAAAAAAAAAAAAAAAAAAAAAAAAAAAAAAAAAAAAAAAAAAAAAAAAAAAAAAAAAAAAAAAAAAAAAAAAAAAAAAAAAAAAAAAAAAAAAAAAAAAAAAAAAAAAAAAAAAAAAAAAAAAAAAAAAAAAAAAAAAAAAAAAAAAAAAAAAAAAAAAAAAAAAAAAAAAAAAAAAAAAAAAAAAAAAAAAAAAAAAAAAAAAAAAAAAAAAAAAAAAAAAAAAAAAAAAAAAAAAAAAAAAAAAAAAAAAAAAAAAAAAAAAAAAAAAAAAAAAAAAAAAAAAAAAAAAAAAAAAAAAAAAAAAAAAAAAAAAAAAAAAAAAAAAAAAAAAAAAAAAAAAAAAAAAAAAAAAAAAAAAAAAAAAAAAAAAAAAAAAAAAAAAAAAAAAAAAAAAAAAAAAAAAAAAAAAAAAAAAAAAAAAAAAAAAAAAAAAAAAAAAAAAAAAAAAAAAAAAAAAAAAAAAAAAAAAAAAAAAAAAAAAAAAAAAAAAAAAAAAAAAAAAAAAAAAAAAAAAAAAAAAAAAAAAAAAAAAAAAAAAAAPg1gQDzPIEA9D2AAPQ9gADzPIED8zyBAvM7gQDzPIER8zyBi/M8gffzPIH/8zyB/PM8gfzzPIH/8zyB//M8gf/zPIH/8zyB//M8gf/zPIH/8zyB//M8gfzzPIH/8zyBSvM8gQDzPIEDAAAAAAAAAAAAAAAAAAAAAAAAAAAAAAAAAAAAAAAAAAAAAAAAAAAAAAAAAAAAAAAAAAAAAAAAAAAAAAAAAAAAAAAAAAAAAAAAAAAAAAAAAAAAAAAAAAAAAAAAAAAAAAAAAAAAAAAAAAAAAAAAAAAAAAAAAAAAAAAAAAAAAAAAAAAAAAAAAAAAAAAAAAAAAAAAAAAAAAAAAAAAAAAAAAAAAAAAAAAAAAAAAAAAAAAAAAAAAAAAAAAAAAAAAAAAAAAAAAAAAAAAAAAAAAAAAAAAAAAAAAAAAAAAAAAAAAAAAAAAAAAAAAAAAAAAAAAAAAAAAAAAAAAAAAAAAAAAAAAAAAAAAAAAAAAAAAAAAAAAAAAAAAAAAAAAAAAAAAAAAAAAAAAAAAAAAAAAAAAAAAAAAAAAAAAAAAAAAAAAAAAAAAAAAAAAAAAAAAAAAAAAAAAAAAAAAAAAAAAAAAAAAAAAAAAAAAAAAAAAAAAAAAAAAAAAAAAAAAAAAAAAAAAAAAAAAAAAAAAAAAAAAAAAAAAAAP8rgADzPYAA8zuCAPM8gQDzPIEC8zyBA/M7gADzO4AE8zyBZfM8gebzPIH/8zyB/fM8gfzzPIH/8zyB//M8gf/zPIH/8zyB//M8gf/zPIH/8zyB//M8gf/zPIH/8zyB/PM8gf/zPIFK8zyBAPM8gQMAAAAAAAAAAAAAAAAAAAAAAAAAAAAAAAAAAAAAAAAAAAAAAAAAAAAAAAAAAAAAAAAAAAAAAAAAAAAAAAAAAAAAAAAAAAAAAAAAAAAAAAAAAAAAAAAAAAAAAAAAAAAAAAAAAAAAAAAAAAAAAAAAAAAAAAAAAAAAAAAAAAAAAAAAAAAAAAAAAAAAAAAAAAAAAAAAAAAAAAAAAAAAAAAAAAAAAAAAAAAAAAAAAAAAAAAAAAAAAAAAAAAAAAAAAAAAAAAAAAAAAAAAAAAAAAAAAAAAAAAAAAAAAAAAAAAAAAAAAAAAAAAAAAAAAAAAAAAAAAAAAAAAAAAAAAAAAAAAAAAAAAAAAAAAAAAAAAAAAAAAAAAAAAAAAAAAAAAAAAAAAAAAAAAAAAAAAAAAAAAAAAAAAAAAAAAAAAAAAAAAAAAAAAAAAAAAAAAAAAAAAAAAAAAAAAAAAAAAAAAAAAAAAAAAAAAAAAAAAAAAAAAAAAAAAAAAAAAAAAAAAAAAAAAAAAAAAAAAAAAAAAAAAADzO4IA8z2BAPM9gQDzPIEB8zyBA/M7gQHzO4IA8zyBQ/M8gc7zPIH/8zyB/vM8gfzzPIH+8zyB//M8gf/zPIH/8zyB//M8gf/zPIH/8zyB//M8gf/zPIH/8zyB//M8gf/zPIH88zyB//M8gUrzPIEA8zyBAwAAAAAAAAAAAAAAAAAAAAAAAAAAAAAAAAAAAAAAAAAAAAAAAAAAAAAAAAAAAAAAAAAAAAAAAAAAAAAAAAAAAAAAAAAAAAAAAAAAAAAAAAAAAAAAAAAAAAAAAAAAAAAAAAAAAAAAAAAAAAAAAAAAAAAAAAAAAAAAAAAAAAAAAAAAAAAAAAAAAAAAAAAAAAAAAAAAAAAAAAAAAAAAAAAAAAAAAAAAAAAAAAAAAAAAAAAAAAAAAAAAAAAAAAAAAAAAAAAAAAAAAAAAAAAAAAAAAAAAAAAAAAAAAAAAAAAAAAAAAAAAAAAAAAAAAAAAAAAAAAAAAAAAAAAAAAAAAAAAAAAAAAAAAAAAAAAAAAAAAAAAAAAAAAAAAAAAAAAAAAAAAAAAAAAAAAAAAAAAAAAAAAAAAAAAAAAAAAAAAAAAAAAAAAAAAAAAAAAAAAAAAAAAAAAAAAAAAAAAAAAAAAAAAAAAAAAAAAAAAAAAAAAAAAAAAAAAAAAAAAAAAAAAAAAAAAAAAAD1OoQA8zyBAPM8gQDzPIEB8zyBA/M8gQLzPIEA8zyBJvM8ga7zPIH/8zyB//M8gfzzPIH98zyB//M8gf/zPIH/8zyB//M8gf/zPIH/8zyB//M8gf/zPIH/8zyB//M8gf/zPIH/8zyB//M8gfzzPIH/8zyBSvM8gQDzPIEDAAAAAAAAAAAAAAAAAAAAAAAAAAAAAAAAAAAAAAAAAAAAAAAAAAAAAAAAAAAAAAAAAAAAAAAAAAAAAAAAAAAAAAAAAAAAAAAAAAAAAAAAAAAAAAAAAAAAAAAAAAAAAAAAAAAAAAAAAAAAAAAAAAAAAAAAAAAAAAAAAAAAAAAAAAAAAAAAAAAAAAAAAAAAAAAAAAAAAAAAAAAAAAAAAAAAAAAAAAAAAAAAAAAAAAAAAAAAAAAAAAAAAAAAAAAAAAAAAAAAAAAAAAAAAAAAAAAAAAAAAAAAAAAAAAAAAAAAAAAAAAAAAAAAAAAAAAAAAAAAAAAAAAAAAAAAAAAAAAAAAAAAAAAAAAAAAAAAAAAAAAAAAAAAAAAAAAAAAAAAAAAAAAAAAAAAAAAAAAAAAAAAAAAAAAAAAAAAAAAAAAAAAAAAAAAAAAAAAAAAAAAAAAAAAAAAAAAAAAAAAAAAAAAAAAAAAAAAAAAAAAAAAAAAAAAAAAAAAAAAAAAAAAD4OIoA8zyBAPM8gAD0O4EA8zyBA/M8gQLzPIEA8zyBEfM8gYrzPIH38zyB//M8gfzzPIH88zyB//M8gf/zPIH/8zyB//M8gf/zPIH/8zyB//M8gf/zPIH/8zyB//M8gf/zPIH/8zyB//M8gf/zPIH/8zyB/PM8gf/zPIFK8zyBAPM8gQMAAAAAAAAAAAAAAAAAAAAAAAAAAAAAAAAAAAAAAAAAAAAAAAAAAAAAAAAAAAAAAAAAAAAAAAAAAAAAAAAAAAAAAAAAAAAAAAAAAAAAAAAAAAAAAAAAAAAAAAAAAAAAAAAAAAAAAAAAAAAAAAAAAAAAAAAAAAAAAAAAAAAAAAAAAAAAAAAAAAAAAAAAAAAAAAAAAAAAAAAAAAAAAAAAAAAAAAAAAAAAAAAAAAAAAAAAAAAAAAAAAAAAAAAAAAAAAAAAAAAAAAAAAAAAAAAAAAAAAAAAAAAAAAAAAAAAAAAAAAAAAAAAAAAAAAAAAAAAAAAAAAAAAAAAAAAAAAAAAAAAAAAAAAAAAAAAAAAAAAAAAAAAAAAAAAAAAAAAAAAAAAAAAAAAAAAAAAAAAAAAAAAAAAAAAAAAAAAAAAAAAAAAAAAAAAAAAAAAAAAAAAAAAAAAAAAAAAAAAAAAAAAAAAAAAAAAAAAAAAAAAAAAAAAAAAAAAAD/M5kA8zuBAPM9gQDyPIEA8zyBAvM8gQPzPYEA8z2ABPM8gWXzPIHm8zyB//M8gf3zPIH88zyB//M8gf/zPIH/8zyB//M8gf/zPIH/8zyB//M8gf/zPIH/8zyB//M8gf/zPIH/8zyB//M8gf/zPIH/8zyB//M8gf/zPIH88zyB//M8gUrzPIEA8zyBAwAAAAAAAAAAAAAAAAAAAAAAAAAAAAAAAAAAAAAAAAAAAAAAAAAAAAAAAAAAAAAAAAAAAAAAAAAAAAAAAAAAAAAAAAAAAAAAAAAAAAAAAAAAAAAAAAAAAAAAAAAAAAAAAAAAAAAAAAAAAAAAAAAAAAAAAAAAAAAAAAAAAAAAAAAAAAAAAAAAAAAAAAAAAAAAAAAAAAAAAAAAAAAAAAAAAAAAAAAAAAAAAAAAAAAAAAAAAAAAAAAAAAAAAAAAAAAAAAAAAAAAAAAAAAAAAAAAAAAAAAAAAAAAAAAAAAAAAAAAAAAAAAAAAAAAAAAAAAAAAAAAAAAAAAAAAAAAAAAAAAAAAAAAAAAAAAAAAAAAAAAAAAAAAAAAAAAAAAAAAAAAAAAAAAAAAAAAAAAAAAAAAAAAAAAAAAAAAAAAAAAAAAAAAAAAAAAAAAAAAAAAAAAAAAAAAAAAAAAAAAAAAAAAAAAAAAAAAAAAAAAAAAAAAAAA8zuCAPM9gQDzPIEA8zyBAfM8gQPzPIIB8zuDAPM8gULzPIHO8zyB//M8gf7zPIH88zyB/vM8gf/zPIH/8zyB//M8gf/zPIH/8zyB//M8gf/zPIH/8zyB//M8gf/zPIH/8zyB//M8gf/zPIH/8zyB//M8gf/zPIH/8zyB//M8gfzzPIH/8zyBSvM8gQDzPIEDAAAAAAAAAAAAAAAAAAAAAAAAAAAAAAAAAAAAAAAAAAAAAAAAAAAAAAAAAAAAAAAAAAAAAAAAAAAAAAAAAAAAAAAAAAAAAAAAAAAAAAAAAAAAAAAAAAAAAAAAAAAAAAAAAAAAAAAAAAAAAAAAAAAAAAAAAAAAAAAAAAAAAAAAAAAAAAAAAAAAAAAAAAAAAAAAAAAAAAAAAAAAAAAAAAAAAAAAAAAAAAAAAAAAAAAAAAAAAAAAAAAAAAAAAAAAAAAAAAAAAAAAAAAAAAAAAAAAAAAAAAAAAAAAAAAAAAAAAAAAAAAAAAAAAAAAAAAAAAAAAAAAAAAAAAAAAAAAAAAAAAAAAAAAAAAAAAAAAAAAAAAAAAAAAAAAAAAAAAAAAAAAAAAAAAAAAAAAAAAAAAAAAAAAAAAAAAAAAAAAAAAAAAAAAAAAAAAAAAAAAAAAAAAAAAAAAAAAAAAAAAAAAAAAAAAAAAAAAAAA8juCAPM8gQDzPIIA8zyCAfM8gQPzPIEC8zyCAPM8gSXzPIGu8zyB//M8gf/zPIH88zyB/fM8gf/zPIH/8zyB//M8gf/zPIH/8zyB//M8gf/zPIH/8zyB//M8gf/zPIH/8zyB//M8gf/zPIH/8zyB//M8gf/zPIH/8zyB//M8gf/zPIH/8zyB/PM8gf/zPIFK8zyBAPM8gQMAAAAAAAAAAAAAAAAAAAAAAAAAAAAAAAAAAAAAAAAAAAAAAAAAAAAAAAAAAAAAAAAAAAAAAAAAAAAAAAAAAAAAAAAAAAAAAAAAAAAAAAAAAAAAAAAAAAAAAAAAAAAAAAAAAAAAAAAAAAAAAAAAAAAAAAAAAAAAAAAAAAAAAAAAAAAAAAAAAAAAAAAAAAAAAAAAAAAAAAAAAAAAAAAAAAAAAAAAAAAAAAAAAAAAAAAAAAAAAAAAAAAAAAAAAAAAAAAAAAAAAAAAAAAAAAAAAAAAAAAAAAAAAAAAAAAAAAAAAAAAAAAAAAAAAAAAAAAAAAAAAAAAAAAAAAAAAAAAAAAAAAAAAAAAAAAAAAAAAAAAAAAAAAAAAAAAAAAAAAAAAAAAAAAAAAAAAAAAAAAAAAAAAAAAAAAAAAAAAAAAAAAAAAAAAAAAAAAAAAAAAAAAAAAAAAAAAAAAAAAAAAAAAAAAAAAAAAAAAAD0PX8A9D1/APQ9fwDzPYEC8jyCAPI8gRDzPIGK8zyB9vM8gf/zPIH88zyB/PM8gf/zPIH/8zyB//M8gf/zPIH/8zyB//M8gf/zPIH/8zyB//M8gf/zPIH/8zyB//M8gf/zPIH/8zyB//M8gf/zPIH/8zyB//M8gf/zPIH/8zyB//M8gf/zPIH88zyB//M8gUrzPIEA8zyBAwAAAAAAAAAAAAAAAAAAAAAAAAAAAAAAAAAAAAAAAAAAAAAAAAAAAAAAAAAAAAAAAAAAAAAAAAAAAAAAAAAAAAAAAAAAAAAAAAAAAAAAAAAAAAAAAAAAAAAAAAAAAAAAAAAAAAAAAAAAAAAAAAAAAAAAAAAAAAAAAAAAAAAAAAAAAAAAAAAAAAAAAAAAAAAAAAAAAAAAAAAAAAAAAAAAAAAAAAAAAAAAAAAAAAAAAAAAAAAAAAAAAAAAAAAAAAAAAAAAAAAAAAAAAAAAAAAAAAAAAAAAAAAAAAAAAAAAAAAAAAAAAAAAAAAAAAAAAAAAAAAAAAAAAAAAAAAAAAAAAAAAAAAAAAAAAAAAAAAAAAAAAAAAAAAAAAAAAAAAAAAAAAAAAAAAAAAAAAAAAAAAAAAAAAAAAAAAAAAAAAAAAAAAAAAAAAAAAAAAAAAAAAAAAAAAAAAAAAAAAAAAAAAAAAAAAAAAAAAAAAAAAADzPIEA7z6EAPE9ggPzPIFl8zyB5vM8gf/zPIH98zyB/PM8gf/zPIH/8zyB//M8gf/zPIH/8zyB//M8gf/zPIH/8zyB//M8gf/zPIH/8zyB//M8gf/zPIH/8zyB//M8gf/zPIH/8zyB//M8gf/zPIH/8zyB//M8gf/zPIH/8zyB//M8gfzzPIH/8zyBSvM8gQDzPIEDAAAAAAAAAAAAAAAAAAAAAAAAAAAAAAAAAAAAAAAAAAAAAAAAAAAAAAAAAAAAAAAAAAAAAAAAAAAAAAAAAAAAAAAAAAAAAAAAAAAAAAAAAAAAAAAAAAAAAAAAAAAAAAAAAAAAAAAAAAAAAAAAAAAAAAAAAAAAAAAAAAAAAAAAAAAAAAAAAAAAAAAAAAAAAAAAAAAAAAAAAAAAAAAAAAAAAAAAAAAAAAAAAAAAAAAAAAAAAAAAAAAAAAAAAAAAAAAAAAAAAAAAAAAAAAAAAAAAAAAAAAAAAAAAAAAAAAAAAAAAAAAAAAAAAAAAAAAAAAAAAAAAAAAAAAAAAAAAAAAAAAAAAAAAAAAAAAAAAAAAAAAAAAAAAAAAAAAAAAAAAAAAAAAAAAAAAAAAAAAAAAAAAAAAAAAAAAAAAAAAAAAAAAAAAAAAAAAAAAAAAAAAAAAAAAAAAAAAAAAAAAAAAAAAAAAAAAAAAAAA8z2BAPQ7ggHzO4EA8zyBrfM8gf/zPIH88zyB/PM8gf7zPIH/8zyB//M8gf/zPIH/8zyB//M8gf/zPIH/8zyB//M8gf/zPIH/8zyB//M8gf/zPIH/8zyB//M8gf/zPIH/8zyB//M8gf/zPIH/8zyB//M8gf/zPIH/8zyB//M8gf/zPIH/8zyB/PM8gf/zPIFK8zyBAPM8gQMAAAAAAAAAAAAAAAAAAAAAAAAAAAAAAAAAAAAAAAAAAAAAAAAAAAAAAAAAAAAAAAAAAAAAAAAAAAAAAAAAAAAAAAAAAAAAAAAAAAAAAAAAAAAAAAAAAAAAAAAAAAAAAAAAAAAAAAAAAAAAAAAAAAAAAAAAAAAAAAAAAAAAAAAAAAAAAAAAAAAAAAAAAAAAAAAAAAAAAAAAAAAAAAAAAAAAAAAAAAAAAAAAAAAAAAAAAAAAAAAAAAAAAAAAAAAAAAAAAAAAAAAAAAAAAAAAAAAAAAAAAAAAAAAAAAAAAAAAAAAAAAAAAAAAAAAAAAAAAAAAAAAAAAAAAAAAAAAAAAAAAAAAAAAAAAAAAAAAAAAAAAAAAAAAAAAAAAAAAAAAAAAAAAAAAAAAAAAAAAAAAAAAAAAAAAAAAAAAAAAAAAAAAAAAAAAAAAAAAAAAAAAAAAAAAAAAAAAAAAAAAAAAAAAAAAAAAAAAAADzPYAA8gW4APM2hwDzPIHP8zyB//M8gfvzPIH/8zyB//M8gf/zPIH/8zyB//M8gf/zPIH/8zyB//M8gf/zPIH/8zyB//M8gf/zPIH/8zyB//M8gf/zPIH/8zyB//M8gf/zPIH/8zyB//M8gf/zPIH/8zyB//M8gf/zPIH/8zyB//M8gf/zPIH88zyB//M8gUrzPIEA8zyBAwAAAAAAAAAAAAAAAAAAAAAAAAAAAAAAAAAAAAAAAAAAAAAAAAAAAAAAAAAAAAAAAAAAAAAAAAAAAAAAAAAAAAAAAAAAAAAAAAAAAAAAAAAAAAAAAAAAAAAAAAAAAAAAAAAAAAAAAAAAAAAAAAAAAAAAAAAAAAAAAAAAAAAAAAAAAAAAAAAAAAAAAAAAAAAAAAAAAAAAAAAAAAAAAAAAAAAAAAAAAAAAAAAAAAAAAAAAAAAAAAAAAAAAAAAAAAAAAAAAAAAAAAAAAAAAAAAAAAAAAAAAAAAAAAAAAAAAAAAAAAAAAAAAAAAAAAAAAAAAAAAAAAAAAAAAAAAAAAAAAAAAAAAAAAAAAAAAAAAAAAAAAAAAAAAAAAAAAAAAAAAAAAAAAAAAAAAAAAAAAAAAAAAAAAAAAAAAAAAAAAAAAAAAAAAAAAAAAAAAAAAAAAAAAAAAAAAAAAAAAAAAAAAAAAAAAAAAAAAAAPM9gADzMosA8ziFAPM8gczzPIH/8zyB/fM8gf/zPIH/8zyB//M8gf/zPIH/8zyB//M8gf/zPIH/8zyB//M8gf/zPIH/8zyB//M8gf/zPIH/8zyB//M8gf/zPIH/8zyB//M8gf/zPIH/8zyB//M8gf/zPIH/8zyB//M8gf/zPIH/8zyB//M8gfzzPIH/8zyBSvM8gQDzPIEDAAAAAAAAAAAAAAAAAAAAAAAAAAAAAAAAAAAAAAAAAAAAAAAAAAAAAAAAAAAAAAAAAAAAAAAAAAAAAAAAAAAAAAAAAAAAAAAAAAAAAAAAAAAAAAAAAAAAAAAAAAAAAAAAAAAAAAAAAAAAAAAAAAAAAAAAAAAAAAAAAAAAAAAAAAAAAAAAAAAAAAAAAAAAAAAAAAAAAAAAAAAAAAAAAAAAAAAAAAAAAAAAAAAAAAAAAAAAAAAAAAAAAAAAAAAAAAAAAAAAAAAAAAAAAAAAAAAAAAAAAAAAAAAAAAAAAAAAAAAAAAAAAAAAAAAAAAAAAAAAAAAAAAAAAAAAAAAAAAAAAAAAAAAAAAAAAAAAAAAAAAAAAAAAAAAAAAAAAAAAAAAAAAAAAAAAAAAAAAAAAAAAAAAAAAAAAAAAAAAAAAAAAAAAAAAAAAAAAAAAAAAAAAAAAAAAAAAAAAAAAAAAAAAAAAAAAAAAAAAA8z2AAPMwjQDzOIUA8zyBzvM8gf/zPIH98zyB//M8gf/zPIH/8zyB//M8gf/zPIH/8zyB//M8gf/zPIH/8zyB//M8gf/zPIH/8zyB//M8gf/zPIH/8zyB//M8gf/zPIH/8zyB//M8gf/zPIH/8zyB//M8gf/zPIH/8zyB//M8gf/zPIH/8zyB/PM8gf/zPIFK8zyBAPM8gQMAAAAAAAAAAAAAAAAAAAAAAAAAAAAAAAAAAAAAAAAAAAAAAAAAAAAAAAAAAAAAAAAAAAAAAAAAAAAAAAAAAAAAAAAAAAAAAAAAAAAAAAAAAAAAAAAAAAAAAAAAAAAAAAAAAAAAAAAAAAAAAAAAAAAAAAAAAAAAAAAAAAAAAAAAAAAAAAAAAAAAAAAAAAAAAAAAAAAAAAAAAAAAAAAAAAAAAAAAAAAAAAAAAAAAAAAAAAAAAAAAAAAAAAAAAAAAAAAAAAAAAAAAAAAAAAAAAAAAAAAAAAAAAAAAAAAAAAAAAAAAAAAAAAAAAAAAAAAAAAAAAAAAAAAAAAAAAAAAAAAAAAAAAAAAAAAAAAAAAAAAAAAAAAAAAAAAAAAAAAAAAAAAAAAAAAAAAAAAAAAAAAAAAAAAAAAAAAAAAAAAAAAAAAAAAAAAAAAAAAAAAAAAAAAAAAAAAAAAAAAAAAAAAAAAAAAAAAAAAADzPYAA8zCNAPM4hQDzPIHO8zyB//M8gf3zPIH/8zyB//M8gf/zPIH/8zyB//M8gf/zPIH/8zyB//M8gf/zPIH/8zyB//M8gf/zPIH/8zyB//M8gf/zPIH/8zyB//M8gf/zPIH/8zyB//M8gf/zPIH/8zyB//M8gf/zPIH/8zyB//M8gf/zPIH88zyB//M8gUrzPIEA8zyBAwAAAAAAAAAAAAAAAAAAAAAAAAAAAAAAAAAAAAAAAAAAAAAAAAAAAAAAAAAAAAAAAAAAAAAAAAAAAAAAAAAAAAAAAAAAAAAAAAAAAAAAAAAAAAAAAAAAAAAAAAAAAAAAAAAAAAAAAAAAAAAAAAAAAAAAAAAAAAAAAAAAAAAAAAAAAAAAAAAAAAAAAAAAAAAAAAAAAAAAAAAAAAAAAAAAAAAAAAAAAAAAAAAAAAAAAAAAAAAAAAAAAAAAAAAAAAAAAAAAAAAAAAAAAAAAAAAAAAAAAAAAAAAAAAAAAAAAAAAAAAAAAAAAAAAAAAAAAAAAAAAAAAAAAAAAAAAAAAAAAAAAAAAAAAAAAAAAAAAAAAAAAAAAAAAAAAAAAAAAAAAAAAAAAAAAAAAAAAAAAAAAAAAAAAAAAAAAAAAAAAAAAAAAAAAAAAAAAAAAAAAAAAAAAAAAAAAAAAAAAAAAAAAAAAAAAAAAAAAAAPM9gADzMI0A8ziFAPM8gc7zPIH/8zyB/fM8gf/zPIH/8zyB//M8gf/zPIH/8zyB//M8gf/zPIH/8zyB//M8gf/zPIH/8zyB//M8gf/zPIH/8zyB//M8gf/zPIH/8zyB//M8gf/zPIH/8zyB//M8gf/zPIH/8zyB//M8gf/zPIH/8zyB//M8gfzzPIH/8zyBSvM8gQDzPIEDAAAAAAAAAAAAAAAAAAAAAAAAAAAAAAAAAAAAAAAAAAAAAAAAAAAAAAAAAAAAAAAAAAAAAAAAAAAAAAAAAAAAAAAAAAAAAAAAAAAAAAAAAAAAAAAAAAAAAAAAAAAAAAAAAAAAAAAAAAAAAAAAAAAAAAAAAAAAAAAAAAAAAAAAAAAAAAAAAAAAAAAAAAAAAAAAAAAAAAAAAAAAAAAAAAAAAAAAAAAAAAAAAAAAAAAAAAAAAAAAAAAAAAAAAAAAAAAAAAAAAAAAAAAAAAAAAAAAAAAAAAAAAAAAAAAAAAAAAAAAAAAAAAAAAAAAAAAAAAAAAAAAAAAAAAAAAAAAAAAAAAAAAAAAAAAAAAAAAAAAAAAAAAAAAAAAAAAAAAAAAAAAAAAAAAAAAAAAAAAAAAAAAAAAAAAAAAAAAAAAAAAAAAAAAAAAAAAAAAAAAAAAAAAAAAAAAAAAAAAAAAAAAAAAAAAAAAAAAAAA8z2AAPMwjQDzOIUA8zyBzvM8gf/zPIH98zyB//M8gf/zPIH/8zyB//M8gf/zPIH/8zyB//M8gf/zPIH/8zyB//M8gf/zPIH/8zyB//M8gf/zPIH/8zyB//M8gf/zPIH/8zyB//M8gf/zPIH/8zyB//M8gf/zPIH/8zyB//M8gf/zPIH/8zyB/PM8gf/zPIFK8zyBAPM8gQMAAAAAAAAAAAAAAAAAAAAAAAAAAAAAAAAAAAAAAAAAAAAAAAAAAAAAAAAAAAAAAAAAAAAAAAAAAAAAAAAAAAAAAAAAAAAAAAAAAAAAAAAAAAAAAAAAAAAAAAAAAAAAAAAAAAAAAAAAAAAAAAAAAAAAAAAAAAAAAAAAAAAAAAAAAAAAAAAAAAAAAAAAAAAAAAAAAAAAAAAAAAAAAAAAAAAAAAAAAAAAAAAAAAAAAAAAAAAAAAAAAAAAAAAAAAAAAAAAAAAAAAAAAAAAAAAAAAAAAAAAAAAAAAAAAAAAAAAAAAAAAAAAAAAAAAAAAAAAAAAAAAAAAAAAAAAAAAAAAAAAAAAAAAAAAAAAAAAAAAAAAAAAAAAAAAAAAAAAAAAAAAAAAAAAAAAAAAAAAAAAAAAAAAAAAAAAAAAAAAAAAAAAAAAAAAAAAAAAAAAAAAAAAAAAAAAAAAAAAAAAAAAAAAAAAAAAAAAAAADzPYAA8zCNAPM4hQDzPIHO8zyB//M8gf3zPIH/8zyB//M8gf/zPIH/8zyB//M8gf/zPIH/8zyB//M8gf/zPIH/8zyB//M8gf/zPIH/8zyB//M8gf/zPIH/8zyB//M8gf/zPIH/8zyB//M8gf/zPIH/8zyB//M8gf/zPIH/8zyB//M8gf/zPIH88zyB//M8gUrzPIEA8zyBAwAAAAAAAAAAAAAAAAAAAAAAAAAAAAAAAAAAAAAAAAAAAAAAAAAAAAAAAAAAAAAAAAAAAAAAAAAAAAAAAAAAAAAAAAAAAAAAAAAAAAAAAAAAAAAAAAAAAAAAAAAAAAAAAAAAAAAAAAAAAAAAAAAAAAAAAAAAAAAAAAAAAAAAAAAAAAAAAAAAAAAAAAAAAAAAAAAAAAAAAAAAAAAAAAAAAAAAAAAAAAAAAAAAAAAAAAAAAAAAAAAAAAAAAAAAAAAAAAAAAAAAAAAAAAAAAAAAAAAAAAAAAAAAAAAAAAAAAAAAAAAAAAAAAAAAAAAAAAAAAAAAAAAAAAAAAAAAAAAAAAAAAAAAAAAAAAAAAAAAAAAAAAAAAAAAAAAAAAAAAAAAAAAAAAAAAAAAAAAAAAAAAAAAAAAAAAAAAAAAAAAAAAAAAAAAAAAAAAAAAAAAAAAAAAAAAAAAAAAAAAAAAAAAAAAAAAAAAAAAAPM9gADzMI0A8ziFAPM8gc7zPIH/8zyB/fM8gf/zPIH/8zyB//M8gf/zPIH/8zyB//M8gf/zPIH/8zyB//M8gf/zPIH/8zyB//M8gf/zPIH/8zyB//M8gf/zPIH/8zyB//M8gf/zPIH/8zyB//M8gf/zPIH/8zyB//M8gf/zPIH/8zyB//M8gfzzPIH/8zyBSvM8gQDzPIEDAAAAAAAAAAAAAAAAAAAAAAAAAAAAAAAAAAAAAAAAAAAAAAAAAAAAAAAAAAAAAAAAAAAAAAAAAAAAAAAAAAAAAAAAAAAAAAAAAAAAAAAAAAAAAAAAAAAAAAAAAAAAAAAAAAAAAAAAAAAAAAAAAAAAAAAAAAAAAAAAAAAAAAAAAAAAAAAAAAAAAAAAAAAAAAAAAAAAAAAAAAAAAAAAAAAAAAAAAAAAAAAAAAAAAAAAAAAAAAAAAAAAAAAAAAAAAAAAAAAAAAAAAAAAAAAAAAAAAAAAAAAAAAAAAAAAAAAAAAAAAAAAAAAAAAAAAAAAAAAAAAAAAAAAAAAAAAAAAAAAAAAAAAAAAAAAAAAAAAAAAAAAAAAAAAAAAAAAAAAAAAAAAAAAAAAAAAAAAAAAAAAAAAAAAAAAAAAAAAAAAAAAAAAAAAAAAAAAAAAAAAAAAAAAAAAAAAAAAAAAAAAAAAAAAAAAAAAAAAAA8z2AAPMwjQDzOIUA8zyBzvM8gf/zPIH98zyB//M8gf/zPIH/8zyB//M8gf/zPIH/8zyB//M8gf/zPIH/8zyB//M8gf/zPIH/8zyB//M8gf/zPIH/8zyB//M8gf/zPIH/8zyB//M8gf/zPIH/8zyB//M8gf/zPIH/8zyB//M8gf/zPIH/8zyB/PM8gf/zPIFK8zyBAPM8gQMAAAAAAAAAAAAAAAAAAAAAAAAAAAAAAAAAAAAAAAAAAAAAAAAAAAAAAAAAAAAAAAAAAAAAAAAAAAAAAAAAAAAAAAAAAAAAAAAAAAAAAAAAAAAAAAAAAAAAAAAAAAAAAAAAAAAAAAAAAAAAAAAAAAAAAAAAAAAAAAAAAAAAAAAAAAAAAAAAAAAAAAAAAAAAAAAAAAAAAAAAAAAAAAAAAAAAAAAAAAAAAAAAAAAAAAAAAAAAAAAAAAAAAAAAAAAAAAAAAAAAAAAAAAAAAAAAAAAAAAAAAAAAAAAAAAAAAAAAAAAAAAAAAAAAAAAAAAAAAAAAAAAAAAAAAAAAAAAAAAAAAAAAAAAAAAAAAAAAAAAAAAAAAAAAAAAAAAAAAAAAAAAAAAAAAAAAAAAAAAAAAAAAAAAAAAAAAAAAAAAAAAAAAAAAAAAAAAAAAAAAAAAAAAAAAAAAAAAAAAAAAAAAAAAAAAAAAAAAAADzPYAA8zCNAPM4hQDzPIHO8zyB//M8gf3zPIH/8zyB//M8gf/zPIH/8zyB//M8gf/zPIH/8zyB//M8gf/zPIH/8zyB//M8gf/zPIH/8zyB//M8gf/zPIH/8zyB//M8gf/zPIH/8zyB//M8gf/zPIH/8zyB//M8gf/zPIH/8zyB//M8gf/zPIH88zyB//M8gUrzPIEA8zyBAwAAAAAAAAAAAAAAAAAAAAAAAAAAAAAAAAAAAAAAAAAAAAAAAAAAAAAAAAAAAAAAAAAAAAAAAAAAAAAAAAAAAAAAAAAAAAAAAAAAAAAAAAAAAAAAAAAAAAAAAAAAAAAAAAAAAAAAAAAAAAAAAAAAAAAAAAAAAAAAAAAAAAAAAAAAAAAAAAAAAAAAAAAAAAAAAAAAAAAAAAAAAAAAAAAAAAAAAAAAAAAAAAAAAAAAAAAAAAAAAAAAAAAAAAAAAAAAAAAAAAAAAAAAAAAAAAAAAAAAAAAAAAAAAAAAAAAAAAAAAAAAAAAAAAAAAAAAAAAAAAAAAAAAAAAAAAAAAAAAAAAAAAAAAAAAAAAAAAAAAAAAAAAAAAAAAAAAAAAAAAAAAAAAAAAAAAAAAAAAAAAAAAAAAAAAAAAAAAAAAAAAAAAAAAAAAAAAAAAAAAAAAAAAAAAAAAAAAAAAAAAAAAAAAAAAAAAAAAAAAPM9gADzMI0A8ziFAPM8gc7zPIH/8zyB/fM8gf/zPIH/8zyB//M8gf/zPIH/8zyB//M8gf/zPIH/8zyB//M8gf/zPIH/8zyB//M8gf/zPIH/8zyB//M8gf/zPIH/8zyB//M8gf/zPIH/8zyB//M8gf/zPIH/8zyB//M8gf/zPIH/8zyB//M8gfzzPIH/8zyBSvM8gQDzPIEDAAAAAAAAAAAAAAAAAAAAAAAAAAAAAAAAAAAAAAAAAAAAAAAAAAAAAAAAAAAAAAAAAAAAAAAAAAAAAAAAAAAAAAAAAAAAAAAAAAAAAAAAAAAAAAAAAAAAAAAAAAAAAAAAAAAAAAAAAAAAAAAAAAAAAAAAAAAAAAAAAAAAAAAAAAAAAAAAAAAAAAAAAAAAAAAAAAAAAAAAAAAAAAAAAAAAAAAAAAAAAAAAAAAAAAAAAAAAAAAAAAAAAAAAAAAAAAAAAAAAAAAAAAAAAAAAAAAAAAAAAAAAAAAAAAAAAAAAAAAAAAAAAAAAAAAAAAAAAAAAAAAAAAAAAAAAAAAAAAAAAAAAAAAAAAAAAAAAAAAAAAAAAAAAAAAAAAAAAAAAAAAAAAAAAAAAAAAAAAAAAAAAAAAAAAAAAAAAAAAAAAAAAAAAAAAAAAAAAAAAAAAAAAAAAAAAAAAAAAAAAAAAAAAAAAAAAAAAAAAA8z2AAPMwjQDzOIUA8zyBzvM8gf/zPIH98zyB//M8gf/zPIH/8zyB//M8gf/zPIH/8zyB//M8gf/zPIH/8zyB//M8gf/zPIH/8zyB//M8gf/zPIH/8zyB//M8gf/zPIH/8zyB//M8gf/zPIH/8zyB//M8gf/zPIH/8zyB//M8gf/zPIH/8zyB/PM8gf/zPIFK8zyBAPM8gQMAAAAAAAAAAAAAAAAAAAAAAAAAAAAAAAAAAAAAAAAAAAAAAAAAAAAAAAAAAAAAAAAAAAAAAAAAAAAAAAAAAAAAAAAAAAAAAAAAAAAAAAAAAAAAAAAAAAAAAAAAAAAAAAAAAAAAAAAAAAAAAAAAAAAAAAAAAAAAAAAAAAAAAAAAAAAAAAAAAAAAAAAAAAAAAAAAAAAAAAAAAAAAAAAAAAAAAAAAAAAAAAAAAAAAAAAAAAAAAAAAAAAAAAAAAAAAAAAAAAAAAAAAAAAAAAAAAAAAAAAAAAAAAAAAAAAAAAAAAAAAAAAAAAAAAAAAAAAAAAAAAAAAAAAAAAAAAAAAAAAAAAAAAAAAAAAAAAAAAAAAAAAAAAAAAAAAAAAAAAAAAAAAAAAAAAAAAAAAAAAAAAAAAAAAAAAAAAAAAAAAAAAAAAAAAAAAAAAAAAAAAAAAAAAAAAAAAAAAAAAAAAAAAAAAAAAAAAAAAADzPYAA8zCNAPM4hQDzPIHO8zyB//M8gf3zPIH/8zyB//M8gf/zPIH/8zyB//M8gf/zPIH/8zyB//M8gf/zPIH/8zyB//M8gf/zPIH/8zyB//M8gf/zPIH/8zyB//M8gf/zPIH/8zyB//M8gf/zPIH/8zyB//M8gf/zPIH/8zyB//M8gf/zPIH88zyB//M8gUrzPIEA8zyBAwAAAAAAAAAAAAAAAAAAAAAAAAAAAAAAAAAAAAAAAAAAAAAAAAAAAAAAAAAAAAAAAAAAAAAAAAAAAAAAAAAAAAAAAAAAAAAAAAAAAAAAAAAAAAAAAAAAAAAAAAAAAAAAAAAAAAAAAAAAAAAAAAAAAAAAAAAAAAAAAAAAAAAAAAAAAAAAAAAAAAAAAAAAAAAAAAAAAAAAAAAAAAAAAAAAAAAAAAAAAAAAAAAAAAAAAAAAAAAAAAAAAAAAAAAAAAAAAAAAAAAAAAAAAAAAAAAAAAAAAAAAAAAAAAAAAAAAAAAAAAAAAAAAAAAAAAAAAAAAAAAAAAAAAAAAAAAAAAAAAAAAAAAAAAAAAAAAAAAAAAAAAAAAAAAAAAAAAAAAAAAAAAAAAAAAAAAAAAAAAAAAAAAAAAAAAAAAAAAAAAAAAAAAAAAAAAAAAAAAAAAAAAAAAAAAAAAAAAAAAAAAAAAAAAAAAAAAAAAAAPM9gADzMI0A8ziFAPM8gc7zPIH/8zyB/fM8gf/zPIH/8zyB//M8gf/zPIH/8zyB//M8gf/zPIH/8zyB//M8gf/zPIH/8zyB//M8gf/zPIH/8zyB//M8gf/zPIH/8zyB//M8gf/zPIH/8zyB//M8gf/zPIH/8zyB//M8gf/zPIH/8zyB//M8gfzzPIH/8zyBSvM8gQDzPIEDAAAAAAAAAAAAAAAAAAAAAAAAAAAAAAAAAAAAAAAAAAAAAAAAAAAAAAAAAAAAAAAAAAAAAAAAAAAAAAAAAAAAAAAAAAAAAAAAAAAAAAAAAAAAAAAAAAAAAAAAAAAAAAAAAAAAAAAAAAAAAAAAAAAAAAAAAAAAAAAAAAAAAAAAAAAAAAAAAAAAAAAAAAAAAAAAAAAAAAAAAAAAAAAAAAAAAAAAAAAAAAAAAAAAAAAAAAAAAAAAAAAAAAAAAAAAAAAAAAAAAAAAAAAAAAAAAAAAAAAAAAAAAAAAAAAAAAAAAAAAAAAAAAAAAAAAAAAAAAAAAAAAAAAAAAAAAAAAAAAAAAAAAAAAAAAAAAAAAAAAAAAAAAAAAAAAAAAAAAAAAAAAAAAAAAAAAAAAAAAAAAAAAAAAAAAAAAAAAAAAAAAAAAAAAAAAAAAAAAAAAAAAAAAAAAAAAAAAAAAAAAAAAAAAAAAAAAAAAAAA8z2AAPMwjQDzOIUA8zyBzvM8gf/zPIH98zyB//M8gf/zPIH/8zyB//M8gf/zPIH/8zyB//M8gf/zPIH/8zyB//M8gf/zPIH/8zyB//M8gf/zPIH/8zyB//M8gf/zPIH/8zyB//M8gf/zPIH/8zyB//M8gf/zPIH/8zyB//M8gf/zPIH/8zyB/PM8gf/zPIFK8zyBAPM8gQMAAAAAAAAAAAAAAAAAAAAAAAAAAAAAAAAAAAAAAAAAAAAAAAAAAAAAAAAAAAAAAAAAAAAAAAAAAAAAAAAAAAAAAAAAAAAAAAAAAAAAAAAAAAAAAAAAAAAAAAAAAAAAAAAAAAAAAAAAAAAAAAAAAAAAAAAAAAAAAAAAAAAAAAAAAAAAAAAAAAAAAAAAAAAAAAAAAAAAAAAAAAAAAAAAAAAAAAAAAAAAAAAAAAAAAAAAAAAAAAAAAAAAAAAAAAAAAAAAAAAAAAAAAAAAAAAAAAAAAAAAAAAAAAAAAAAAAAAAAAAAAAAAAAAAAAAAAAAAAAAAAAAAAAAAAAAAAAAAAAAAAAAAAAAAAAAAAAAAAAAAAAAAAAAAAAAAAAAAAAAAAAAAAAAAAAAAAAAAAAAAAAAAAAAAAAAAAAAAAAAAAAAAAAAAAAAAAAAAAAAAAAAAAAAAAAAAAAAAAAAAAAAAAAAAAAAAAAAAAADzPYAA8zCNAPM4hQDzPIHO8zyB//M8gf3zPIH/8zyB//M8gf/zPIH/8zyB//M8gf/zPIH/8zyB//M8gf/zPIH/8zyB//M8gf/zPIH/8zyB//M8gf/zPIH/8zyB//M8gf/zPIH/8zyB//M8gf/zPIH/8zyB//M8gf/zPIH/8zyB//M8gf/zPIH88zyB//M8gUnzPIEA8zyBAwAAAAAAAAAAAAAAAAAAAAAAAAAAAAAAAAAAAAAAAAAAAAAAAAAAAAAAAAAAAAAAAAAAAAAAAAAAAAAAAAAAAAAAAAAAAAAAAAAAAAAAAAAAAAAAAAAAAAAAAAAAAAAAAAAAAAAAAAAAAAAAAAAAAAAAAAAAAAAAAAAAAAAAAAAAAAAAAAAAAAAAAAAAAAAAAAAAAAAAAAAAAAAAAAAAAAAAAAAAAAAAAAAAAAAAAAAAAAAAAAAAAAAAAAAAAAAAAAAAAAAAAAAAAAAAAAAAAAAAAAAAAAAAAAAAAAAAAAAAAAAAAAAAAAAAAAAAAAAAAAAAAAAAAAAAAAAAAAAAAAAAAAAAAAAAAAAAAAAAAAAAAAAAAAAAAAAAAAAAAAAAAAAAAAAAAAAAAAAAAAAAAAAAAAAAAAAAAAAAAAAAAAAAAAAAAAAAAAAAAAAAAAAAAAAAAAAAAAAAAAAAAAAAAAAAAAAAAAAAAPM9gADzMI0A8ziFAPM8gc7zPIH/8zyB/fM8gf/zPIH/8zyB//M8gf/zPIH/8zyB//M8gf/zPIH/8zyB//M8gf/zPIH/8zyB//M8gf/zPIH/8zyB//M8gf/zPIH/8zyB//M8gf/zPIH/8zyB//M8gf/zPIH/8zyB//M8gf/zPIH/8zyB/PM8gfvzPIH/8zyBSvM8gQDzPIED9DyCAPQ8ggAAAAAAAAAAAAAAAAAAAAAAAAAAAAAAAAAAAAAAAAAAAAAAAAAAAAAAAAAAAAAAAAAAAAAAAAAAAAAAAAAAAAAAAAAAAAAAAAAAAAAAAAAAAAAAAAAAAAAAAAAAAAAAAAAAAAAAAAAAAAAAAAAAAAAAAAAAAAAAAAAAAAAAAAAAAAAAAAAAAAAAAAAAAAAAAAAAAAAAAAAAAAAAAAAAAAAAAAAAAAAAAAAAAAAAAAAAAAAAAAAAAAAAAAAAAAAAAAAAAAAAAAAAAAAAAAAAAAAAAAAAAAAAAAAAAAAAAAAAAAAAAAAAAAAAAAAAAAAAAAAAAAAAAAAAAAAAAAAAAAAAAAAAAAAAAAAAAAAAAAAAAAAAAAAAAAAAAAAAAAAAAAAAAAAAAAAAAAAAAAAAAAAAAAAAAAAAAAAAAAAAAAAAAAAAAAAAAAAAAAAAAAAAAAAAAAAAAAAAAAAAAAAAAAAA8z2AAPMwjQDzOIUA8zyBzvM8gf/zPIH98zyB//M8gf/zPIH/8zyB//M8gf/zPIH/8zyB//M8gf/zPIH/8zyB//M8gf/zPIH/8zyB//M8gf/zPIH/8zyB//M8gf/zPIH/8zyB//M8gf/zPIH/8zyB//M8gf/zPIH/8zyB/fM8gfzzPIH/8zyB/vM8gaPzPIER8zyBAPM8gQT0PIEB8zyBAPM8gQD0PIIAAAAAAAAAAAAAAAAAAAAAAAAAAAAAAAAAAAAAAAAAAAAAAAAAAAAAAAAAAAAAAAAAAAAAAAAAAAAAAAAAAAAAAAAAAAAAAAAAAAAAAAAAAAAAAAAAAAAAAAAAAAAAAAAAAAAAAAAAAAAAAAAAAAAAAAAAAAAAAAAAAAAAAAAAAAAAAAAAAAAAAAAAAAAAAAAAAAAAAAAAAAAAAAAAAAAAAAAAAAAAAAAAAAAAAAAAAAAAAAAAAAAAAAAAAAAAAAAAAAAAAAAAAAAAAAAAAAAAAAAAAAAAAAAAAAAAAAAAAAAAAAAAAAAAAAAAAAAAAAAAAAAAAAAAAAAAAAAAAAAAAAAAAAAAAAAAAAAAAAAAAAAAAAAAAAAAAAAAAAAAAAAAAAAAAAAAAAAAAAAAAAAAAAAAAAAAAAAAAAAAAAAAAAAAAAAAAAAAAAAAAAAAAAAAAAAAAAAAAADzPYAA8zCNAPM4hQDzPIHO8zyB//M8gf3zPIH/8zyB//M8gf/zPIH/8zyB//M8gf/zPIH/8zyB//M8gf/zPIH/8zyB//M8gf/zPIH/8zyB//M8gf/zPIH/8zyB//M8gf/zPIH/8zyB//M8gf/zPIH/8zyB/vM8gfzzPIH+8zyB//M8gcXzPIE28zyAAPM8gQH0PIIA8zyBAPM8gQLzPIED9jyJAPM7hADzPIEA8zyBAAAAAAAAAAAAAAAAAAAAAAAAAAAAAAAAAAAAAAAAAAAAAAAAAAAAAAAAAAAAAAAAAAAAAAAAAAAAAAAAAAAAAAAAAAAAAAAAAAAAAAAAAAAAAAAAAAAAAAAAAAAAAAAAAAAAAAAAAAAAAAAAAAAAAAAAAAAAAAAAAAAAAAAAAAAAAAAAAAAAAAAAAAAAAAAAAAAAAAAAAAAAAAAAAAAAAAAAAAAAAAAAAAAAAAAAAAAAAAAAAAAAAAAAAAAAAAAAAAAAAAAAAAAAAAAAAAAAAAAAAAAAAAAAAAAAAAAAAAAAAAAAAAAAAAAAAAAAAAAAAAAAAAAAAAAAAAAAAAAAAAAAAAAAAAAAAAAAAAAAAAAAAAAAAAAAAAAAAAAAAAAAAAAAAAAAAAAAAAAAAAAAAAAAAAAAAAAAAAAAAAAAAAAAAAAAAAAAAAAAAAAAAAAAAPM9gADzMI0A8ziFAPM8gc7zPIH/8zyB/fM8gf/zPIH/8zyB//M8gf/zPIH/8zyB//M8gf/zPIH/8zyB//M8gf/zPIH/8zyB//M8gf/zPIH/8zyB//M8gf/zPIH/8zyB//M8gf/zPIH/8zyB/vM8gfzzPIH98zyB//M8geDzPIFZ7zt+APk/hQDzPIF08zyBOfM8ggTzPIFa9DyABfQ8gQDzPIED8zyBAvM9gQDzPYEA8zuBAAAAAAAAAAAAAAAAAAAAAAAAAAAAAAAAAAAAAAAAAAAAAAAAAAAAAAAAAAAAAAAAAAAAAAAAAAAAAAAAAAAAAAAAAAAAAAAAAAAAAAAAAAAAAAAAAAAAAAAAAAAAAAAAAAAAAAAAAAAAAAAAAAAAAAAAAAAAAAAAAAAAAAAAAAAAAAAAAAAAAAAAAAAAAAAAAAAAAAAAAAAAAAAAAAAAAAAAAAAAAAAAAAAAAAAAAAAAAAAAAAAAAAAAAAAAAAAAAAAAAAAAAAAAAAAAAAAAAAAAAAAAAAAAAAAAAAAAAAAAAAAAAAAAAAAAAAAAAAAAAAAAAAAAAAAAAAAAAAAAAAAAAAAAAAAAAAAAAAAAAAAAAAAAAAAAAAAAAAAAAAAAAAAAAAAAAAAAAAAAAAAAAAAAAAAAAAAAAAAAAAAAAAAAAAAAAAAAAAAAAAAA8z2AAPMwjQDzOIUA8zyBzvM8gf/zPIH98zyB//M8gf/zPIH/8zyB//M8gf/zPIH/8zyB//M8gf/zPIH/8zyB//M8gf/zPIH/8zyB//M8gf/zPIH/8zyB//M8gf/zPIH/8zyB//M8gfzzPIH98zyB//M8gfPzPIF/9DyBCvQ8gQDzPIFC8zyBzfM8gf/zPIFF9T5/AfM8gfXzPIHO8zyBO/M8gQDzPYEB8zyBA/M8gQHzPIEA8zyBAPQ8gQAAAAAAAAAAAAAAAAAAAAAAAAAAAAAAAAAAAAAAAAAAAAAAAAAAAAAAAAAAAAAAAAAAAAAAAAAAAAAAAAAAAAAAAAAAAAAAAAAAAAAAAAAAAAAAAAAAAAAAAAAAAAAAAAAAAAAAAAAAAAAAAAAAAAAAAAAAAAAAAAAAAAAAAAAAAAAAAAAAAAAAAAAAAAAAAAAAAAAAAAAAAAAAAAAAAAAAAAAAAAAAAAAAAAAAAAAAAAAAAAAAAAAAAAAAAAAAAAAAAAAAAAAAAAAAAAAAAAAAAAAAAAAAAAAAAAAAAAAAAAAAAAAAAAAAAAAAAAAAAAAAAAAAAAAAAAAAAAAAAAAAAAAAAAAAAAAAAAAAAAAAAAAAAAAAAAAAAAAAAAAAAAAAAAAAAAAAAAAAAAAAAAAAAAAAAAAAAAAAAAAAAAAAAAAAAADzPYAA8zCNAPM4hQDzPIHO8zyB//M8gf3zPIH/8zyB//M8gf/zPIH/8zyB//M8gf/zPIH/8zyB//M8gf/zPIH/8zyB//M8gf/zPIH/8zyB//M8gf/zPIH/8zyB//M8gf3zPIH88zyB//M8gf3zPIGk8zyBHPM8gQDzPIEl8zyBsPM8gf/zPIH88zyB//M8gUX0PYAC8zyB7/M8gf/zPIH+8zyBp/M8gSDzPIEA8zyBAvM8gQPzPIEA8zyAAPM8gQDzPoIAAAAAAAAAAAAAAAAAAAAAAAAAAAAAAAAAAAAAAAAAAAAAAAAAAAAAAAAAAAAAAAAAAAAAAAAAAAAAAAAAAAAAAAAAAAAAAAAAAAAAAAAAAAAAAAAAAAAAAAAAAAAAAAAAAAAAAAAAAAAAAAAAAAAAAAAAAAAAAAAAAAAAAAAAAAAAAAAAAAAAAAAAAAAAAAAAAAAAAAAAAAAAAAAAAAAAAAAAAAAAAAAAAAAAAAAAAAAAAAAAAAAAAAAAAAAAAAAAAAAAAAAAAAAAAAAAAAAAAAAAAAAAAAAAAAAAAAAAAAAAAAAAAAAAAAAAAAAAAAAAAAAAAAAAAAAAAAAAAAAAAAAAAAAAAAAAAAAAAAAAAAAAAAAAAAAAAAAAAAAAAAAAAAAAAAAAAAAAAAAAAAAAAAAAAAAAAAAAAAAAAPM9gADzMI0A8ziFAPM8gc7zPIH/8zyB/fM8gf/zPIH/8zyB//M8gf/zPIH/8zyB//M8gf/zPIH/8zyB//M8gf/zPIH/8zyB//M8gf/zPIH/8zyB//M8gf7zPIH88zyB/vM8gf/zPIHG8zyBN/M8gQDzPIEP8zyBi/M8gffzPIH/8zyB/PM8gfrzPIH/8zyBRvQ9gALzPIHy8zyB//M8gfvzPIH/8zyB9PM8gYHzPIEM8zyBAPM8gQPzPIED90B6AO85iADzPIIA8j2CAAAAAAAAAAAAAAAAAAAAAAAAAAAAAAAAAAAAAAAAAAAAAAAAAAAAAAAAAAAAAAAAAAAAAAAAAAAAAAAAAAAAAAAAAAAAAAAAAAAAAAAAAAAAAAAAAAAAAAAAAAAAAAAAAAAAAAAAAAAAAAAAAAAAAAAAAAAAAAAAAAAAAAAAAAAAAAAAAAAAAAAAAAAAAAAAAAAAAAAAAAAAAAAAAAAAAAAAAAAAAAAAAAAAAAAAAAAAAAAAAAAAAAAAAAAAAAAAAAAAAAAAAAAAAAAAAAAAAAAAAAAAAAAAAAAAAAAAAAAAAAAAAAAAAAAAAAAAAAAAAAAAAAAAAAAAAAAAAAAAAAAAAAAAAAAAAAAAAAAAAAAAAAAAAAAAAAAAAAAAAAAAAAAAAAAAAAAAAAAAAAAAAAAAAAAA8z2AAPMwjQDzOIUA8zyBzvM8gf/zPIH98zyB//M8gf/zPIH/8zyB//M8gf/zPIH/8zyB//M8gf/zPIH/8zyB//M8gf/zPIH/8zyB//M8gf/zPIH88zyB/fM8gf/zPIHg8zyBWfI9gQD0PIAB8zyBZfM8gefzPIH/8zyB/fM8gfzzPIH/8zyB/PM8gf/zPIFG9D2AAvM8gfLzPIH/8zyB/fM8gfzzPIH98zyB//M8geHzPIFa7jh8Aew3ewDzPIED8zyBAvM8gADyPIAA9DuDAAAAAAAAAAAAAAAAAAAAAAAAAAAAAAAAAAAAAAAAAAAAAAAAAAAAAAAAAAAAAAAAAAAAAAAAAAAAAAAAAAAAAAAAAAAAAAAAAAAAAAAAAAAAAAAAAAAAAAAAAAAAAAAAAAAAAAAAAAAAAAAAAAAAAAAAAAAAAAAAAAAAAAAAAAAAAAAAAAAAAAAAAAAAAAAAAAAAAAAAAAAAAAAAAAAAAAAAAAAAAAAAAAAAAAAAAAAAAAAAAAAAAAAAAAAAAAAAAAAAAAAAAAAAAAAAAAAAAAAAAAAAAAAAAAAAAAAAAAAAAAAAAAAAAAAAAAAAAAAAAAAAAAAAAAAAAAAAAAAAAAAAAAAAAAAAAAAAAAAAAAAAAAAAAAAAAAAAAAAAAAAAAAAAAAAAAAAAAAAAAAAAAADzPYAA8zCNAPM4hQDzPIHO8zyB//M8gf3zPIH/8zyB//M8gf/zPIH/8zyB//M8gf/zPIH/8zyB//M8gf/zPIH/8zyB//M8gf/zPIH88zyB/fM8gf/zPIHz8zyBf/Q8gQrzPIEA8zyBQfM8gc/zPIH/8zyB/vM8gfzzPIH+8zyB//M8gf/zPIH88zyB//M8gUb0PYAC8zyB8vM8gf/zPIH+8zyB//M8gf7zPIH88zyB/vM8gf/zPIHE8zyBN/Q8gQDzPIEB8zyBA/M8gQHzPIEA8zyBAPM8gQAAAAAAAAAAAAAAAAAAAAAAAAAAAAAAAAAAAAAAAAAAAAAAAAAAAAAAAAAAAAAAAAAAAAAAAAAAAAAAAAAAAAAAAAAAAAAAAAAAAAAAAAAAAAAAAAAAAAAAAAAAAAAAAAAAAAAAAAAAAAAAAAAAAAAAAAAAAAAAAAAAAAAAAAAAAAAAAAAAAAAAAAAAAAAAAAAAAAAAAAAAAAAAAAAAAAAAAAAAAAAAAAAAAAAAAAAAAAAAAAAAAAAAAAAAAAAAAAAAAAAAAAAAAAAAAAAAAAAAAAAAAAAAAAAAAAAAAAAAAAAAAAAAAAAAAAAAAAAAAAAAAAAAAAAAAAAAAAAAAAAAAAAAAAAAAAAAAAAAAAAAAAAAAAAAAAAAAAAAAAAAAAAAAAAAAAAAAPM9gADzMI0A8ziFAPM8gc7zPIH/8zyB/fM8gf/zPIH/8zyB//M8gf/zPIH/8zyB//M8gf/zPIH/8zyB//M8gf/zPIH98zyB/PM8gf/zPIH+8zyBpPM8gR3zPIEA8zyBJPM8ga/zPIH/8zyB//M8gfzzPIH98zyB//M8gf/zPIH/8zyB//M8gfzzPIH/8zyBRvQ9gALzPIHy8zyB//M8gf7zPIH/8zyB//M8gf/zPIH98zyB/PM8gf/zPIH98zyBofM8gRzzPIEA8zyBAvM8gQPzPIIA8z2CAPM8gQDzO4EAAAAAAAAAAAAAAAAAAAAAAAAAAAAAAAAAAAAAAAAAAAAAAAAAAAAAAAAAAAAAAAAAAAAAAAAAAAAAAAAAAAAAAAAAAAAAAAAAAAAAAAAAAAAAAAAAAAAAAAAAAAAAAAAAAAAAAAAAAAAAAAAAAAAAAAAAAAAAAAAAAAAAAAAAAAAAAAAAAAAAAAAAAAAAAAAAAAAAAAAAAAAAAAAAAAAAAAAAAAAAAAAAAAAAAAAAAAAAAAAAAAAAAAAAAAAAAAAAAAAAAAAAAAAAAAAAAAAAAAAAAAAAAAAAAAAAAAAAAAAAAAAAAAAAAAAAAAAAAAAAAAAAAAAAAAAAAAAAAAAAAAAAAAAAAAAAAAAAAAAAAAAAAAAAAAAAAAAAAAAAAAAA8z2AAPMwjQDzOIUA8zyBzvM8gf/zPIH98zyB//M8gf/zPIH/8zyB//M8gf/zPIH/8zyB//M8gf/zPIH+8zyB/PM8gf7zPIH/8zyBxvM8gTjzPIEA8zyBD/M8gYrzPIH38zyB//M8gfzzPIH88zyB//M8gf/zPIH/8zyB//M8gf/zPIH/8zyB/PM8gf/zPIFG9D2AAvM8gfLzPIH/8zyB/vM8gf/zPIH/8zyB//M8gf/zPIH/8zyB/PM8gfzzPIH/8zyB8fM8gXv0PYEK9D2BAPM8gQPzPIED8D2AAOo/fwD0PIEA8z2AAAAAAAAAAAAAAAAAAAAAAAAAAAAAAAAAAAAAAAAAAAAAAAAAAAAAAAAAAAAAAAAAAAAAAAAAAAAAAAAAAAAAAAAAAAAAAAAAAAAAAAAAAAAAAAAAAAAAAAAAAAAAAAAAAAAAAAAAAAAAAAAAAAAAAAAAAAAAAAAAAAAAAAAAAAAAAAAAAAAAAAAAAAAAAAAAAAAAAAAAAAAAAAAAAAAAAAAAAAAAAAAAAAAAAAAAAAAAAAAAAAAAAAAAAAAAAAAAAAAAAAAAAAAAAAAAAAAAAAAAAAAAAAAAAAAAAAAAAAAAAAAAAAAAAAAAAAAAAAAAAAAAAAAAAAAAAAAAAAAAAAAAAAAAAAAAAAAAAAAAAAAAAAAAAAAAAADzPYAA8zCNAPM4hQDzPIHO8zyB//M8gf3zPIH/8zyB//M8gf/zPIH/8zyB//M8gf/zPIH/8zyB/PM8gf3zPIH/8zyB4PM8gVrwPIAA8Dp/AfM8gWTzPIHm8zyB//M8gf3zPIH88zyB//M8gf/zPIH/8zyB//M8gf/zPIH/8zyB//M8gf/zPIH88zyB//M8gUb0PYAC8zyB8vM8gf/zPIH+8zyB//M8gf/zPIH/8zyB//M8gf/zPIH/8zyB//M8gfzzPIH98zyB//M8gdzzPIFU7jJwAO86egDzPIED8zyBAvM8gQDzPIEA8z2BAAAAAAAAAAAAAAAAAAAAAAAAAAAAAAAAAAAAAAAAAAAAAAAAAAAAAAAAAAAAAAAAAAAAAAAAAAAAAAAAAAAAAAAAAAAAAAAAAAAAAAAAAAAAAAAAAAAAAAAAAAAAAAAAAAAAAAAAAAAAAAAAAAAAAAAAAAAAAAAAAAAAAAAAAAAAAAAAAAAAAAAAAAAAAAAAAAAAAAAAAAAAAAAAAAAAAAAAAAAAAAAAAAAAAAAAAAAAAAAAAAAAAAAAAAAAAAAAAAAAAAAAAAAAAAAAAAAAAAAAAAAAAAAAAAAAAAAAAAAAAAAAAAAAAAAAAAAAAAAAAAAAAAAAAAAAAAAAAAAAAAAAAAAAAAAAAAAAAAAAAAAAAAAAAPM9gADzMI0A8ziFAPM8gc7zPIH/8zyB/fM8gf/zPIH/8zyB//M8gf/zPIH/8zyB/PM8gf3zPIH/8zyB8/M8gX/zPIEK9DyBAPM8gUHzPIHN8zyB//M8gf7zPIH88zyB/vM8gf/zPIH/8zyB//M8gf/zPIH/8zyB//M8gf/zPIH/8zyB//M8gfzzPIH/8zyBRvQ9gALzPIHy8zyB//M8gf7zPIH/8zyB//M8gf/zPIH/8zyB//M8gf/zPIH/8zyB//M8gf7zPIH88zyB/vM8gf/zPIG/8zyBM/M8gQDzPIEB8zyBA/M8gQHzPIEA8zyBAPQ8gQAAAAAAAAAAAAAAAAAAAAAAAAAAAAAAAAAAAAAAAAAAAAAAAAAAAAAAAAAAAAAAAAAAAAAAAAAAAAAAAAAAAAAAAAAAAAAAAAAAAAAAAAAAAAAAAAAAAAAAAAAAAAAAAAAAAAAAAAAAAAAAAAAAAAAAAAAAAAAAAAAAAAAAAAAAAAAAAAAAAAAAAAAAAAAAAAAAAAAAAAAAAAAAAAAAAAAAAAAAAAAAAAAAAAAAAAAAAAAAAAAAAAAAAAAAAAAAAAAAAAAAAAAAAAAAAAAAAAAAAAAAAAAAAAAAAAAAAAAAAAAAAAAAAAAAAAAAAAAAAAAAAAAAAAAAAAAAAAAAAAAAAAAAAAAAAAAAAAAA8z2AAPMwjQDzOIUA8zyBzvM8gf/zPIH98zyB//M8gf/zPIH/8zyB/fM8gfzzPIH/8zyB/vM8gaTzPIEd8zyBAPM8gSPzPIGu8zyB//M8gf/zPIH88zyB/fM8gf/zPIH/8zyB//M8gf/zPIH/8zyB//M8gf/zPIH/8zyB//M8gf/zPIH/8zyB/PM8gf/zPIFG9D2AAvM8gfLzPIH/8zyB/vM8gf/zPIH/8zyB//M8gf/zPIH/8zyB//M8gf/zPIH/8zyB//M8gf/zPIH98zyB/PM8gf/zPIH88zyBnPM9gRnzPYEA8zyBAvM8gQP0O4IA9DuCAPQ8ggDzPoAAAAAAAAAAAAAAAAAAAAAAAAAAAAAAAAAAAAAAAAAAAAAAAAAAAAAAAAAAAAAAAAAAAAAAAAAAAAAAAAAAAAAAAAAAAAAAAAAAAAAAAAAAAAAAAAAAAAAAAAAAAAAAAAAAAAAAAAAAAAAAAAAAAAAAAAAAAAAAAAAAAAAAAAAAAAAAAAAAAAAAAAAAAAAAAAAAAAAAAAAAAAAAAAAAAAAAAAAAAAAAAAAAAAAAAAAAAAAAAAAAAAAAAAAAAAAAAAAAAAAAAAAAAAAAAAAAAAAAAAAAAAAAAAAAAAAAAAAAAAAAAAAAAAAAAAAAAAAAAAAAAAAAAAAAAAAAAAAAAAAAAAAAAADzPYAA8zCNAPM4hQDzPIHO8zyB//M8gf3zPIH/8zyB/vM8gfzzPIH+8zyB//M8gcbzPIE48zyBAPM8gQ7zPIGJ8zyB9vM8gf/zPIH88zyB/PM8gf/zPIH/8zyB//M8gf/zPIH/8zyB//M8gf/zPIH/8zyB//M8gf/zPIH/8zyB//M8gf/zPIH88zyB//M8gUb0PYAC8zyB8vM8gf/zPIH+8zyB//M8gf/zPIH/8zyB//M8gf/zPIH/8zyB//M8gf/zPIH/8zyB//M8gf/zPIH/8zyB/PM8gfzzPIH/8zyB7vM8gXTzO4EI8zuBAPM8gQPzPIED8zyAAPM8fgDzPIIA9DeFAAAAAAAAAAAAAAAAAAAAAAAAAAAAAAAAAAAAAAAAAAAAAAAAAAAAAAAAAAAAAAAAAAAAAAAAAAAAAAAAAAAAAAAAAAAAAAAAAAAAAAAAAAAAAAAAAAAAAAAAAAAAAAAAAAAAAAAAAAAAAAAAAAAAAAAAAAAAAAAAAAAAAAAAAAAAAAAAAAAAAAAAAAAAAAAAAAAAAAAAAAAAAAAAAAAAAAAAAAAAAAAAAAAAAAAAAAAAAAAAAAAAAAAAAAAAAAAAAAAAAAAAAAAAAAAAAAAAAAAAAAAAAAAAAAAAAAAAAAAAAAAAAAAAAAAAAAAAAAAAAAAAAAAAAAAAAAAAAPM9gADzMI0A8ziFAPM8gc7zPIH/8zyB/PM8gfzzPIH98zyB//M8geDzPIFa8T2DAPE+gwHzPIFi8zyB5vM8gf/zPIH98zyB/PM8gf/zPIH/8zyB//M8gf/zPIH/8zyB//M8gf/zPIH/8zyB//M8gf/zPIH/8zyB//M8gf/zPIH/8zyB//M8gfzzPIH/8zyBRvQ9gALzPIHy8zyB//M8gf7zPIH/8zyB//M8gf/zPIH/8zyB//M8gf/zPIH/8zyB//M8gf/zPIH/8zyB//M8gf/zPIH/8zyB/vM8gfzzPIH98zyB//M8gdjzPIFP7z17APE8fgDzPIED8zyBAvM8gQDzPIEA8z2BAAAAAAAAAAAAAAAAAAAAAAAAAAAAAAAAAAAAAAAAAAAAAAAAAAAAAAAAAAAAAAAAAAAAAAAAAAAAAAAAAAAAAAAAAAAAAAAAAAAAAAAAAAAAAAAAAAAAAAAAAAAAAAAAAAAAAAAAAAAAAAAAAAAAAAAAAAAAAAAAAAAAAAAAAAAAAAAAAAAAAAAAAAAAAAAAAAAAAAAAAAAAAAAAAAAAAAAAAAAAAAAAAAAAAAAAAAAAAAAAAAAAAAAAAAAAAAAAAAAAAAAAAAAAAAAAAAAAAAAAAAAAAAAAAAAAAAAAAAAAAAAAAAAAAAAAAAAAAAAAAAAAAAAAAAAA8z2AAPMvjgDzOIUA8zyBzvM8gf/zPIH68zyB//M8gfPzPIF/8zyBCvM8gQDzPIE/8zyBzfM8gf/zPIH+8zyB/PM8gf7zPIH/8zyB//M8gf/zPIH/8zyB//M8gf/zPIH/8zyB//M8gf/zPIH/8zyB//M8gf/zPIH/8zyB//M8gf/zPIH/8zyB/PM8gf/zPIFG9D2AAvM8gfLzPIH/8zyB/vM8gf/zPIH/8zyB//M8gf/zPIH/8zyB//M8gf/zPIH/8zyB//M8gf/zPIH/8zyB//M8gf/zPIH/8zyB//M8gf7zPIH88zyB/vM8gf/zPIG58zyBLvM8gADzPIAC8zyBA/M8gQH0PIEA8zyBAPI9gQAAAAAAAAAAAAAAAAAAAAAAAAAAAAAAAAAAAAAAAAAAAAAAAAAAAAAAAAAAAAAAAAAAAAAAAAAAAAAAAAAAAAAAAAAAAAAAAAAAAAAAAAAAAAAAAAAAAAAAAAAAAAAAAAAAAAAAAAAAAAAAAAAAAAAAAAAAAAAAAAAAAAAAAAAAAAAAAAAAAAAAAAAAAAAAAAAAAAAAAAAAAAAAAAAAAAAAAAAAAAAAAAAAAAAAAAAAAAAAAAAAAAAAAAAAAAAAAAAAAAAAAAAAAAAAAAAAAAAAAAAAAAAAAAAAAAAAAAAAAAAAAAAAAAAAAAAAAAAAAADzPYAA8zOKAPM4hQDzPIHM8zyB//M8gfvzPIGl8zyBHfM8gQDzPIEi8zyBrPM8gf/zPIH/8zyB/PM8gf3zPIH/8zyB//M8gf/zPIH/8zyB//M8gf/zPIH/8zyB//M8gf/zPIH/8zyB//M8gf/zPIH/8zyB//M8gf/zPIH/8zyB//M8gf/zPIH88zyB//M8gUb0PYAC8zyB8vM8gf/zPIH+8zyB//M8gf/zPIH/8zyB//M8gf/zPIH/8zyB//M8gf/zPIH/8zyB//M8gf/zPIH/8zyB//M8gf/zPIH/8zyB//M8gf/zPIH98zyB/PM8gf/zPIH68zyBlfM8gRbzPIEA8zyBAvM8gQPzPIIA9D2CAPM8gQDwOoAAAAAAAAAAAAAAAAAAAAAAAAAAAAAAAAAAAAAAAAAAAAAAAAAAAAAAAAAAAAAAAAAAAAAAAAAAAAAAAAAAAAAAAAAAAAAAAAAAAAAAAAAAAAAAAAAAAAAAAAAAAAAAAAAAAAAAAAAAAAAAAAAAAAAAAAAAAAAAAAAAAAAAAAAAAAAAAAAAAAAAAAAAAAAAAAAAAAAAAAAAAAAAAAAAAAAAAAAAAAAAAAAAAAAAAAAAAAAAAAAAAAAAAAAAAAAAAAAAAAAAAAAAAAAAAAAAAAAAAAAAAAAAAAAAAAAAAAAAAAAAAAAAAAAAAPM9gADyWGMA8ziFAPM8gdLzPIHR8zyBNvM8gQDzPYEO8zyBh/M8gfbzPIH/8zyB/PM8gfzzPIH/8zyB//M8gf/zPIH/8zyB//M8gf/zPIH/8zyB//M8gf/zPIH/8zyB//M8gf/zPIH/8zyB//M8gf/zPIH/8zyB//M8gf/zPIH/8zyB//M8gfzzPIH/8zyBRvQ9gALzPIHy8zyB//M8gf7zPIH/8zyB//M8gf/zPIH/8zyB//M8gf/zPIH/8zyB//M8gf/zPIH/8zyB//M8gf/zPIH/8zyB//M8gf/zPIH/8zyB//M8gf/zPIH/8zyB/PM8gf3zPIH/8zyB6/M8gW70O4EG9DuBAPM8gQPzPIEC8zuBAPM7gADzPYEA6kCAAAAAAAAAAAAAAAAAAAAAAAAAAAAAAAAAAAAAAAAAAAAAAAAAAAAAAAAAAAAAAAAAAAAAAAAAAAAAAAAAAAAAAAAAAAAAAAAAAAAAAAAAAAAAAAAAAAAAAAAAAAAAAAAAAAAAAAAAAAAAAAAAAAAAAAAAAAAAAAAAAAAAAAAAAAAAAAAAAAAAAAAAAAAAAAAAAAAAAAAAAAAAAAAAAAAAAAAAAAAAAAAAAAAAAAAAAAAAAAAAAAAAAAAAAAAAAAAAAAAAAAAAAAAAAAAAAAAAAAAAAAAAAAAAAAAAAAAAAAAA8z2BAPM9gQDzPYEF8zyBP/M8gQXyP38A8zyBYfM8geXzPIH/8zyB/fM8gfzzPIH/8zyB//M8gf/zPIH/8zyB//M8gf/zPIH/8zyB//M8gf/zPIH/8zyB//M8gf/zPIH/8zyB//M8gf/zPIH/8zyB//M8gf/zPIH/8zyB//M8gf/zPIH/8zyB/PM8gf/zPIFG9D2AAvM8gfLzPIH/8zyB/vM8gf/zPIH/8zyB//M8gf/zPIH/8zyB//M8gf/zPIH/8zyB//M8gf/zPIH/8zyB//M8gf/zPIH/8zyB//M8gf/zPIH/8zyB//M8gf/zPIH/8zyB/vM8gfzzPIH98zyB//M8gdTzPIFJ8D1+API8gAHzPIED8z6CAPM9ggDzPYIAAAAAAAAAAAAAAAAAAAAAAAAAAAAAAAAAAAAAAAAAAAAAAAAAAAAAAAAAAAAAAAAAAAAAAAAAAAAAAAAAAAAAAAAAAAAAAAAAAAAAAAAAAAAAAAAAAAAAAAAAAAAAAAAAAAAAAAAAAAAAAAAAAAAAAAAAAAAAAAAAAAAAAAAAAAAAAAAAAAAAAAAAAAAAAAAAAAAAAAAAAAAAAAAAAAAAAAAAAAAAAAAAAAAAAAAAAAAAAAAAAAAAAAAAAAAAAAAAAAAAAAAAAAAAAAAAAAAAAAAAAAD0O4EA8jyBAPM8gQDzPIEB8zyBAfM8gQHzPIEA8zyBPfM8gcvzPIH/8zyB/vM8gfzzPIH+8zyB//M8gf/zPIH/8zyB//M8gf/zPIH/8zyB//M8gf/zPIH/8zyB//M8gf/zPIH/8zyB//M8gf/zPIH/8zyB//M8gf/zPIH/8zyB//M8gf/zPIH/8zyB//M8gf/zPIH88zyB//M8gUb0PYAC8zyB8vM8gf/zPIH+8zyB//M8gf/zPIH/8zyB//M8gf/zPIH/8zyB//M8gf/zPIH/8zyB//M8gf/zPIH/8zyB//M8gf/zPIH/8zyB//M8gf/zPIH/8zyB//M8gf/zPIH/8zyB//M8gf3zPIH88zyB/vM8gf/zPIG08zyBKvI8gQDzPIEB9TyDAAAAAAAAAAAAAAAAAAAAAAAAAAAAAAAAAAAAAAAAAAAAAAAAAAAAAAAAAAAAAAAAAAAAAAAAAAAAAAAAAAAAAAAAAAAAAAAAAAAAAAAAAAAAAAAAAAAAAAAAAAAAAAAAAAAAAAAAAAAAAAAAAAAAAAAAAAAAAAAAAAAAAAAAAAAAAAAAAAAAAAAAAAAAAAAAAAAAAAAAAAAAAAAAAAAAAAAAAAAAAAAAAAAAAAAAAAAAAAAAAAAAAAAAAAAAAAAAAAAAAAAAAAAAAAAAAAAAAAD0O4EA8zyBAPM8gQDzO4EB8zyBA/M9gQHzPIEB8zyBAPM8gZPzPIH/8zyB/vM8gfzzPIH98zyB//M8gf/zPIH/8zyB//M8gf/zPIH/8zyB//M8gf/zPIH/8zyB//M8gf/zPIH/8zyB//M8gf/zPIH/8zyB//M8gf/zPIH/8zyB//M8gf/zPIH/8zyB//M8gf/zPIH/8zyB//M8gfzzPIH/8zyBRvQ9gALzPIHy8zyB//M8gf7zPIH/8zyB//M8gf/zPIH/8zyB//M8gf/zPIH/8zyB//M8gf/zPIH/8zyB//M8gf/zPIH/8zyB//M8gf/zPIH/8zyB//M8gf/zPIH/8zyB//M8gf/zPIH/8zyB//M8gf/zPIH98zyB/PM8gf/zPIH88zyBfvM8gQDzPIAB8zyCAAAAAAAAAAAAAAAAAAAAAAAAAAAAAAAAAAAAAAAAAAAAAAAAAAAAAAAAAAAAAAAAAAAAAAAAAAAAAAAAAAAAAAAAAAAAAAAAAAAAAAAAAAAAAAAAAAAAAAAAAAAAAAAAAAAAAAAAAAAAAAAAAAAAAAAAAAAAAAAAAAAAAAAAAAAAAAAAAAAAAAAAAAAAAAAAAAAAAAAAAAAAAAAAAAAAAAAAAAAAAAAAAAAAAAAAAAAAAAAAAAAAAAAAAAAAAAAAAAAAAADzPIEA8zyBAPM6gwD0NoQA8zyBA/M8gQLzPIEA8zyBGPI7ghjzOoMA8zyB0PM8gf/zPIH68zyB//M8gf/zPIH/8zyB//M8gf/zPIH/8zyB//M8gf/zPIH/8zyB//M8gf/zPIH/8zyB//M8gf/zPIH/8zyB//M8gf/zPIH/8zyB//M8gf/zPIH/8zyB//M8gf/zPIH/8zyB//M8gf/zPIH/8zyB/PM8gf/zPIFG9D2AAvM8gfLzPIH/8zyB/vM8gf/zPIH/8zyB//M8gf/zPIH/8zyB//M8gf/zPIH/8zyB//M8gf/zPIH/8zyB//M8gf/zPIH/8zyB//M8gf/zPIH/8zyB//M8gf/zPIH/8zyB//M8gf/zPIH/8zyB//M8gf/zPIH/8zyB+fM8gf/zPIHQ8zR5APRiqADzPYIAAAAAAAAAAAAAAAAAAAAAAAAAAAAAAAAAAAAAAAAAAAAAAAAAAAAAAAAAAAAAAAAAAAAAAAAAAAAAAAAAAAAAAAAAAAAAAAAAAAAAAAAAAAAAAAAAAAAAAAAAAAAAAAAAAAAAAAAAAAAAAAAAAAAAAAAAAAAAAAAAAAAAAAAAAAAAAAAAAAAAAAAAAAAAAAAAAAAAAAAAAAAAAAAAAAAAAAAAAAAAAAAAAAAAAAAAAAAAAAAAAAAAAAAAAAAAAAAA8zuBAPM9gQDzPIEA8zyBAvM8gQPzOoIA8jqDAvM8gVzzPIHv8zyBTvM7ggDzPIHO8zyB//M8gf3zPIH/8zyB//M8gf/zPIH/8zyB//M8gf/zPIH/8zyB//M8gf/zPIH/8zyB//M8gf/zPIH/8zyB//M8gf/zPIH/8zyB//M8gf/zPIH/8zyB//M8gf/zPIH/8zyB//M8gf/zPIH/8zyB//M8gf/zPIH88zyB//M8gUb0PYAC8zyB8vM8gf/zPIH+8zyB//M8gf/zPIH/8zyB//M8gf/zPIH/8zyB//M8gf/zPIH/8zyB//M8gf/zPIH/8zyB//M8gf/zPIH/8zyB//M8gf/zPIH/8zyB//M8gf/zPIH/8zyB//M8gf/zPIH/8zyB//M8gf/zPIH98zyB//M8gczzN3wA8yNoAPM9ggAAAAAAAAAAAAAAAAAAAAAAAAAAAAAAAAAAAAAAAAAAAAAAAAAAAAAAAAAAAAAAAAAAAAAAAAAAAAAAAAAAAAAAAAAAAAAAAAAAAAAAAAAAAAAAAAAAAAAAAAAAAAAAAAAAAAAAAAAAAAAAAAAAAAAAAAAAAAAAAAAAAAAAAAAAAAAAAAAAAAAAAAAAAAAAAAAAAAAAAAAAAAAAAAAAAAAAAAAAAAAAAAAAAAAAAAAAAAAAAAAAAAAA9DuBAPM8gQDzPIEA8zyBAfM8gQPzPIEB9DyBAPM8gT3zPIHI8zyB//M8gf/zPIFJ8zuCAPM8gdHzPIH/8zyB/fM8gf/zPIH/8zyB//M8gf/zPIH/8zyB//M8gf/zPIH/8zyB//M8gf/zPIH/8zyB//M8gf/zPIH/8zyB//M8gf/zPIH/8zyB//M8gf/zPIH/8zyB//M8gf/zPIH/8zyB//M8gf/zPIH/8zyB//M8gfzzPIH/8zyBRvQ9gALzPIHy8zyB//M8gf7zPIH/8zyB//M8gf/zPIH/8zyB//M8gf/zPIH/8zyB//M8gf/zPIH/8zyB//M8gf/zPIH/8zyB//M8gf/zPIH/8zyB//M8gf/zPIH/8zyB//M8gf/zPIH/8zyB//M8gf/zPIH/8zyB//M8gf3zPIH/8zyBzvM3fADzHmMA8z2CAAAAAAAAAAAAAAAAAAAAAAAAAAAAAAAAAAAAAAAAAAAAAAAAAAAAAAAAAAAAAAAAAAAAAAAAAAAAAAAAAAAAAAAAAAAAAAAAAAAAAAAAAAAAAAAAAAAAAAAAAAAAAAAAAAAAAAAAAAAAAAAAAAAAAAAAAAAAAAAAAAAAAAAAAAAAAAAAAAAAAAAAAAAAAAAAAAAAAAAAAAAAAAAAAAAAAAAAAAAAAAAAAAAAAAAAAAAA9DuBAPM8gQDzPIEA8zuBAPM8gQPzPIEC8zyBAPM8gSHzPIGo8zyB//M8gf/zPIH58zyB//M8gUrzO4IA8zyB0fM8gf/zPIH98zyB//M8gf/zPIH/8zyB//M8gf/zPIH/8zyB//M8gf/zPIH/8zyB//M8gf/zPIH/8zyB//M8gf/zPIH/8zyB//M8gf/zPIH/8zyB//M8gf/zPIH/8zyB//M8gf/zPIH/8zyB//M8gf/zPIH/8zyB/PM8gf/zPIFG9D2AAvM8gfLzPIH/8zyB/vM8gf/zPIH/8zyB//M8gf/zPIH/8zyB//M8gf/zPIH/8zyB//M8gf/zPIH/8zyB//M8gf/zPIH/8zyB//M8gf/zPIH/8zyB//M8gf/zPIH/8zyB//M8gf/zPIH/8zyB//M8gf/zPIH/8zyB/fM8gf/zPIHO8zd8APMeYwDzPYIAAAAAAAAAAAAAAAAAAAAAAAAAAAAAAAAAAAAAAAAAAAAAAAAAAAAAAAAAAAAAAAAAAAAAAAAAAAAAAAAAAAAAAAAAAAAAAAAAAAAAAAAAAAAAAAAAAAAAAAAAAAAAAAAAAAAAAAAAAAAAAAAAAAAAAAAAAAAAAAAAAAAAAAAAAAAAAAAAAAAAAAAAAAAAAAAAAAAAAAAAAAAAAAAAAAAAAAAAAAAAAAAA8zyBAPM8gQDzOoIA9jaDAPM8gQPzPIED8zyBAPM8gQ3zPIGD8zyB9PM8gf/zPIH88zyB/PM8gfzzPIH/8zyBSvM7ggDzPIHR8zyB//M8gf3zPIH/8zyB//M8gf/zPIH/8zyB//M8gf/zPIH/8zyB//M8gf/zPIH/8zyB//M8gf/zPIH/8zyB//M8gf/zPIH/8zyB//M8gf/zPIH/8zyB//M8gf/zPIH/8zyB//M8gf/zPIH/8zyB//M8gf/zPIH88zyB//M8gUb0PYAC8zyB8vM8gf/zPIH+8zyB//M8gf/zPIH/8zyB//M8gf/zPIH/8zyB//M8gf/zPIH/8zyB//M8gf/zPIH/8zyB//M8gf/zPIH/8zyB//M8gf/zPIH/8zyB//M8gf/zPIH/8zyB//M8gf/zPIH/8zyB//M8gf/zPIH98zyB//M8gc7zN3wA8x5jAPM9ggAAAAAAAAAAAAAAAAAAAAAAAAAAAAAAAAAAAAAAAAAAAAAAAAAAAAAAAAAAAAAAAAAAAAAAAAAAAAAAAAAAAAAAAAAAAAAAAAAAAAAAAAAAAAAAAAAAAAAAAAAAAAAAAAAAAAAAAAAAAAAAAAAAAAAAAAAAAAAAAAAAAAAAAAAAAAAAAAAAAAAAAAAAAAAAAAAAAAAAAAAAAAAAAAAAAAAAAAAAAPM7gQDzPYEA8zyBAPM8gQLzPIED9TqAAPQ6gQLzPIFe8zyB4vM8gf/zPIH98zyB/PM8gf/zPIH/8zyB/PM8gf/zPIFK8zuCAPM8gdHzPIH/8zyB/fM8gf/zPIH/8zyB//M8gf/zPIH/8zyB//M8gf/zPIH/8zyB//M8gf/zPIH/8zyB//M8gf/zPIH/8zyB//M8gf/zPIH/8zyB//M8gf/zPIH/8zyB//M8gf/zPIH/8zyB//M8gf/zPIH/8zyB//M8gfzzPIH/8zyBRvQ9gALzPIHy8zyB//M8gf7zPIH/8zyB//M8gf/zPIH/8zyB//M8gf/zPIH/8zyB//M8gf/zPIH/8zyB//M8gf/zPIH/8zyB//M8gf/zPIH/8zyB//M8gf/zPIH/8zyB//M8gf/zPIH/8zyB//M8gf/zPIH/8zyB//M8gf3zPIH/8zyBzvM3fADzHmMA8z2CAAAAAAAAAAAAAAAAAAAAAAAAAAAAAAAAAAAAAAAAAAAAAAAAAAAAAAAAAAAAAAAAAAAAAAAAAAAAAAAAAAAAAAAAAAAAAAAAAAAAAAAAAAAAAAAAAAAAAAAAAAAAAAAAAAAAAAAAAAAAAAAAAAAAAAAAAAAAAAAAAAAAAAAAAAAAAAAAAAAAAAAAAAAAAAAAAAAAAAAAAAAAAAAAAPQ7gQDzPIEA8zyBAPM8gQHzPIED8zyBAfM8gQDzPIE88zyByPM8gf/zPIH+8zyB/PM8gf7zPIH/8zyB//M8gf/zPIH88zyB//M8gUrzO4IA8zyB0fM8gf/zPIH98zyB//M8gf/zPIH/8zyB//M8gf/zPIH/8zyB//M8gf/zPIH/8zyB//M8gf/zPIH/8zyB//M8gf/zPIH/8zyB//M8gf/zPIH/8zyB//M8gf/zPIH/8zyB//M8gf/zPIH/8zyB//M8gf/zPIH/8zyB/PM8gf/zPIFG9D2AAvM8gfLzPIH/8zyB/vM8gf/zPIH/8zyB//M8gf/zPIH/8zyB//M8gf/zPIH/8zyB//M8gf/zPIH/8zyB//M8gf/zPIH/8zyB//M8gf/zPIH/8zyB//M8gf/zPIH/8zyB//M8gf/zPIH/8zyB//M8gf/zPIH/8zyB/fM8gf/zPIHO8zd8APMeYwDzPYIAAAAAAAAAAAAAAAAAAAAAAAAAAAAAAAAAAAAAAAAAAAAAAAAAAAAAAAAAAAAAAAAAAAAAAAAAAAAAAAAAAAAAAAAAAAAAAAAAAAAAAAAAAAAAAAAAAAAAAAAAAAAAAAAAAAAAAAAAAAAAAAAAAAAAAAAAAAAAAAAAAAAAAAAAAAAAAAAAAAAAAAAAAAAAAAAAAAAAAPQ7gQDzPIEA8zyBAPM7gQDzPIED8zyBAvQ8gQDzPIEh8zyBqPM8gf/zPIH/8zyB/PM8gf3zPIH/8zyB//M8gf/zPIH/8zyB//M8gfzzPIH/8zyBSvM7ggDzPIHR8zyB//M8gf3zPIH/8zyB//M8gf/zPIH/8zyB//M8gf/zPIH/8zyB//M8gf/zPIH/8zyB//M8gf/zPIH/8zyB//M8gf/zPIH/8zyB//M8gf/zPIH/8zyB//M8gf/zPIH/8zyB//M8gf/zPIH/8zyB//M8gf/zPIH88zyB//M8gUb0PYAC8zyB8vM8gf/zPIH+8zyB//M8gf/zPIH/8zyB//M8gf/zPIH/8zyB//M8gf/zPIH/8zyB//M8gf/zPIH/8zyB//M8gf/zPIH/8zyB//M8gf/zPIH/8zyB//M8gf/zPIH/8zyB//M8gf/zPIH/8zyB//M8gf/zPIH98zyB//M8gc7zN3wA8x5jAPM9ggAAAAAAAAAAAAAAAAAAAAAAAAAAAAAAAAAAAAAAAAAAAAAAAAAAAAAAAAAAAAAAAAAAAAAAAAAAAAAAAAAAAAAAAAAAAAAAAAAAAAAAAAAAAAAAAAAAAAAAAAAAAAAAAAAAAAAAAAAAAAAAAAAAAAAAAAAAAAAAAAAAAAAAAAAAAAAAAAAAAAAAAAAAAPM8gQDzPIEA9DmCAPc0gwDzPIED8zyBA/Q8gQDzPIEN8zyBg/M8gfTzPIH/8zyB/PM8gfzzPIH/8zyB//M8gf/zPIH/8zyB//M8gf/zPIH/8zyB/PM8gf/zPIFK8zuCAPM8gdHzPIH/8zyB/fM8gf/zPIH/8zyB//M8gf/zPIH/8zyB//M8gf/zPIH/8zyB//M8gf/zPIH/8zyB//M8gf/zPIH/8zyB//M8gf/zPIH/8zyB//M8gf/zPIH/8zyB//M8gf/zPIH/8zyB//M8gf/zPIH/8zyB//M8gfzzPIH/8zyBRvQ9gALzPIHy8zyB//M8gf7zPIH/8zyB//M8gf/zPIH/8zyB//M8gf/zPIH/8zyB//M8gf/zPIH/8zyB//M8gf/zPIH/8zyB//M8gf/zPIH/8zyB//M8gf/zPIH/8zyB//M8gf/zPIH/8zyB//M8gf/zPIH/8zyB//M8gf3zPIH/8zyBzvM3fADzHmMA8z2CAAAAAAAAAAAAAAAAAAAAAAAAAAAAAAAAAAAAAAAAAAAAAAAAAAAAAAAAAAAAAAAAAAAAAAAAAAAAAAAAAAAAAAAAAAAAAAAAAAAAAAAAAAAAAAAAAAAAAAAAAAAAAAAAAAAAAAAAAAAAAAAAAAAAAAAAAAAAAAAAAAAAAAAAAAAAAAAAAAAAAAD0O4EA8z2AAPM9gQDzPIEC8zyBA/U6gAD0OoEC8zyBXvM8geLzPIH/8zyB/fM8gfzzPIH/8zyB//M8gf/zPIH/8zyB//M8gf/zPIH/8zyB//M8gf/zPIH88zyB//M8gUrzO4IA8zyB0fM8gf/zPIH98zyB//M8gf/zPIH/8zyB//M8gf/zPIH/8zyB//M8gf/zPIH/8zyB//M8gf/zPIH/8zyB//M8gf/zPIH/8zyB//M8gf/zPIH/8zyB//M8gf/zPIH/8zyB//M8gf/zPIH/8zyB//M8gf/zPIH/8zyB/PM8gf/zPIFG9D2AAvM8gfLzPIH/8zyB/vM8gf/zPIH/8zyB//M8gf/zPIH/8zyB//M8gf/zPIH/8zyB//M8gf/zPIH/8zyB//M8gf/zPIH/8zyB//M8gf/zPIH/8zyB//M8gf/zPIH/8zyB//M8gf/zPIH/8zyB//M8gf/zPIH/8zyB/fM8gf/zPIHO8zd8APMeYwDzPYIAAAAAAAAAAAAAAAAAAAAAAAAAAAAAAAAAAAAAAAAAAAAAAAAAAAAAAAAAAAAAAAAAAAAAAAAAAAAAAAAAAAAAAAAAAAAAAAAAAAAAAAAAAAAAAAAAAAAAAAAAAAAAAAAAAAAAAAAAAAAAAAAAAAAAAAAAAAAAAAAAAAAAAAAAAAD1OoEA8zyBAPM8gQDzPIEB8zyBA/M9gQHzPIEA8zyBPPM8gcjzPIH/8zyB/vM8gfzzPIH+8zyB//M8gf/zPIH/8zyB//M8gf/zPIH/8zyB//M8gf/zPIH/8zyB//M8gfzzPIH/8zyBSvM7ggDzPIHR8zyB//M8gf3zPIH/8zyB//M8gf/zPIH/8zyB//M8gf/zPIH/8zyB//M8gf/zPIH/8zyB//M8gf/zPIH/8zyB//M8gf/zPIH/8zyB//M8gf/zPIH/8zyB//M8gf/zPIH/8zyB//M8gf/zPIH/8zyB//M8gf/zPIH88zyB//M8gUb0PYAC8zyB8vM8gf/zPIH+8zyB//M8gf/zPIH/8zyB//M8gf/zPIH/8zyB//M8gf/zPIH/8zyB//M8gf/zPIH/8zyB//M8gf/zPIH/8zyB//M8gf/zPIH/8zyB//M8gf/zPIH/8zyB//M8gf/zPIH/8zyB//M8gf/zPIH98zyB//M8gc7zN3wA8x5jAPM9ggAAAAAAAAAAAAAAAAAAAAAAAAAAAAAAAAAAAAAAAAAAAAAAAAAAAAAAAAAAAAAAAAAAAAAAAAAAAAAAAAAAAAAAAAAAAAAAAAAAAAAAAAAAAAAAAAAAAAAAAAAAAAAAAAAAAAAAAAAAAAAAAAAAAAAAAAAAAAAAAAD0O4EA8zyBAPM8gQD0O4EA8zyBA/M8gQLzPIEA8zyBIfM8gafzPIH/8zyB//M8gfzzPIH98zyB//M8gf/zPIH/8zyB//M8gf/zPIH/8zyB//M8gf/zPIH/8zyB//M8gf/zPIH/8zyB/PM8gf/zPIFK8zuCAPM8gdHzPIH/8zyB/fM8gf/zPIH/8zyB//M8gf/zPIH/8zyB//M8gf/zPIH/8zyB//M8gf/zPIH/8zyB//M8gf/zPIH/8zyB//M8gf/zPIH/8zyB//M8gf/zPIH/8zyB//M8gf/zPIH/8zyB//M8gf/zPIH/8zyB//M8gfzzPIH/8zyBRvQ9gALzPIHy8zyB//M8gf7zPIH/8zyB//M8gf/zPIH/8zyB//M8gf/zPIH/8zyB//M8gf/zPIH/8zyB//M8gf/zPIH/8zyB//M8gf/zPIH/8zyB//M8gf/zPIH/8zyB//M8gf/zPIH/8zyB//M8gf/zPIH/8zyB//M8gf3zPIH/8zyBzvM3fADzHmMA8z2CAAAAAAAAAAAAAAAAAAAAAAAAAAAAAAAAAAAAAAAAAAAAAAAAAAAAAAAAAAAAAAAAAAAAAAAAAAAAAAAAAAAAAAAAAAAAAAAAAAAAAAAAAAAAAAAAAAAAAAAAAAAAAAAAAAAAAAAAAAAAAAAAAAAAAADzPIEA8zyBAPQ5ggD4NIMA8zyBA/M8gQPzPIEA8zyBDfM8gYPzPIH08zyB//M8gfzzPIH88zyB//M8gf/zPIH/8zyB//M8gf/zPIH/8zyB//M8gf/zPIH/8zyB//M8gf/zPIH/8zyB//M8gf/zPIH88zyB//M8gUrzO4IA8zyB0fM8gf/zPIH98zyB//M8gf/zPIH/8zyB//M8gf/zPIH/8zyB//M8gf/zPIH/8zyB//M8gf/zPIH/8zyB//M8gf/zPIH/8zyB//M8gf/zPIH/8zyB//M8gf/zPIH/8zyB//M8gf/zPIH/8zyB//M8gf/zPIH/8zyB/PM8gf/zPIFG9D2AAvM8gfLzPIH/8zyB/vM8gf/zPIH/8zyB//M8gf/zPIH/8zyB//M8gf/zPIH/8zyB//M8gf/zPIH/8zyB//M8gf/zPIH/8zyB//M8gf/zPIH/8zyB//M8gf/zPIH/8zyB//M8gf/zPIH/8zyB//M8gf/zPIH/8zyB/fM8gf/zPIHO8zd8APMeYwDzPYIAAAAAAAAAAAAAAAAAAAAAAAAAAAAAAAAAAAAAAAAAAAAAAAAAAAAAAAAAAAAAAAAAAAAAAAAAAAAAAAAAAAAAAAAAAAAAAAAAAAAAAAAAAAAAAAAAAAAAAAAAAAAAAAAAAAAAAAAAAAAAAAAA9DuBAPM9gADzPYEA8zyBAvM8gQP0O38A8juAAvM8gV7zPIHi8zyB//M8gf3zPIH88zyB//M8gf/zPIH/8zyB//M8gf/zPIH/8zyB//M8gf/zPIH/8zyB//M8gf/zPIH/8zyB//M8gf/zPIH/8zyB//M8gfzzPIH/8zyBSvM7ggDzPIHR8zyB//M8gf3zPIH/8zyB//M8gf/zPIH/8zyB//M8gf/zPIH/8zyB//M8gf/zPIH/8zyB//M8gf/zPIH/8zyB//M8gf/zPIH/8zyB//M8gf/zPIH/8zyB//M8gf/zPIH/8zyB//M8gf/zPIH/8zyB//M8gf/zPIH88zyB//M8gUb0PYAC8zyB8vM8gf/zPIH+8zyB//M8gf/zPIH/8zyB//M8gf/zPIH/8zyB//M8gf/zPIH/8zyB//M8gf/zPIH/8zyB//M8gf/zPIH/8zyB//M8gf/zPIH/8zyB//M8gf/zPIH/8zyB//M8gf/zPIH/8zyB//M8gf/zPIH98zyB//M8gc7zN3wA8x5jAPM9ggAAAAAAAAAAAAAAAAAAAAAAAAAAAAAAAAAAAAAAAAAAAAAAAAAAAAAAAAAAAAAAAAAAAAAAAAAAAAAAAAAAAAAAAAAAAAAAAAAAAAAAAAAAAAAAAAAAAAAAAAAAAAAAAAAAAAAA9TqBAPM8gQDzPIEA8zyBAfM8gQPzPYEB9DyBAPM8gTzzPIHI8zyB//M8gf7zPIH88zyB/vM8gf/zPIH/8zyB//M8gf/zPIH/8zyB//M8gf/zPIH/8zyB//M8gf/zPIH/8zyB//M8gf/zPIH/8zyB//M8gf/zPIH/8zyB/PM8gf/zPIFK8zuCAPM8gdHzPIH/8zyB/fM8gf/zPIH/8zyB//M8gf/zPIH/8zyB//M8gf/zPIH/8zyB//M8gf/zPIH/8zyB//M8gf/zPIH/8zyB//M8gf/zPIH/8zyB//M8gf/zPIH/8zyB//M8gf/zPIH/8zyB//M8gf/zPIH/8zyB//M8gfzzPIH/8zyBRvQ9gALzPIHy8zyB//M8gf7zPIH/8zyB//M8gf/zPIH/8zyB//M8gf/zPIH/8zyB//M8gf/zPIH/8zyB//M8gf/zPIH/8zyB//M8gf/zPIH/8zyB//M8gf/zPIH/8zyB//M8gf/zPIH/8zyB//M8gf/zPIH/8zyB//M8gf3zPIH/8zyBzvM3fADzHmMA8z2CAAAAAAAAAAAAAAAAAAAAAAAAAAAAAAAAAAAAAAAAAAAAAAAAAAAAAAAAAAAAAAAAAAAAAAAAAAAAAAAAAAAAAAAAAAAAAAAAAAAAAAAAAAAAAAAAAAAAAAAAAAAA9DuBAPM8gQDzPIEA9DuBAPM8gQPzPIEC8zyBAPM8gSHzPIGn8zyB//M8gf/zPIH88zyB/fM8gf/zPIH/8zyB//M8gf/zPIH/8zyB//M8gf/zPIH/8zyB//M8gf/zPIH/8zyB//M8gf/zPIH/8zyB//M8gf/zPIH/8zyB//M8gf/zPIH88zyB//M8gUrzO4IA8zyB0fM8gf/zPIH98zyB//M8gf/zPIH/8zyB//M8gf/zPIH/8zyB//M8gf/zPIH/8zyB//M8gf/zPIH/8zyB//M8gf/zPIH/8zyB//M8gf/zPIH/8zyB//M8gf/zPIH/8zyB//M8gf/zPIH/8zyB//M8gf/zPIH/8zyB/PM8gf/zPIFF9D2AAvM8ge7zPIH/8zyB/vM8gf/zPIH/8zyB//M8gf/zPIH/8zyB//M8gf/zPIH/8zyB//M8gf/zPIH/8zyB//M8gf/zPIH/8zyB//M8gf/zPIH/8zyB//M8gf/zPIH/8zyB//M8gf/zPIH/8zyB//M8gf/zPIH/8zyB/fM8gf/zPIHO8zd8APMeYwDzPYIAAAAAAAAAAAAAAAAAAAAAAAAAAAAAAAAAAAAAAAAAAAAAAAAAAAAAAAAAAAAAAAAAAAAAAAAAAAAAAAAAAAAAAAAAAAAAAAAAAAAAAAAAAAAAAAAAAAAAAPM8ggDzPIAA8zyAAPM8gQPzPIED8zyBAPM8gQ3zPIGD8zyB9PM8gf/zPIH88zyB/PM8gf/zPIH/8zyB//M8gf/zPIH/8zyB//M8gf/zPIH/8zyB//M8gf/zPIH/8zyB//M8gf/zPIH/8zyB//M8gf/zPIH/8zyB//M8gf/zPIH/8zyB//M8gfzzPIH/8zyBSvM7ggDzPIHR8zyB//M8gf3zPIH/8zyB//M8gf/zPIH/8zyB//M8gf/zPIH/8zyB//M8gf/zPIH/8zyB//M8gf/zPIH/8zyB//M8gf/zPIH/8zyB//M8gf/zPIH/8zyB//M8gf/zPIH/8zyB//M8gf/zPIH/8zyB//M8gfzzPIH68zyB//M8gUb0PYAC8zyB8vM8gf/zPIH78zyB//M8gf/zPIH/8zyB//M8gf/zPIH/8zyB//M8gf/zPIH/8zyB//M8gf/zPIH/8zyB//M8gf/zPIH/8zyB//M8gf/zPIH/8zyB//M8gf/zPIH/8zyB//M8gf/zPIH/8zyB//M8gf/zPIH98zyB//M8gc7zN3wA8x5jAPM9ggAAAAAAAAAAAAAAAAAAAAAAAAAAAAAAAAAAAAAAAAAAAAAAAAAAAAAAAAAAAAAAAAAAAAAAAAAAAAAAAAAAAAAAAAAAAAAAAAAAAAAAAAAAAAAAAAAAAAAAAAAAAAAAAADzPIEA9jd6API7gALzPIFe8zyB4vM8gf/zPIH98zyB/PM8gf/zPIH/8zyB//M8gf/zPIH/8zyB//M8gf/zPIH/8zyB//M8gf/zPIH/8zyB//M8gf/zPIH/8zyB//M8gf/zPIH/8zyB//M8gf/zPIH/8zyB//M8gf/zPIH/8zyB/PM8gf/zPIFK8zuCAPM8gdHzPIH/8zyB/fM8gf/zPIH/8zyB//M8gf/zPIH/8zyB//M8gf/zPIH/8zyB//M8gf/zPIH/8zyB//M8gf/zPIH/8zyB//M8gf/zPIH/8zyB//M8gf/zPIH/8zyB//M8gf/zPIH/8zyB//M8gf3zPIH88zyB//M8gf/zPIGp8zyBEvQ8gADzPIGL8zyB+vM8gf/zPIH88zyB/PM8gf/zPIH/8zyB//M8gf/zPIH/8zyB//M8gf/zPIH/8zyB//M8gf/zPIH/8zyB//M8gf/zPIH/8zyB//M8gf/zPIH/8zyB//M8gf/zPIH/8zyB//M8gf/zPIH/8zyB//M8gf3zPIH/8zyBzvM3fADzHmMA8z2CAAAAAAAAAAAAAAAAAAAAAAAAAAAAAAAAAAAAAAAAAAAAAAAAAAAAAAAAAAAAAAAAAAAAAAAAAAAAAAAAAAAAAAAAAAAAAAAAAAAAAAAAAAAAAAAAAAAAAADzO4IA8zyBAfM8gQDzPIE68zyByfM8gf/zPIH+8zyB/PM8gf7zPIH/8zyB//M8gf/zPIH/8zyB//M8gf/zPIH/8zyB//M8gf/zPIH/8zyB//M8gf/zPIH/8zyB//M8gf/zPIH/8zyB//M8gf/zPIH/8zyB//M8gf/zPIH/8zyB//M8gf/zPIH88zyB//M8gUrzO4IA8zyB0fM8gf/zPIH98zyB//M8gf/zPIH/8zyB//M8gf/zPIH/8zyB//M8gf/zPIH/8zyB//M8gf/zPIH/8zyB//M8gf/zPIH/8zyB//M8gf/zPIH/8zyB//M8gf/zPIH/8zyB//M8gf7zPIH88zyB/vM8gf/zPIHJ8zyBPvM8ggDzPIEB8zyBAfM8gQDzPIEq8zyBs/M8gf/zPIH/8zyB/PM8gf3zPIH/8zyB//M8gf/zPIH/8zyB//M8gf/zPIH/8zyB//M8gf/zPIH/8zyB//M8gf/zPIH/8zyB//M8gf/zPIH/8zyB//M8gf/zPIH/8zyB//M8gf/zPIH/8zyB/fM8gf/zPIHO8zd8APMeYwDzPYIAAAAAAAAAAAAAAAAAAAAAAAAAAAAAAAAAAAAAAAAAAAAAAAAAAAAAAAAAAAAAAAAAAAAAAAAAAAAAAAAAAAAAAAAAAAAAAAAAAAAAAAAAAAAAAAAAAAAAAPM9ggDzMHIA8zh8APM8gc7zPIH/8zyB+vM8gf3zPIH/8zyB//M8gf/zPIH/8zyB//M8gf/zPIH/8zyB//M8gf/zPIH/8zyB//M8gf/zPIH/8zyB//M8gf/zPIH/8zyB//M8gf/zPIH/8zyB//M8gf/zPIH/8zyB//M8gf/zPIH/8zyB//M8gfzzPIH/8zyBSvM7ggDzPIHR8zyB//M8gf3zPIH/8zyB//M8gf/zPIH/8zyB//M8gf/zPIH/8zyB//M8gf/zPIH/8zyB//M8gf/zPIH/8zyB//M8gf/zPIH/8zyB//M8gf/zPIH/8zyB//M8gf/zPIH88zyB/fM8gf/zPIHk8zyBYPU8gAL1PIAA8zyBA/M8gQHzPIEA8zyBA/M8ggHzO4IA8zyBR/M8gdLzPIH/8zyB/fM8gfzzPIH+8zyB//M8gf/zPIH/8zyB//M8gf/zPIH/8zyB//M8gf/zPIH/8zyB//M8gf/zPIH/8zyB//M8gf/zPIH/8zyB//M8gf/zPIH/8zyB//M8gf/zPIH98zyB//M8gc7zN3wA8x5jAPM9ggAAAAAAAAAAAAAAAAAAAAAAAAAAAAAAAAAAAAAAAAAAAAAAAAAAAAAAAAAAAAAAAAAAAAAAAAAAAAAAAAAAAAAAAAAAAAAAAAAAAAAAAAAAAAAAAAAAAAAA8z2CAPH//wDzNXoA8zyBzfM8gf/zPIH98zyB//M8gf/zPIH/8zyB//M8gf/zPIH/8zyB//M8gf/zPIH/8zyB//M8gf/zPIH/8zyB//M8gf/zPIH/8zyB//M8gf/zPIH/8zyB//M8gf/zPIH/8zyB//M8gf/zPIH/8zyB//M8gf/zPIH/8zyB/PM8gf/zPIFK8zuCAPM8gdHzPIH/8zyB/fM8gf/zPIH/8zyB//M8gf/zPIH/8zyB//M8gf/zPIH/8zyB//M8gf/zPIH/8zyB//M8gf/zPIH/8zyB//M8gf/zPIH/8zyB//M8gf/zPIH88zyB/PM8gf/zPIH18zyBhfM8gQ7zPIEA8zyBA/M8gQP4O4UA9zuDAPM8gQDzPIEA8zyBAvM8gQPzPIEA8zyBBfM8gWrzPIHp8zyB//M8gf3zPIH88zyB//M8gf/zPIH/8zyB//M8gf/zPIH/8zyB//M8gf/zPIH/8zyB//M8gf/zPIH/8zyB//M8gf/zPIH/8zyB//M8gf/zPIH/8zyB//M8gf3zPIH/8zyBzvM3fADzHmMA8z2CAAAAAAAAAAAAAAAAAAAAAAAAAAAAAAAAAAAAAAAAAAAAAAAAAAAAAAAAAAAAAAAAAAAAAAAAAAAAAAAAAAAAAAAAAAAAAAAAAAAAAAAAAAAAAAAAAAAAAADzPYIA8yJnAPM3fADzPIHO8zyB//M8gf3zPIH/8zyB//M8gf/zPIH/8zyB//M8gf/zPIH/8zyB//M8gf/zPIH/8zyB//M8gf/zPIH/8zyB//M8gf/zPIH/8zyB//M8gf/zPIH/8zyB//M8gf/zPIH/8zyB//M8gf/zPIH/8zyB//M8gf/zPIH88zyB//M8gUrzO4IA8zyB0fM8gf/zPIH98zyB//M8gf/zPIH/8zyB//M8gf/zPIH/8zyB//M8gf/zPIH/8zyB//M8gf/zPIH/8zyB//M8gf/zPIH/8zyB//M8gf/zPIH98zyB/PM8gf/zPIH/8zyBqvM8gSLyPYEA8zyBAvM8gQPzPIEB8zyBAPM8gQD1PIMA8T6AAPM8gQDzPYEA8z2BAPM8gQPzPIEC8zyBAPM8gRPzPIGO8zyB+PM8gf/zPIH88zyB/PM8gf/zPIH/8zyB//M8gf/zPIH/8zyB//M8gf/zPIH/8zyB//M8gf/zPIH/8zyB//M8gf/zPIH/8zyB//M8gf/zPIH/8zyB/fM8gf/zPIHO8zd8APMeYwDzPYIAAAAAAAAAAAAAAAAAAAAAAAAAAAAAAAAAAAAAAAAAAAAAAAAAAAAAAAAAAAAAAAAAAAAAAAAAAAAAAAAAAAAAAAAAAAAAAAAAAAAAAAAAAAAAAAAAAAAAAPM9ggDzHmMA8zd8APM8gc7zPIH/8zyB/fM8gf/zPIH/8zyB//M8gf/zPIH/8zyB//M8gf/zPIH/8zyB//M8gf/zPIH/8zyB//M8gf/zPIH/8zyB//M8gf/zPIH/8zyB//M8gf/zPIH/8zyB//M8gf/zPIH/8zyB//M8gf/zPIH/8zyB//M8gfzzPIH/8zyBSvM7ggDzPIHR8zyB//M8gf3zPIH/8zyB//M8gf/zPIH/8zyB//M8gf/zPIH/8zyB//M8gf/zPIH/8zyB//M8gf/zPIH/8zyB//M8gf/zPIH+8zyB/PM8gf7zPIH/8zyByvM8gT7wPYEA8j2BAfM8gQPzPIEB8zyBAPM8gQDyPYEAAAAAAAAAAAAAAAAAAAAAAPM9gQDzPIEA8zyBAPM8gQHzPIED9DyBAvQ8gQDzPIEp8zyBsvM8gf/zPIH/8zyB/PM8gf3zPIH/8zyB//M8gf/zPIH/8zyB//M8gf/zPIH/8zyB//M8gf/zPIH/8zyB//M8gf/zPIH/8zyB//M8gf/zPIH98zyB//M8gc7zN3wA8x5jAPM9ggAAAAAAAAAAAAAAAAAAAAAAAAAAAAAAAAAAAAAAAAAAAAAAAAAAAAAAAAAAAAAAAAAAAAAAAAAAAAAAAAAAAAAAAAAAAAAAAAAAAAAAAAAAAAAAAAAAAAAA8z2CAPMeYwDzN3wA8zyBzvM8gf/zPIH98zyB//M8gf/zPIH/8zyB//M8gf/zPIH/8zyB//M8gf/zPIH/8zyB//M8gf/zPIH/8zyB//M8gf/zPIH/8zyB//M8gf/zPIH/8zyB//M8gf/zPIH/8zyB//M8gf/zPIH/8zyB//M8gf/zPIH/8zyB/PM8gf/zPIFK8zuCAPM8gdHzPIH/8zyB/fM8gf/zPIH/8zyB//M8gf/zPIH/8zyB//M8gf/zPIH/8zyB//M8gf/zPIH/8zyB//M8gf/zPIH/8zyB/PM8gf3zPIH/8zyB5PM8gWD2O4IC9TuCAPM8gQPzPIEC8jyBAPI8gADzPIEAAAAAAAAAAAAAAAAAAAAAAAAAAAAAAAAAAAAAAAAAAADyO4EA8zyBAPQ8gQDzPIEC8zyBA/M9ggH0PYIA8zyBR/M8gdDzPIH/8zyB/vM8gfzzPIH+8zyB//M8gf/zPIH/8zyB//M8gf/zPIH/8zyB//M8gf/zPIH/8zyB//M8gf/zPIH/8zyB//M8gf3zPIH/8zyBzvM3fADzHmMA8z2CAAAAAAAAAAAAAAAAAAAAAAAAAAAAAAAAAAAAAAAAAAAAAAAAAAAAAAAAAAAAAAAAAAAAAAAAAAAAAAAAAAAAAAAAAAAAAAAAAAAAAAAAAAAAAAAAAAAAAADzPYIA8x5jAPM3fADzPIHO8zyB//M8gf3zPIH/8zyB//M8gf/zPIH/8zyB//M8gf/zPIH/8zyB//M8gf/zPIH/8zyB//M8gf/zPIH/8zyB//M8gf/zPIH/8zyB//M8gf/zPIH/8zyB//M8gf/zPIH/8zyB//M8gf/zPIH/8zyB//M8gf/zPIH88zyB//M8gUrzO4IA8zyB0fM8gf/zPIH98zyB//M8gf/zPIH/8zyB//M8gf/zPIH/8zyB//M8gf/zPIH/8zyB//M8gf/zPIH/8zyB/PM8gfzzPIH/8zyB9fM8gYbzPIEO8zyBAPM8gQPzPIED9juEAPY7gwDzPIEA9DyCAAAAAAAAAAAAAAAAAAAAAAAAAAAAAAAAAAAAAAAAAAAAAAAAAAAAAADqQIAA8zyBAPM8gQDzPIEA8zyBAvM8gQPyO4EA8juBBPM8gWnzPIHo8zyB//M8gf3zPIH88zyB//M8gf/zPIH/8zyB//M8gf/zPIH/8zyB//M8gf/zPIH/8zyB//M8gf/zPIH/8zyB/fM8gf/zPIHO8zd8APMeYwDzPYIAAAAAAAAAAAAAAAAAAAAAAAAAAAAAAAAAAAAAAAAAAAAAAAAAAAAAAAAAAAAAAAAAAAAAAAAAAAAAAAAAAAAAAAAAAAAAAAAAAAAAAAAAAAAAAAAAAAAAAPM9ggDzHmMA8zd8APM8gc7zPIH/8zyB/fM8gf/zPIH/8zyB//M8gf/zPIH/8zyB//M8gf/zPIH/8zyB//M8gf/zPIH/8zyB//M8gf/zPIH/8zyB//M8gf/zPIH/8zyB//M8gf/zPIH/8zyB//M8gf/zPIH/8zyB//M8gf/zPIH/8zyB//M8gfzzPIH/8zyBSvM7ggDzPIHR8zyB//M8gf3zPIH/8zyB//M8gf/zPIH/8zyB//M8gf/zPIH/8zyB//M8gf/zPIH/8zyB/fM8gfzzPIH/8zyB//M8garzPIEi8jyBAPM8gQLzPIED8zyBAfQ8gQD0PIEA8zyCAAAAAAAAAAAAAAAAAAAAAAAAAAAAAAAAAAAAAAAAAAAAAAAAAAAAAAAAAAAAAAAAAAAAAAAAAAAA70CFAPM8gQDyPIEA8j2CAPM8gQPzPIEC8zyCAPI8ghLzPIGN8zyB+PM8gf/zPIH88zyB/PM8gf/zPIH/8zyB//M8gf/zPIH/8zyB//M8gf/zPIH/8zyB//M8gf/zPIH98zyB//M8gc7zN3wA8x5jAPM9ggAAAAAAAAAAAAAAAAAAAAAAAAAAAAAAAAAAAAAAAAAAAAAAAAAAAAAAAAAAAAAAAAAAAAAAAAAAAAAAAAAAAAAAAAAAAAAAAAAAAAAAAAAAAAAAAAAAAAAA8z2CAPMeYwDzN3wA8zyBzvM8gf/zPIH98zyB//M8gf/zPIH/8zyB//M8gf/zPIH/8zyB//M8gf/zPIH/8zyB//M8gf/zPIH/8zyB//M8gf/zPIH/8zyB//M8gf/zPIH/8zyB//M8gf/zPIH/8zyB//M8gf/zPIH/8zyB//M8gf/zPIH/8zyB/PM8gf/zPIFK8zuCAPM8gdHzPIH/8zyB/fM8gf/zPIH/8zyB//M8gf/zPIH/8zyB//M8gf/zPIH/8zyB/vM8gfzzPIH+8zyB//M8gcvzPIE+8juCAPM7gQHzPIED8zyBAfM8gQDzPIEA8j2BAAAAAAAAAAAAAAAAAAAAAAAAAAAAAAAAAAAAAAAAAAAAAAAAAAAAAAAAAAAAAAAAAAAAAAAAAAAAAAAAAAAAAAAAAAAAAAAAAPM9ggDzPIEA8zyBAPM8gQHzPIED8zyBAvQ8gQDzPIEo8zyBsfM8gf/zPIH/8zyB/PM8gf3zPIH/8zyB//M8gf/zPIH/8zyB//M8gf/zPIH/8zyB//M8gf3zPIH/8zyBzvM3fADzHmMA8z2CAAAAAAAAAAAAAAAAAAAAAAAAAAAAAAAAAAAAAAAAAAAAAAAAAAAAAAAAAAAAAAAAAAAAAAAAAAAAAAAAAAAAAAAAAAAAAAAAAAAAAAAAAAAAAAAAAAAAAADzPYIA8x5jAPM3fADzPIHO8zyB//M8gf3zPIH/8zyB//M8gf/zPIH/8zyB//M8gf/zPIH/8zyB//M8gf/zPIH/8zyB//M8gf/zPIH/8zyB//M8gf/zPIH/8zyB//M8gf/zPIH/8zyB//M8gf/zPIH/8zyB//M8gf/zPIH/8zyB//M8gf/zPIH88zyB//M8gUrzO4IA8zyB0fM8gf/zPIH98zyB//M8gf/zPIH/8zyB//M8gf/zPIH/8zyB//M8gfzzPIH98zyB//M8geTzPIFh8z6AAvI+gADzPIED8zyBAvM8gQDyPIEA8zyBAAAAAAAAAAAAAAAAAAAAAAAAAAAAAAAAAAAAAAAAAAAAAAAAAAAAAAAAAAAAAAAAAAAAAAAAAAAAAAAAAAAAAAAAAAAAAAAAAAAAAAAAAAAAAAAAAAAAAADzPYIA8zyBAPM8gQDzPIEB8zyBA/Q7gQH1O4EA8zyBRPM8gc/zPIH/8zyB/vM8gfzzPIH+8zyB//M8gf/zPIH/8zyB//M8gf/zPIH/8zyB/fM8gf/zPIHO8zd8APMeYwDzPYIAAAAAAAAAAAAAAAAAAAAAAAAAAAAAAAAAAAAAAAAAAAAAAAAAAAAAAAAAAAAAAAAAAAAAAAAAAAAAAAAAAAAAAAAAAAAAAAAAAAAAAAAAAAAAAAAAAAAAAPM9ggDzHmMA8zd8APM8gc7zPIH/8zyB/fM8gf/zPIH/8zyB//M8gf/zPIH/8zyB//M8gf/zPIH/8zyB//M8gf/zPIH/8zyB//M8gf/zPIH/8zyB//M8gf/zPIH/8zyB//M8gf/zPIH/8zyB//M8gf/zPIH/8zyB//M8gf/zPIH/8zyB//M8gfzzPIH/8zyBSvM7ggDzPIHR8zyB//M8gf3zPIH/8zyB//M8gf/zPIH/8zyB//M8gfzzPIH88zyB//M8gfXzPIGG8zyBD/I8gQDzPIEC8zyBA/I9gwDzPYEA8zyBAPM8ggAAAAAAAAAAAAAAAAAAAAAAAAAAAAAAAAAAAAAAAAAAAAAAAAAAAAAAAAAAAAAAAAAAAAAAAAAAAAAAAAAAAAAAAAAAAAAAAAAAAAAAAAAAAAAAAAAAAAAAAAAAAAAAAADoRosA8z2BAPM7ggDzPIEA8zyBAvM8gQP0O4IA8zuCBPM8gWfzPIHn8zyB//M8gf3zPIH88zyB//M8gf/zPIH/8zyB//M8gf/zPIH98zyB//M8gc7zN3wA8x5jAPM9ggAAAAAAAAAAAAAAAAAAAAAAAAAAAAAAAAAAAAAAAAAAAAAAAAAAAAAAAAAAAAAAAAAAAAAAAAAAAAAAAAAAAAAAAAAAAAAAAAAAAAAAAAAAAAAAAAAAAAAA8z2CAPMeYwDzN3wA8zyBzvM8gf/zPIH98zyB//M8gf/zPIH/8zyB//M8gf/zPIH/8zyB//M8gf/zPIH/8zyB//M8gf/zPIH/8zyB//M8gf/zPIH/8zyB//M8gf/zPIH/8zyB//M8gf/zPIH/8zyB//M8gf/zPIH/8zyB//M8gf/zPIH/8zyB/PM8gf/zPIFK8zuCAPM8gdHzPIH/8zyB/fM8gf/zPIH/8zyB//M8gf3zPIH88zyB//M8gf/zPIGq8zyBI/I8gQDzPIEC8zyBA/M8gQHzPIEA8zyBAPI8ggAAAAAAAAAAAAAAAAAAAAAAAAAAAAAAAAAAAAAAAAAAAAAAAAAAAAAAAAAAAAAAAAAAAAAAAAAAAAAAAAAAAAAAAAAAAAAAAAAAAAAAAAAAAAAAAAAAAAAAAAAAAAAAAAAAAAAAAAAAAAAAAAAAAAAA9zmBAPI8gQDyPYEA8z2BAPM8gQPzPIEC8zuCAPM7gRLzPIGM8zyB9/M8gf/zPIH88zyB/PM8gf/zPIH/8zyB//M8gf3zPIH/8zyBzvM3fADzHmMA8z2CAAAAAAAAAAAAAAAAAAAAAAAAAAAAAAAAAAAAAAAAAAAAAAAAAAAAAAAAAAAAAAAAAAAAAAAAAAAAAAAAAAAAAAAAAAAAAAAAAAAAAAAAAAAAAAAAAAAAAADzPYIA8x5jAPM3fADzPIHO8zyB//M8gf3zPIH/8zyB//M8gf/zPIH/8zyB//M8gf/zPIH/8zyB//M8gf/zPIH/8zyB//M8gf/zPIH/8zyB//M8gf/zPIH/8zyB//M8gf/zPIH/8zyB//M8gf/zPIH/8zyB//M8gf/zPIH/8zyB//M8gf/zPIH88zyB//M8gUrzO4IA8zyB0fM8gf/zPIH98zyB//M8gf7zPIH88zyB/vM8gf/zPIHL8zyBP/I7gQDzO4EB8zyBA/M8gQHzPIEA8zyAAPI8gwAAAAAAAAAAAAAAAAAAAAAAAAAAAAAAAAAAAAAAAAAAAAAAAAAAAAAAAAAAAAAAAAAAAAAAAAAAAAAAAAAAAAAAAAAAAAAAAAAAAAAAAAAAAAAAAAAAAAAAAAAAAAAAAAAAAAAAAAAAAAAAAAAAAAAAAAAAAAAAAAAAAAAAAAAAAPQ7gQDzPIEA8zyBAPM7gQHzPIED8zyBAvM8ggDzPIEn8zyBsPM8gf/zPIH/8zyB/PM8gf3zPIH/8zyB/fM8gf/zPIHO8zd8APMeYwDzPYIAAAAAAAAAAAAAAAAAAAAAAAAAAAAAAAAAAAAAAAAAAAAAAAAAAAAAAAAAAAAAAAAAAAAAAAAAAAAAAAAAAAAAAAAAAAAAAAAAAAAAAAAAAAAAAAAAAAAAAPM9ggDzHmMA8zd8APM8gc7zPIH/8zyB/fM8gf/zPIH/8zyB//M8gf/zPIH/8zyB//M8gf/zPIH/8zyB//M8gf/zPIH/8zyB//M8gf/zPIH/8zyB//M8gf/zPIH/8zyB//M8gf/zPIH/8zyB//M8gf/zPIH/8zyB//M8gf/zPIH/8zyB//M8gfzzPIH/8zyBSvM7ggDzPIHR8zyB//M8gfzzPIH88zyB/fM8gf/zPIHk8zyBYfQ+gQPzPoIA8zyBA/M8gQLzPIAA8zyAAPM8ggAAAAAAAAAAAAAAAAAAAAAAAAAAAAAAAAAAAAAAAAAAAAAAAAAAAAAAAAAAAAAAAAAAAAAAAAAAAAAAAAAAAAAAAAAAAAAAAAAAAAAAAAAAAAAAAAAAAAAAAAAAAAAAAAAAAAAAAAAAAAAAAAAAAAAAAAAAAAAAAAAAAAAAAAAAAAAAAAAAAAAAAAAAAAAAAAD0O4IA8zyBAPM8gQDzPIEB8zyBA/M8ggHzPIMA8zyBRPM8gc/zPIH/8zyB/vM8gfzzPIH88zyB//M8gc7zN3wA8x5jAPM9ggAAAAAAAAAAAAAAAAAAAAAAAAAAAAAAAAAAAAAAAAAAAAAAAAAAAAAAAAAAAAAAAAAAAAAAAAAAAAAAAAAAAAAAAAAAAAAAAAAAAAAAAAAAAAAAAAAAAAAA8z2CAPMeYwDzN3wA8zyBzvM8gf/zPIH98zyB//M8gf/zPIH/8zyB//M8gf/zPIH/8zyB//M8gf/zPIH/8zyB//M8gf/zPIH/8zyB//M8gf/zPIH/8zyB//M8gf/zPIH/8zyB//M8gf/zPIH/8zyB//M8gf/zPIH/8zyB//M8gf/zPIH/8zyB/PM8gf/zPIFK8zuCAPM8gdHzPIH/8zyB+vM8gf/zPIH18zyBhvM8gg/zPIIA8zyBA/M8gQPyPYQA8z2CAPM8gQDzPIIAAAAAAAAAAAAAAAAAAAAAAAAAAAAAAAAAAAAAAAAAAAAAAAAAAAAAAAAAAAAAAAAAAAAAAAAAAAAAAAAAAAAAAAAAAAAAAAAAAAAAAAAAAAAAAAAAAAAAAAAAAAAAAAAAAAAAAAAAAAAAAAAAAAAAAAAAAAAAAAAAAAAAAAAAAAAAAAAAAAAAAAAAAAAAAAAAAAAAAAAAAAD/M4AA8zyBAPI8gQDzPIEA8zyBAvM8gQP0PIEA9DyABPM8gWbzPIHn8zyB//M8gfrzPIH/8zyBzvM3fADzFlsA8z2CAAAAAAAAAAAAAAAAAAAAAAAAAAAAAAAAAAAAAAAAAAAAAAAAAAAAAAAAAAAAAAAAAAAAAAAAAAAAAAAAAAAAAAAAAAAAAAAAAAAAAAAAAAAAAAAAAAAAAADzPYIA8x5jAPM3fADzPIHO8zyB//M8gf3zPIH/8zyB//M8gf/zPIH/8zyB//M8gf/zPIH/8zyB//M8gf/zPIH/8zyB//M8gf/zPIH/8zyB//M8gf/zPIH/8zyB//M8gf/zPIH/8zyB//M8gf/zPIH/8zyB//M8gf/zPIH/8zyB//M8gf/zPIH88zyB//M8gUrzO4IA8zyBz/M8gf/zPIH98zyBq/M8gSPzPIEA8zyBAvM8gQPzPIIB8zyBAPM8gQDyPIIAAAAAAAAAAAAAAAAAAAAAAAAAAAAAAAAAAAAAAAAAAAAAAAAAAAAAAAAAAAAAAAAAAAAAAAAAAAAAAAAAAAAAAAAAAAAAAAAAAAAAAAAAAAAAAAAAAAAAAAAAAAAAAAAAAAAAAAAAAAAAAAAAAAAAAAAAAAAAAAAAAAAAAAAAAAAAAAAAAAAAAAAAAAAAAAAAAAAAAAAAAAAAAAAAAAAAAAAAAAAAAAAA9zuGAPM8gAD0PIAA9DyAAPM8gQPzPIEC8zuBAPM8gRHzPIGL8zyB9fM8gf/zPIHN8zd8APMrcADzPYIAAAAAAAAAAAAAAAAAAAAAAAAAAAAAAAAAAAAAAAAAAAAAAAAAAAAAAAAAAAAAAAAAAAAAAAAAAAAAAAAAAAAAAAAAAAAAAAAAAAAAAAAAAAAAAAAAAAAAAPM9ggDzHmMA8zd8APM8gc7zPIH/8zyB/fM8gf/zPIH/8zyB//M8gf/zPIH/8zyB//M8gf/zPIH/8zyB//M8gf/zPIH/8zyB//M8gf/zPIH/8zyB//M8gf/zPIH/8zyB//M8gf/zPIH/8zyB//M8gf/zPIH/8zyB//M8gf/zPIH/8zyB//M8gfzzPIH/8zyBSfM7ggDzPIHW8zyB1vM8gT3yPIEA8zyAAfM8gQPzPIEB8zyBAPM8gQDyPIMAAAAAAAAAAAAAAAAAAAAAAAAAAAAAAAAAAAAAAAAAAAAAAAAAAAAAAAAAAAAAAAAAAAAAAAAAAAAAAAAAAAAAAAAAAAAAAAAAAAAAAAAAAAAAAAAAAAAAAAAAAAAAAAAAAAAAAAAAAAAAAAAAAAAAAAAAAAAAAAAAAAAAAAAAAAAAAAAAAAAAAAAAAAAAAAAAAAAAAAAAAAAAAAAAAAAAAAAAAAAAAAAAAAAAAAAAAAAAAAAAAAAAAPQ8ggDzPIEA8zyBAPM8gQHzPIED8zyBAvM8ggDzPIEk8zyBuPM8gdDzNnoA80OIAPM9ggAAAAAAAAAAAAAAAAAAAAAAAAAAAAAAAAAAAAAAAAAAAAAAAAAAAAAAAAAAAAAAAAAAAAAAAAAAAAAAAAAAAAAAAAAAAAAAAAAAAAAAAAAAAAAAAAAAAAAA8z2CAPMeYwDzN3wA8zyBzvM8gf/zPIH98zyB//M8gf/zPIH/8zyB//M8gf/zPIH/8zyB//M8gf/zPIH/8zyB//M8gf/zPIH/8zyB//M8gf/zPIH/8zyB//M8gf/zPIH/8zyB//M8gf/zPIH/8zyB//M8gf/zPIH/8zyB//M8gf/zPIH/8zyB+fM8gf/zPIFJ8zuBAPM8gUjzPIEJ8zyCAPM8gQPzPIEC8zyBAPM8gQDzPIIAAAAAAAAAAAAAAAAAAAAAAAAAAAAAAAAAAAAAAAAAAAAAAAAAAAAAAAAAAAAAAAAAAAAAAAAAAAAAAAAAAAAAAAAAAAAAAAAAAAAAAAAAAAAAAAAAAAAAAAAAAAAAAAAAAAAAAAAAAAAAAAAAAAAAAAAAAAAAAAAAAAAAAAAAAAAAAAAAAAAAAAAAAAAAAAAAAAAAAAAAAAAAAAAAAAAAAAAAAAAAAAAAAAAAAAAAAAAAAAAAAAAAAAAAAAAAAAAAAAAAAAAAAADzPIEA8zyBAPM8gQDzPIEB8zyBA/Q8gQD0PIAC8zyBLvM9gQXzPYEA8z2BAAAAAAAAAAAAAAAAAAAAAAAAAAAAAAAAAAAAAAAAAAAAAAAAAAAAAAAAAAAAAAAAAAAAAAAAAAAAAAAAAAAAAAAAAAAAAAAAAAAAAAAAAAAAAAAAAAAAAADzPYIA8x5jAPM3fADzPIHO8zyB//M8gf3zPIH/8zyB//M8gf/zPIH/8zyB//M8gf/zPIH/8zyB//M8gf/zPIH/8zyB//M8gf/zPIH/8zyB//M8gf/zPIH/8zyB//M8gf/zPIH/8zyB//M8gf/zPIH/8zyB//M8gf/zPIH/8zyB/PM8gfzzPIH/8zyB+PM8gTXzPIEA8zyBAvM8gQLzPIED8j2FAPM9gwDzPIEA8zyCAAAAAAAAAAAAAAAAAAAAAAAAAAAAAAAAAAAAAAAAAAAAAAAAAAAAAAAAAAAAAAAAAAAAAAAAAAAAAAAAAAAAAAAAAAAAAAAAAAAAAAAAAAAAAAAAAAAAAAAAAAAAAAAAAAAAAAAAAAAAAAAAAAAAAAAAAAAAAAAAAAAAAAAAAAAAAAAAAAAAAAAAAAAAAAAAAAAAAAAAAAAAAAAAAAAAAAAAAAAAAAAAAAAAAAAAAAAAAAAAAAAAAAAAAAAAAAAAAAAAAAAAAAAAAAAAAAAAAAD/K4AA8zyBAPI7gQDyPIEA8zyBAvM8gQPzPIEA8zyBAPM7gQAAAAAAAAAAAAAAAAAAAAAAAAAAAAAAAAAAAAAAAAAAAAAAAAAAAAAAAAAAAAAAAAAAAAAAAAAAAAAAAAAAAAAAAAAAAAAAAAAAAAAAAAAAAAAAAAAAAAAAAAAAAPM9ggDzHmMA8zd8APM8gc7zPIH/8zyB/fM8gf/zPIH/8zyB//M8gf/zPIH/8zyB//M8gf/zPIH/8zyB//M8gf/zPIH/8zyB//M8gf/zPIH/8zyB//M8gf/zPIH/8zyB//M8gf/zPIH/8zyB//M8gf/zPIH/8zyB/fM8gfzzPIH/8zyB//M8garzPIEi8jyBAPI8gQHzPIED8zyBAfM8ggDzPIEA8jyCAAAAAAAAAAAAAAAAAAAAAAAAAAAAAAAAAAAAAAAAAAAAAAAAAAAAAAAAAAAAAAAAAAAAAAAAAAAAAAAAAAAAAAAAAAAAAAAAAAAAAAAAAAAAAAAAAAAAAAAAAAAAAAAAAAAAAAAAAAAAAAAAAAAAAAAAAAAAAAAAAAAAAAAAAAAAAAAAAAAAAAAAAAAAAAAAAAAAAAAAAAAAAAAAAAAAAAAAAAAAAAAAAAAAAAAAAAAAAAAAAAAAAAAAAAAAAAAAAAAAAAAAAAAAAAAAAAAAAAAAAAAAAAAAAAAAAAAAAAAA+DWBAPM8gQDzPIEA8zyBAPM8gQLzPYIA8z2CAPM9gQAAAAAAAAAAAAAAAAAAAAAAAAAAAAAAAAAAAAAAAAAAAAAAAAAAAAAAAAAAAAAAAAAAAAAAAAAAAAAAAAAAAAAAAAAAAAAAAAAAAAAAAAAAAAAAAAAAAAAA8z2CAPMeYwDzN3wA8zyBzvM8gf/zPIH98zyB//M8gf/zPIH/8zyB//M8gf/zPIH/8zyB//M8gf/zPIH/8zyB//M8gf/zPIH/8zyB//M8gf/zPIH/8zyB//M8gf/zPIH/8zyB//M8gf/zPIH/8zyB/vM8gfzzPIH+8zyB//M8gcvzPIE+8D2BAPI8gQHzO4EB9DuBAPM8ggDuRIgA7kSIAAAAAAAAAAAAAAAAAAAAAAAAAAAAAAAAAAAAAAAAAAAAAAAAAAAAAAAAAAAAAAAAAAAAAAAAAAAAAAAAAAAAAAAAAAAAAAAAAAAAAAAAAAAAAAAAAAAAAAAAAAAAAAAAAAAAAAAAAAAAAAAAAAAAAAAAAAAAAAAAAAAAAAAAAAAAAAAAAAAAAAAAAAAAAAAAAAAAAAAAAAAAAAAAAAAAAAAAAAAAAAAAAAAAAAAAAAAAAAAAAAAAAAAAAAAAAAAAAAAAAAAAAAAAAAAAAAAAAAAAAAAAAAAAAAAAAAAAAAAAAAAAAAAAAAAAAAAAAAAAAAAAAAAAAAAAAAAAAAAAAAAAAAAAAAAAAAAAAAAAAAAAAAAAAAAAAAAAAAAAAAAAAAAAAAAAAAAAAAAAAAAAAAAAAAAAAAAAAAAAAAAAAAAAAAAAAAAAAAAAAAAAAAAAAAAAAAAAAAAAAAAAAAAAAADzPYIA8x5jAPM3fADzPIHO8zyB//M8gf3zPIH/8zyB//M8gf/zPIH/8zyB//M8gf/zPIH/8zyB//M8gf/zPIH/8zyB//M8gf/zPIH/8zyB//M8gf/zPIH/8zyB//M8gf/zPIH/8zyB//M8gfzzPIH98zyB//M8geTzPIFh8z6AAvI/gADzPIED8zyBAvM8gQDyPIEA8zyBAAAAAAAAAAAAAAAAAAAAAAAAAAAAAAAAAAAAAAAAAAAAAAAAAAAAAAAAAAAAAAAAAAAAAAAAAAAAAAAAAAAAAAAAAAAAAAAAAAAAAAAAAAAAAAAAAAAAAAAAAAAAAAAAAAAAAAAAAAAAAAAAAAAAAAAAAAAAAAAAAAAAAAAAAAAAAAAAAAAAAAAAAAAAAAAAAAAAAAAAAAAAAAAAAAAAAAAAAAAAAAAAAAAAAAAAAAAAAAAAAAAAAAAAAAAAAAAAAAAAAAAAAAAAAAAAAAAAAAAAAAAAAAAAAAAAAAAAAAAAAAAAAAAAAAAAAAAAAAAAAAAAAAAAAAAAAAAAAAAAAAAAAAAAAAAAAAAAAAAAAAAAAAAAAAAAAAAAAAAAAAAAAAAAAAAAAAAAAAAAAAAAAAAAAAAAAAAAAAAAAAAAAAAAAAAAAAAAAAAAAAAAAAAAAAAAAAAAAAAAAAAAAAAAAAAAAAAAAAAAAPM9ggDzHmMA8zd8APM8gc7zPIH/8zyB/fM8gf/zPIH/8zyB//M8gf/zPIH/8zyB//M8gf/zPIH/8zyB//M8gf/zPIH/8zyB//M8gf/zPIH/8zyB//M8gf/zPIH/8zyB//M8gfzzPIH88zyB//M8gfXzPIGG8zyBDvI8gQDzPIEC8zyBA/U7gwD2OoIA8zyBAPM8ggAAAAAAAAAAAAAAAAAAAAAAAAAAAAAAAAAAAAAAAAAAAAAAAAAAAAAAAAAAAAAAAAAAAAAAAAAAAAAAAAAAAAAAAAAAAAAAAAAAAAAAAAAAAAAAAAAAAAAAAAAAAAAAAAAAAAAAAAAAAAAAAAAAAAAAAAAAAAAAAAAAAAAAAAAAAAAAAAAAAAAAAAAAAAAAAAAAAAAAAAAAAAAAAAAAAAAAAAAAAAAAAAAAAAAAAAAAAAAAAAAAAAAAAAAAAAAAAAAAAAAAAAAAAAAAAAAAAAAAAAAAAAAAAAAAAAAAAAAAAAAAAAAAAAAAAAAAAAAAAAAAAAAAAAAAAAAAAAAAAAAAAAAAAAAAAAAAAAAAAAAAAAAAAAAAAAAAAAAAAAAAAAAAAAAAAAAAAAAAAAAAAAAAAAAAAAAAAAAAAAAAAAAAAAAAAAAAAAAAAAAAAAAAAAAAAAAAAAAAAAAAAAAAAAAAAAAAAAAAAAAAAAAA8z2CAPMeYwDzN3wA8zyBzvM8gf/zPIH98zyB//M8gf/zPIH/8zyB//M8gf/zPIH/8zyB//M8gf/zPIH/8zyB//M8gf/zPIH/8zyB//M8gf/zPIH/8zyB//M8gf3zPIH88zyB//M8gf/zPIGq8zyBI/I8gQDzPIEC8zyBA/M8gQHzPIEA8zyBAPI8ggAAAAAAAAAAAAAAAAAAAAAAAAAAAAAAAAAAAAAAAAAAAAAAAAAAAAAAAAAAAAAAAAAAAAAAAAAAAAAAAAAAAAAAAAAAAAAAAAAAAAAAAAAAAAAAAAAAAAAAAAAAAAAAAAAAAAAAAAAAAAAAAAAAAAAAAAAAAAAAAAAAAAAAAAAAAAAAAAAAAAAAAAAAAAAAAAAAAAAAAAAAAAAAAAAAAAAAAAAAAAAAAAAAAAAAAAAAAAAAAAAAAAAAAAAAAAAAAAAAAAAAAAAAAAAAAAAAAAAAAAAAAAAAAAAAAAAAAAAAAAAAAAAAAAAAAAAAAAAAAAAAAAAAAAAAAAAAAAAAAAAAAAAAAAAAAAAAAAAAAAAAAAAAAAAAAAAAAAAAAAAAAAAAAAAAAAAAAAAAAAAAAAAAAAAAAAAAAAAAAAAAAAAAAAAAAAAAAAAAAAAAAAAAAAAAAAAAAAAAAAAAAAAAAAAAAAAAAAAAAAAAAAAAAAAAAAAAAADzPYIA8x5jAPM3fADzPIHO8zyB//M8gf3zPIH/8zyB//M8gf/zPIH/8zyB//M8gf/zPIH/8zyB//M8gf/zPIH/8zyB//M8gf/zPIH/8zyB//M8gf7zPIH88zyB/vM8gf/zPIHL8zyBP/I7gQDzO4EB8zyBA/M8gQHzPIEA8zyBAPI8gwAAAAAAAAAAAAAAAAAAAAAAAAAAAAAAAAAAAAAAAAAAAAAAAAAAAAAAAAAAAAAAAAAAAAAAAAAAAAAAAAAAAAAAAAAAAAAAAAAAAAAAAAAAAAAAAAAAAAAAAAAAAAAAAAAAAAAAAAAAAAAAAAAAAAAAAAAAAAAAAAAAAAAAAAAAAAAAAAAAAAAAAAAAAAAAAAAAAAAAAAAAAAAAAAAAAAAAAAAAAAAAAAAAAAAAAAAAAAAAAAAAAAAAAAAAAAAAAAAAAAAAAAAAAAAAAAAAAAAAAAAAAAAAAAAAAAAAAAAAAAAAAAAAAAAAAAAAAAAAAAAAAAAAAAAAAAAAAAAAAAAAAAAAAAAAAAAAAAAAAAAAAAAAAAAAAAAAAAAAAAAAAAAAAAAAAAAAAAAAAAAAAAAAAAAAAAAAAAAAAAAAAAAAAAAAAAAAAAAAAAAAAAAAAAAAAAAAAAAAAAAAAAAAAAAAAAAAAAAAAAAAAAAAAAAAAAAAAAAAAAAAAAAAAPM9ggDzHmMA8zd8APM8gc7zPIH/8zyB/fM8gf/zPIH/8zyB//M8gf/zPIH/8zyB//M8gf/zPIH/8zyB//M8gf/zPIH/8zyB//M8gf/zPIH88zyB/fM8gf/zPIHk8zyBYfM+gALyPoAA8zyBA/M8gQLzPIAA8zyAAPM8ggAAAAAAAAAAAAAAAAAAAAAAAAAAAAAAAAAAAAAAAAAAAAAAAAAAAAAAAAAAAAAAAAAAAAAAAAAAAAAAAAAAAAAAAAAAAAAAAAAAAAAAAAAAAAAAAAAAAAAAAAAAAAAAAAAAAAAAAAAAAAAAAAAAAAAAAAAAAAAAAAAAAAAAAAAAAAAAAAAAAAAAAAAAAAAAAAAAAAAAAAAAAAAAAAAAAAAAAAAAAAAAAAAAAAAAAAAAAAAAAAAAAAAAAAAAAAAAAAAAAAAAAAAAAAAAAAAAAAAAAAAAAAAAAAAAAAAAAAAAAAAAAAAAAAAAAAAAAAAAAAAAAAAAAAAAAAAAAAAAAAAAAAAAAAAAAAAAAAAAAAAAAAAAAAAAAAAAAAAAAAAAAAAAAAAAAAAAAAAAAAAAAAAAAAAAAAAAAAAAAAAAAAAAAAAAAAAAAAAAAAAAAAAAAAAAAAAAAAAAAAAAAAAAAAAAAAAAAAAAAAAAAAAAAAAAAAAAAAAAAAAAAAAAAAAAAAAAAAAA8z2CAPMeYwDzN3wA8zyBzvM8gf/zPIH98zyB//M8gf/zPIH/8zyB//M8gf/zPIH/8zyB//M8gf/zPIH/8zyB//M8gf/zPIH88zyB/PM8gf/zPIH18zyBhvM8gQ/zPIEA8zyBA/M8gQPyPYMA8z2BAPM8gQDzPIIAAAAAAAAAAAAAAAAAAAAAAAAAAAAAAAAAAAAAAAAAAAAAAAAAAAAAAAAAAAAAAAAAAAAAAAAAAAAAAAAAAAAAAAAAAAAAAAAAAAAAAAAAAAAAAAAAAAAAAAAAAAAAAAAAAAAAAAAAAAAAAAAAAAAAAAAAAAAAAAAAAAAAAAAAAAAAAAAAAAAAAAAAAAAAAAAAAAAAAAAAAAAAAAAAAAAAAAAAAAAAAAAAAAAAAAAAAAAAAAAAAAAAAAAAAAAAAAAAAAAAAAAAAAAAAAAAAAAAAAAAAAAAAAAAAAAAAAAAAAAAAAAAAAAAAAAAAAAAAAAAAAAAAAAAAAAAAAAAAAAAAAAAAAAAAAAAAAAAAAAAAAAAAAAAAAAAAAAAAAAAAAAAAAAAAAAAAAAAAAAAAAAAAAAAAAAAAAAAAAAAAAAAAAAAAAAAAAAAAAAAAAAAAAAAAAAAAAAAAAAAAAAAAAAAAAAAAAAAAAAAAAAAAAAAAAAAAAAAAAAAAAAAAAAAAAAAAAAAAAAAAADzPYIA8x5jAPM3fADzPIHO8zyB//M8gf3zPIH/8zyB//M8gf/zPIH/8zyB//M8gf/zPIH/8zyB//M8gf/zPIH98zyB/PM8gf/zPIH/8zyBqvM8gSPzPIEA8zyBAvM8gQPzPIEB8zyBAPM8gQDyPIIAAAAAAAAAAAAAAAAAAAAAAAAAAAAAAAAAAAAAAAAAAAAAAAAAAAAAAAAAAAAAAAAAAAAAAAAAAAAAAAAAAAAAAAAAAAAAAAAAAAAAAAAAAAAAAAAAAAAAAAAAAAAAAAAAAAAAAAAAAAAAAAAAAAAAAAAAAAAAAAAAAAAAAAAAAAAAAAAAAAAAAAAAAAAAAAAAAAAAAAAAAAAAAAAAAAAAAAAAAAAAAAAAAAAAAAAAAAAAAAAAAAAAAAAAAAAAAAAAAAAAAAAAAAAAAAAAAAAAAAAAAAAAAAAAAAAAAAAAAAAAAAAAAAAAAAAAAAAAAAAAAAAAAAAAAAAAAAAAAAAAAAAAAAAAAAAAAAAAAAAAAAAAAAAAAAAAAAAAAAAAAAAAAAAAAAAAAAAAAAAAAAAAAAAAAAAAAAAAAAAAAAAAAAAAAAAAAAAAAAAAAAAAAAAAAAAAAAAAAAAAAAAAAAAAAAAAAAAAAAAAAAAAAAAAAAAAAAAAAAAAAAAAAAAAAAAAAAAAAAAAAAAAAAAAAAAAAPM9ggDzHmMA8zd8APM8gc7zPIH/8zyB/fM8gf/zPIH/8zyB//M8gf/zPIH/8zyB//M8gf/zPIH+8zyB/PM8gf7zPIH/8zyBy/M8gT/yO4EA8zuBAfM8gQPzPIEB8zyBAPM8gQDyPIMAAAAAAAAAAAAAAAAAAAAAAAAAAAAAAAAAAAAAAAAAAAAAAAAAAAAAAAAAAAAAAAAAAAAAAAAAAAAAAAAAAAAAAAAAAAAAAAAAAAAAAAAAAAAAAAAAAAAAAAAAAAAAAAAAAAAAAAAAAAAAAAAAAAAAAAAAAAAAAAAAAAAAAAAAAAAAAAAAAAAAAAAAAAAAAAAAAAAAAAAAAAAAAAAAAAAAAAAAAAAAAAAAAAAAAAAAAAAAAAAAAAAAAAAAAAAAAAAAAAAAAAAAAAAAAAAAAAAAAAAAAAAAAAAAAAAAAAAAAAAAAAAAAAAAAAAAAAAAAAAAAAAAAAAAAAAAAAAAAAAAAAAAAAAAAAAAAAAAAAAAAAAAAAAAAAAAAAAAAAAAAAAAAAAAAAAAAAAAAAAAAAAAAAAAAAAAAAAAAAAAAAAAAAAAAAAAAAAAAAAAAAAAAAAAAAAAAAAAAAAAAAAAAAAAAAAAAAAAAAAAAAAAAAAAAAAAAAAAAAAAAAAAAAAAAAAAAAAAAAAAAAAAAAAAAAAAAAAAAAAAAAAA8z2CAPMeYwDzN3wA8zyBzvM8gf/zPIH98zyB//M8gf/zPIH/8zyB//M8gf/zPIH/8zyB/PM8gf3zPIH/8zyB5PM8gWH0PoED8z6CAPM8gQPzPIEC8zyBAPM8gQDzPIIAAAAAAAAAAAAAAAAAAAAAAAAAAAAAAAAAAAAAAAAAAAAAAAAAAAAAAAAAAAAAAAAAAAAAAAAAAAAAAAAAAAAAAAAAAAAAAAAAAAAAAAAAAAAAAAAAAAAAAAAAAAAAAAAAAAAAAAAAAAAAAAAAAAAAAAAAAAAAAAAAAAAAAAAAAAAAAAAAAAAAAAAAAAAAAAAAAAAAAAAAAAAAAAAAAAAAAAAAAAAAAAAAAAAAAAAAAAAAAAAAAAAAAAAAAAAAAAAAAAAAAAAAAAAAAAAAAAAAAAAAAAAAAAAAAAAAAAAAAAAAAAAAAAAAAAAAAAAAAAAAAAAAAAAAAAAAAAAAAAAAAAAAAAAAAAAAAAAAAAAAAAAAAAAAAAAAAAAAAAAAAAAAAAAAAAAAAAAAAAAAAAAAAAAAAAAAAAAAAAAAAAAAAAAAAAAAAAAAAAAAAAAAAAAAAAAAAAAAAAAAAAAAAAAAAAAAAAAAAAAAAAAAAAAAAAAAAAAAAAAAAAAAAAAAAAAAAAAAAAAAAAAAAAAAAAAAAAAAAAAAAAAAAAAAAAAAAADzPYIA8x5jAPM3fADzPIHO8zyB//M8gf3zPIH/8zyB//M8gf/zPIH/8zyB/PM8gfzzPIH/8zyB9fM8gYbzPIIP8zyCAPM8gQPzPIED8j2EAPM9ggDzPIEA8zyCAAAAAAAAAAAAAAAAAAAAAAAAAAAAAAAAAAAAAAAAAAAAAAAAAAAAAAAAAAAAAAAAAAAAAAAAAAAAAAAAAAAAAAAAAAAAAAAAAAAAAAAAAAAAAAAAAAAAAAAAAAAAAAAAAAAAAAAAAAAAAAAAAAAAAAAAAAAAAAAAAAAAAAAAAAAAAAAAAAAAAAAAAAAAAAAAAAAAAAAAAAAAAAAAAAAAAAAAAAAAAAAAAAAAAAAAAAAAAAAAAAAAAAAAAAAAAAAAAAAAAAAAAAAAAAAAAAAAAAAAAAAAAAAAAAAAAAAAAAAAAAAAAAAAAAAAAAAAAAAAAAAAAAAAAAAAAAAAAAAAAAAAAAAAAAAAAAAAAAAAAAAAAAAAAAAAAAAAAAAAAAAAAAAAAAAAAAAAAAAAAAAAAAAAAAAAAAAAAAAAAAAAAAAAAAAAAAAAAAAAAAAAAAAAAAAAAAAAAAAAAAAAAAAAAAAAAAAAAAAAAAAAAAAAAAAAAAAAAAAAAAAAAAAAAAAAAAAAAAAAAAAAAAAAAAAAAAAAAAAAAAAAAAAAAAAAAAAAAAAAAPM9ggDzHmMA8zd8APM8gc7zPIH/8zyB/fM8gf/zPIH/8zyB/fM8gfzzPIH/8zyB//M8gavzPIEj8zyBAPM8gQLzPIED8zyCAfM8gQDzPIEA8jyCAAAAAAAAAAAAAAAAAAAAAAAAAAAAAAAAAAAAAAAAAAAAAAAAAAAAAAAAAAAAAAAAAAAAAAAAAAAAAAAAAAAAAAAAAAAAAAAAAAAAAAAAAAAAAAAAAAAAAAAAAAAAAAAAAAAAAAAAAAAAAAAAAAAAAAAAAAAAAAAAAAAAAAAAAAAAAAAAAAAAAAAAAAAAAAAAAAAAAAAAAAAAAAAAAAAAAAAAAAAAAAAAAAAAAAAAAAAAAAAAAAAAAAAAAAAAAAAAAAAAAAAAAAAAAAAAAAAAAAAAAAAAAAAAAAAAAAAAAAAAAAAAAAAAAAAAAAAAAAAAAAAAAAAAAAAAAAAAAAAAAAAAAAAAAAAAAAAAAAAAAAAAAAAAAAAAAAAAAAAAAAAAAAAAAAAAAAAAAAAAAAAAAAAAAAAAAAAAAAAAAAAAAAAAAAAAAAAAAAAAAAAAAAAAAAAAAAAAAAAAAAAAAAAAAAAAAAAAAAAAAAAAAAAAAAAAAAAAAAAAAAAAAAAAAAAAAAAAAAAAAAAAAAAAAAAAAAAAAAAAAAAAAAAAAAAAAAAAAAAAAAAAAAAAAAAA8z2CAPMeYwDzN3wA8zyBzvM8gf/zPIH98zyB/vM8gfzzPIH+8zyB//M8gcvzPIE/8juAAPM7gAHzPIED8zyBAfM8gQDzPIEA8jyDAAAAAAAAAAAAAAAAAAAAAAAAAAAAAAAAAAAAAAAAAAAAAAAAAAAAAAAAAAAAAAAAAAAAAAAAAAAAAAAAAAAAAAAAAAAAAAAAAAAAAAAAAAAAAAAAAAAAAAAAAAAAAAAAAAAAAAAAAAAAAAAAAAAAAAAAAAAAAAAAAAAAAAAAAAAAAAAAAAAAAAAAAAAAAAAAAAAAAAAAAAAAAAAAAAAAAAAAAAAAAAAAAAAAAAAAAAAAAAAAAAAAAAAAAAAAAAAAAAAAAAAAAAAAAAAAAAAAAAAAAAAAAAAAAAAAAAAAAAAAAAAAAAAAAAAAAAAAAAAAAAAAAAAAAAAAAAAAAAAAAAAAAAAAAAAAAAAAAAAAAAAAAAAAAAAAAAAAAAAAAAAAAAAAAAAAAAAAAAAAAAAAAAAAAAAAAAAAAAAAAAAAAAAAAAAAAAAAAAAAAAAAAAAAAAAAAAAAAAAAAAAAAAAAAAAAAAAAAAAAAAAAAAAAAAAAAAAAAAAAAAAAAAAAAAAAAAAAAAAAAAAAAAAAAAAAAAAAAAAAAAAAAAAAAAAAAAAAAAAAAAAAAAAAAAAAAAAAAAAAAADzPYIA8x5jAPM3fADzPIHP8zyB//M8gfnzPIH98zyB//M8geXzPIFh9D2DA/Q9gwDzPIED8zyBAvM8gQDzPIEA8zyCAAAAAAAAAAAAAAAAAAAAAAAAAAAAAAAAAAAAAAAAAAAAAAAAAAAAAAAAAAAAAAAAAAAAAAAAAAAAAAAAAAAAAAAAAAAAAAAAAAAAAAAAAAAAAAAAAAAAAAAAAAAAAAAAAAAAAAAAAAAAAAAAAAAAAAAAAAAAAAAAAAAAAAAAAAAAAAAAAAAAAAAAAAAAAAAAAAAAAAAAAAAAAAAAAAAAAAAAAAAAAAAAAAAAAAAAAAAAAAAAAAAAAAAAAAAAAAAAAAAAAAAAAAAAAAAAAAAAAAAAAAAAAAAAAAAAAAAAAAAAAAAAAAAAAAAAAAAAAAAAAAAAAAAAAAAAAAAAAAAAAAAAAAAAAAAAAAAAAAAAAAAAAAAAAAAAAAAAAAAAAAAAAAAAAAAAAAAAAAAAAAAAAAAAAAAAAAAAAAAAAAAAAAAAAAAAAAAAAAAAAAAAAAAAAAAAAAAAAAAAAAAAAAAAAAAAAAAAAAAAAAAAAAAAAAAAAAAAAAAAAAAAAAAAAAAAAAAAAAAAAAAAAAAAAAAAAAAAAAAAAAAAAAAAAAAAAAAAAAAAAAAAAAAAAAAAAAAAAAAAAAAAAAAAAAAAAPM9ggDzB0wA8zZ7APM8gczzPIH/8zyB/vM8gfbzPIGH8zyCD/M8ggDzPIEC8zyBA/I8hQDzPIMA8zyBAPM8ggAAAAAAAAAAAAAAAAAAAAAAAAAAAAAAAAAAAAAAAAAAAAAAAAAAAAAAAAAAAAAAAAAAAAAAAAAAAAAAAAAAAAAAAAAAAAAAAAAAAAAAAAAAAAAAAAAAAAAAAAAAAAAAAAAAAAAAAAAAAAAAAAAAAAAAAAAAAAAAAAAAAAAAAAAAAAAAAAAAAAAAAAAAAAAAAAAAAAAAAAAAAAAAAAAAAAAAAAAAAAAAAAAAAAAAAAAAAAAAAAAAAAAAAAAAAAAAAAAAAAAAAAAAAAAAAAAAAAAAAAAAAAAAAAAAAAAAAAAAAAAAAAAAAAAAAAAAAAAAAAAAAAAAAAAAAAAAAAAAAAAAAAAAAAAAAAAAAAAAAAAAAAAAAAAAAAAAAAAAAAAAAAAAAAAAAAAAAAAAAAAAAAAAAAAAAAAAAAAAAAAAAAAAAAAAAAAAAAAAAAAAAAAAAAAAAAAAAAAAAAAAAAAAAAAAAAAAAAAAAAAAAAAAAAAAAAAAAAAAAAAAAAAAAAAAAAAAAAAAAAAAAAAAAAAAAAAAAAAAAAAAAAAAAAAAAAAAAAAAAAAAAAAAAAAAAAAAAAAAAAAAAAAAAAAAAAAAAAAA8z2CAPMAMgDzN3sA8zyBz/M8gf/zPIGp8zyBI/M8ggDzPIEC8zyBA/M8ggHzPIIA8zyBAPI8ggAAAAAAAAAAAAAAAAAAAAAAAAAAAAAAAAAAAAAAAAAAAAAAAAAAAAAAAAAAAAAAAAAAAAAAAAAAAAAAAAAAAAAAAAAAAAAAAAAAAAAAAAAAAAAAAAAAAAAAAAAAAAAAAAAAAAAAAAAAAAAAAAAAAAAAAAAAAAAAAAAAAAAAAAAAAAAAAAAAAAAAAAAAAAAAAAAAAAAAAAAAAAAAAAAAAAAAAAAAAAAAAAAAAAAAAAAAAAAAAAAAAAAAAAAAAAAAAAAAAAAAAAAAAAAAAAAAAAAAAAAAAAAAAAAAAAAAAAAAAAAAAAAAAAAAAAAAAAAAAAAAAAAAAAAAAAAAAAAAAAAAAAAAAAAAAAAAAAAAAAAAAAAAAAAAAAAAAAAAAAAAAAAAAAAAAAAAAAAAAAAAAAAAAAAAAAAAAAAAAAAAAAAAAAAAAAAAAAAAAAAAAAAAAAAAAAAAAAAAAAAAAAAAAAAAAAAAAAAAAAAAAAAAAAAAAAAAAAAAAAAAAAAAAAAAAAAAAAAAAAAAAAAAAAAAAAAAAAAAAAAAAAAAAAAAAAAAAAAAAAAAAAAAAAAAAAAAAAAAAAAAAAAAAAAAAAAAAAAAAAAAAAAAAADzPIEA8z2CAPM+ggPzPIGc8zyBSvM8gQD0PIEB8zyBA/M8gQHzPIEA8zyCAPI7gQAAAAAAAAAAAAAAAAAAAAAAAAAAAAAAAAAAAAAAAAAAAAAAAAAAAAAAAAAAAAAAAAAAAAAAAAAAAAAAAAAAAAAAAAAAAAAAAAAAAAAAAAAAAAAAAAAAAAAAAAAAAAAAAAAAAAAAAAAAAAAAAAAAAAAAAAAAAAAAAAAAAAAAAAAAAAAAAAAAAAAAAAAAAAAAAAAAAAAAAAAAAAAAAAAAAAAAAAAAAAAAAAAAAAAAAAAAAAAAAAAAAAAAAAAAAAAAAAAAAAAAAAAAAAAAAAAAAAAAAAAAAAAAAAAAAAAAAAAAAAAAAAAAAAAAAAAAAAAAAAAAAAAAAAAAAAAAAAAAAAAAAAAAAAAAAAAAAAAAAAAAAAAAAAAAAAAAAAAAAAAAAAAAAAAAAAAAAAAAAAAAAAAAAAAAAAAAAAAAAAAAAAAAAAAAAAAAAAAAAAAAAAAAAAAAAAAAAAAAAAAAAAAAAAAAAAAAAAAAAAAAAAAAAAAAAAAAAAAAAAAAAAAAAAAAAAAAAAAAAAAAAAAAAAAAAAAAAAAAAAAAAAAAAAAAAAAAAAAAAAAAAAAAAAAAAAAAAAAAAAAAAAAAAAAAAAAAAAAAAAAAAAAAAAAAAAAAAAAAAPM6fgDzOn4A8zp+AfM7fgLzO38A8zyBA/M8gQL0PIEA9DyCAPI8gQAAAAAAAAAAAAAAAAAAAAAAAAAAAAAAAAAAAAAAAAAAAAAAAAAAAAAAAAAAAAAAAAAAAAAAAAAAAAAAAAAAAAAAAAAAAAAAAAAAAAAAAAAAAAAAAAAAAAAAAAAAAAAAAAAAAAAAAAAAAAAAAAAAAAAAAAAAAAAAAAAAAAAAAAAAAAAAAAAAAAAAAAAAAAAAAAAAAAAAAAAAAAAAAAAAAAAAAAAAAAAAAAAAAAAAAAAAAAAAAAAAAAAAAAAAAAAAAAAAAAAAAAAAAAAAAAAAAAAAAAAAAAAAAAAAAAAAAAAAAAAAAAAAAAAAAAAAAAAAAAAAAAAAAAAAAAAAAAAAAAAAAAAAAAAAAAAAAAAAAAAAAAAAAAAAAAAAAAAAAAAAAAAAAAAAAAAAAAAAAAAAAAAAAAAAAAAAAAAAAAAAAAAAAAAAAAAAAAAAAAAAAAAAAAAAAAAAAAAAAAAAAAAAAAAAAAAAAAAAAAAAAAAAAAAAAAAAAAAAAAAAAAAAAAAAAAAAAAAAAAAAAAAAAAAAAAAAAAAAAAAAAAAAAAAAAAAAAAAAAAAAAAAAAAAAAAAAAAAAAAAAAAAAAAAAAAAAAAAAAAAAAAAAAAAAAAAAAAAAAAAAAAAAAAAAAAAAAPM8gQDzPIEA8zyBAvM8gQPxPIIA8jyCAPM8gQDzPIIAAAAAAAAAAAAAAAAAAAAAAAAAAAAAAAAAAAAAAAAAAAAAAAAAAAAAAAAAAAAAAAAAAAAAAAAAAAAAAAAAAAAAAAAAAAAAAAAAAAAAAAAAAAAAAAAAAAAAAAAAAAAAAAAAAAAAAAAAAAAAAAAAAAAAAAAAAAAAAAAAAAAAAAAAAAAAAAAAAAAAAAAAAAAAAAAAAAAAAAAAAAAAAAAAAAAAAAAAAAAAAAAAAAAAAAAAAAAAAAAAAAAAAAAAAAAAAAAAAAAAAAAAAAAAAAAAAAAAAAAAAAAAAAAAAAAAAAAAAAAAAAAAAAAAAAAAAAAAAAAAAAAAAAAAAAAAAAAAAAAAAAAAAAAAAAAAAAAAAAAAAAAAAAAAAAAAAAAAAAAAAAAAAAAAAAAAAAAAAAAAAAAAAAAAAAAAAAAAAAAAAAAAAAAAAAAAAAAAAAAAAAAAAAAAAAAAAAAAAAAAAAAAAAAAAAAAAAAAAAAAAAAAAAAAAAAAAAAAAAAAAAAAAAAAAAAAAAAAAAAAAAAAAAAAAAAAAAAAAAAAAAAAAAAAAAAAAAAAAAAAAAAAAAAAAAAAAAAAAAAAAAAAAAAAAAAAAAAAAAAAAAAAAAAAAAAAAAAAAAAAAAAAAAAAAAAAAADzO4AA8zyAAPM8gADzPIAA9DyAAPQ8fwDyPIIAAAAAAAAAAAAAAAAAAAAAAAAAAAAAAAAAAAAAAAAAAAAAAAAAAAAAAAAAAAAAAAAAAAAAAAAAAAAAAAAAAAAAAAAAAAAAAAAAAAAAAAAAAAAAAAAAAAAAAAAAAAAAAAAAAAAAAAAAAAAAAAAAAAAAAAAAAAAAAAAAAAAAAAAAAAAAAAAAAAAAAAAAAAAAAAAAAAAAAAAAAAAAAAAAAAAAAAAAAAAAAAAAAAAAAAAAAAAAAAAAAAAAAAAAAAAAAAAAAAAAAAAAAAAAAAAAAAAAAAAAAAAAAAAAAAAAAAAAAAAAAAAAAAAAAAAAAAAAAAAAAAAAAAAAAAAAAAAAAAAAAAAAAAAAAAAAAAAAAAAAAAAAAAAAAAAAAAAAAAAAAAAAAAAAAAAAAAAAAAAAAAAAAAAAAAAAAAAAAAAAAAAAAAAAAAAAAAAAAAAAAAAAAAAAAAAAAAAAAAAAAAAAAAAAAAAAAAAAAAAAAAAAAAAAAAAAAAAAAAAAAAAAAAAAAAAAAAAAAAAAAAAAAAAAAAAAAAAAAAAAAAAAAAAAAAAAAAAAAAAAAAAAAAAAAAAAAAAAAAAAAAAAAAAAAAAAAAAAAAAAAAAAAAAAAAAAAAAAAAAAAAAAAAAAAAAAAAAAAAAAAAAAAAAAAAAAAAAAAAAAAAAAAAAAAAAAAAAAAAAAAAAAAAAAAAAAAAAAAAAAAAAAAAAAAAAAAAAAAAAAAAAAAAAAAAAAAAAAAAAAAAAAAAAAAAAAAAAAAAAAAAAAAAAAAAAAAAAAAAAAAAAAAAAAAAAAAAAAAAAAAAAAAAAAAAAAAAAAAAAAAAAAAAAAAAAAAAAAAAAAAAAAAAAAAAAAAAAAAAAAAAAAAAAAAAAAAAAAAAAAAAAAAAAAAAAAAAAAAAAAAAAAAAAAAAAAAAAAAAAAAAAAAAAAAAAAAAAAAAAAAAAAAAAAAAAAAAAAAAAAAAAAAAAAAAAAAAAAAAAAAAAAAAAAAAAAAAAAAAAAAAAAAAAAAAAAAAAAAAAAAAAAAAAAAAAAAAAAAAAAAAAAAAAAAAAAAAAAAAAAAAAAAAAAAAAAAAAAAAAAAAAAAAAAAAAAAAAAAAAAAAAAAAAAAAAAAAAAAAAAAAAAAAAAAAAAAAAAAAAAAAAAAAAAAAAAAAAAAAAAAAAAAAAAAAAAAAAAAAAAAAAAAAAAAAAAAAAAAAAAAAAAAAAAAAAAAAAAAAAAAAAAAAAAAAAAAAAAAAAAAAAAAAAAAAAAAAAAAAAAAAAAAAAAAAAAAAAAAAAAAAAAAAAAAAAAAAAAAAAAAAAAAAAAAAAAAAAAAAAAAAAAAAAAAAAAAAAAAAAAAAAAAAAAAAAAAAAAAAAAAAAAAAAAAAAAAAAAAAAAAAAAAAAAAAAAAAAAAAAAAAAAAAAAAAAAAAAAAAAAAAAAAAAAAAAAAAAAAAAAAAAAAAAAAAAAAAAAAAAAAAAAAAAAAAAAAAAAAAAAAAAAAAAAAAAAAAAAAAAAAAAAAAAAAAAAAAAAAAAAAAAAAAAAAAAAAAAAAAAAAAAAAAAAAAAAAAAAAAAAAAAAAAAAAAAAAAAAAAAAAAAAAAAAAAAAAAAAAAAAAAAAAAAAAAAAAAAAAAAAAAAAAAAAAAAAAAAAAAAAAAAAAAAAAAAAAAAAAAAAAAAAAAAAAAAAAAAAAAAAAAAAAAAAAAAAAAAAAAAAAAAAAAAAAAAAAAAAAAAAAAAAAAAAAAAAAAAAAAAAAAAAAAAAAAAAAAAAAAAAAAAAAAAAAAAAAAAAAAAAAAAAAAAAAAAAAAAAAAAAAAAAAAAAAAAAAAAAAAAAAAAAAAAAAAAAAAAAAAAAAAAAAAAAAAAAAAAAAAAAAAAAAAAAAAAAAAAAAAAAAAAAAAAAAAAAAAAAAAAAAAAAAAAAAAAAAAAAAAAAAAAAAAAAAAAAAAAAAAAAAAAAAAAAAAAAAAAAAAAAAAAAAAAAAAAAAAAAAAAAAAAAAAAAAAAAAAAAAAAAAAAAAAAAAAAAAAAAAAAAAAAAAAAAAAAAAAAAAAAAAAAAAAAAAAAAAAAAAAAAAAAAAAAAAAAAAAAAAAAAAAAAAAAAAAAAAAAAAAAAAAAAAAAAAAAAAAAAAAAAAAAAAAAAAAAAAAAAAAAAAAAAAAAAAAAAAAAAAAAAAAAAAAAAAAAAAAAAAAAAAAAAAAAAAAAAAAAAAAAAAAAAAAAAAAAAAAAAAAAAAAAAAAAAAAAAAAAAAAAAAAAAAAAAAAAAAAAAAAAAAAAAAAAAAAAAAAAAAAAAAAAAAAAAAAAAAAAAAAAAAAAAAAAAAAAAAAAAAAAAAAAAAAAAAAAAAAAAAAAAAAAAAAAAAAAAAAAAAAAAAAAAAAAAAAAAAAAAAAAAAAAAAAAAAAAAAAAAAAAAAAAAAAAAAAAAAAAAAAAAAAAAAAAAAAAAAAAAAAAAAAAAAAAAAAAAAAAAAAAAAAAAAAAAAAAAAAAAAAAAAAAAAAAAAAAAAAAAAAAAAAAAAAAAAAAAAAAAAAAAAAAAAAAAAAAAAAAAAAAAAAAAAAAAAAAAAAAAAAAAAAAAAAAAAAAAAAAAAAAAAAAAAAAAAAAAAAAAAAAAAAAAAAAAAAAAAAAAAAAAAAAAAAAAAAAAAAAAAAAAAAAAAAAAAAAAAAAAAAAAAAAAAAAAAAAAAAAAAAAAAAAAAAAAAAAAAAAAAAAAAAAAAAAAAAAAAAAAAAAAAAAAAAAAAAAAAAAAAAAAAAAAAAAAAAAAAAAAAAAAAAAAAAAAAAAAAAAAAAAAAAAAAAAAAAAAAAAAAAAAAAAAAAAAAAAAAAAAAAAAAAAAAAAAAAAAAAAAAAAAAAAAAAAAAAAAAAAAAAAAAAAAAAAAAAAAAAAAAAAAAAAAAAAAAAAAAAAAAAAAAAAAAAAAAAAAAAAAAAAAAAAAAAAAAAAAAAAAAAAAAAAAAAAAAAAAAAAAAAAAAAAAAAAAAAAAAAAAAAAAAAAAAAAAAAAAAAAAAAAAAAAAAAAAAAAAAAAAAAAAAAAAAAAAAAAAAAAAAAAAAAAAAAAAAAAAAAAAAAAAAAAAAAAAAAAAAAAAAAAAAAAAAAAAAAAAAAAAAAAAAAAAAAAAAAAAAAAAAAAAAAAAAAAAAAAAAAAAAAAAAAAAAAAAAAAAAAAAAAAAAAAAAAAAAAAAAAAAAAAAAAAAAAAAAAAAAAAAAAAAAAAAAAAAAAAAAAAAAAAAAAAAAAAAAAAAAAAAAAAAAAAAAAAAAAAAAAAAAAAAAAAAAAAAAAAAAAAAAAAAAAAAAAAAAAAAAAAAAAAAAAAAAAAAAAAAAAAAAAAAAAAAAAAAAAAAAAAAAAAAAAAAAAAAAAAAAAAAAAAAAAAAAAAAAAAAAAAAAAAAAAAAAAAAAAAAAAAAAAAAAAAAAAAAAAAAAAAAAAAAAAAAAAAAAAAAAAAAAAAAAAAAAAAAAAAAAAAAAAAAAAAAAAAAAAAAAAAAAAAAAAAAAAAAAAAAAAAAAAAAAAAAAAAAAAAAAAAAAAAAAAAAAAAAAAAAAAAAAAAAAAAAAAAAAAAAAAAAAAAAAAAAAAAAAAAAAAAAAAAAAAAAAAAAAAAAAAAAAAAAAAAAAAAAAAAAAAAAAAAAAAAAAAAAAAAAAAAAAAAAAAAAAAAAAAAAAAAAAAAAAAAAAAAAAAAAAAAAAAAAAAAAAAAAAAAAAAAAAAAAAAAAAAAAAAAAAAAAAAAAAAAAAAAAAAAAAAAAAAAAAAAAAAAAAAAAAAAAAAAAAAAAAAAAAAAAAAAAAAAAAAAAAAAAAAAAAAAAAAAAAAAAAAAAAAAAAAAAAAAAAAAAAAAAAAAAAAAAAAAAAAAAAAAAAAAAAAAAAAAAAAAAAAAAAAAAAAAAAAAAAAAAAAAAAAAAAAAAAAAAAAAAAAAAAAAAAAAAAAAAAAAAAAAAAAAAAAAAAAAAAAAAAAAAAAAAAAAAAAAAAAAAAAAAAAAAAAAAAAAAAAAAAAAAAAAAAAAAAAAA///////////////////////////////////////////////////////////////////////////////////////////////////////////////////////6X///////////////////9F///////////////////9Bf//////////////////9EX//////////////////8kF//////////////////+iBf/////////////////+iAX/////////////////+iAF/////////////////+SABf/////////////////RAAX/////////////////RAAF/////////////////RAABf////////////////JAAAX////////////////ogAAF////////////////ogAABf///////////////ogAAAX///////////////kgAAAF///////////////0QAAABf//////////////0QAAAAX//////////////6QAAAAF///////////////QAAAABf//////////////kAAAAAX//////////////5AAAAAF//////////////+QAAAABf//////////////kAAAAAX//////////////5AAAAAF//////////////+QAAAABf//////////////kAAAAAX//////////////5AAAAAF//////////////+QAAAABf//////////////kAAAAAX//////////////5AAAAAF//////////////+QAAAABf//////////////kAAAAAX//////////////5AAAAAF//////////////+QAAAABf//////////////kAAAAAX//////////////5AAAAAF//////////////+QAAAABf//////////////kAAAAAS//////////////5AAAAASL/////////////+QAAAAYJP/////////////kAAAAIBF/////////////5AAAAIAEX////////////+QAAAIAATf////////////kAAAIAABJ////////////5AAAEAAAIv///////////+QAAEAAAAi////////////kAAEAAAACT///////////5AAEAAAAARP//////////+QACAAAAABF///////////kACAAAAAAEX//////////5ACAAAAAAASf/////////+QCAAAAAAACJ//////////kBAAAAAAAAIv/////////5BAAAAAAAAAi/////////+xAAAAAAAAACT/////////ogAAAAAAAAARf////////ogAAAAAAAAABP////////oQAAAAAAAAAAJ////////okAAAAAAAAAADf///////khAAAAAAAAAAAn///////0QQAAAAAAAAAAJ///////0QEAAAAAAAAAACf//////0QBAAAAAAAAAAAn//////yQAQAAAAAAAAAAJ//////6IAEAAAAAAAAAACf/////6IABAAAAAAAAAAAn/////6IAAQAAAAAAAAAAJ/////5IAAEAAAAAAAAAACf////9EAABAAAAAAAAAAAn////9EAAAQAAAAAAAAAAJ////9EAAAEAAAAAAAAAACf///8kAAABAAAAAAAAAAAn///+iAAAAQAAAAAAAAAAJ///+iAAAAEAAAAAAAAAACf//+SAAAABAAAAAAAAAAAn///6AAAAAQAAAABAAAAAJ///5AAAAAEAAAABIAAAACf//+QAAAABAAAAAggAAAAn///sAAAAAQAAAAikAAAAJ///5AAAAAEAAAAi0QAAACf//+QAAAABAAAAi/RAAAAn///kAAAAAQAAASf9EAAAJ///5AAAAAEAAARf/kgAACf//+QAAAABAAARf/+iAAAn///kAAAAAQAARf//6IAAJ///5AAAAAEAAJP///ogACf//+QAAAABAAIv///8kAAn///kAAAAAQAIv////0QAJ///5AAAAAEAIv/////RACf//+QAAAABAEn/////9EAn///kAAAAAQEX//////kgJ///5AAAAAEEX//////+iCf//+QAAAABEX///////6I3///kAAAAAST////////pF///5AAAAAEL////////8l///+QAAAACL/////////0X///kAAAACX//////////////5AAAABJ//////////////+QAAABF///////////////kAAABF///////////////5AAABF///////////////+QAAAk////////////////kAAAi////////////////5AAAi////////////////+QAAi/////////////////kAASf////////////////5AARf////////////////+QARf/////////////////kARf/////////////////5AJP/////////////////+QIv//////////////////kIv//////////////////6Iv//////////////////+kn///////////////////0X///////////////////+X////////////////////////////////////////////////////////////////////////////////////////////////////////////////////////////8=;" parent="1" vertex="1">
          <mxGeometry x="-480" y="1040" width="80" height="80" as="geometry" />
        </mxCell>
        <mxCell id="qJES_g0famqZTqQpGA08-20" style="edgeStyle=orthogonalEdgeStyle;rounded=0;orthogonalLoop=1;jettySize=auto;html=1;entryX=0.004;entryY=0.355;entryDx=0;entryDy=0;entryPerimeter=0;" parent="1" source="qJES_g0famqZTqQpGA08-19" target="qJES_g0famqZTqQpGA08-1" edge="1">
          <mxGeometry relative="1" as="geometry" />
        </mxCell>
        <mxCell id="qJES_g0famqZTqQpGA08-23" value="" style="rounded=0;whiteSpace=wrap;html=1;fillColor=#f5f5f5;strokeColor=default;fontColor=#333333;dashed=1;dashPattern=8 8;" parent="1" vertex="1">
          <mxGeometry x="190" y="990" width="220" height="280" as="geometry" />
        </mxCell>
        <mxCell id="qJES_g0famqZTqQpGA08-24" value="ci-eus-grafana-01" style="image;aspect=fixed;html=1;points=[];align=center;fontSize=12;image=img/lib/azure2/compute/Container_Instances.svg;" parent="1" vertex="1">
          <mxGeometry x="270" y="1020" width="64" height="68" as="geometry" />
        </mxCell>
        <mxCell id="qJES_g0famqZTqQpGA08-25" value="ci-eus-prometheus-01" style="image;aspect=fixed;html=1;points=[];align=center;fontSize=12;image=img/lib/azure2/compute/Container_Instances.svg;" parent="1" vertex="1">
          <mxGeometry x="270" y="1145.25" width="64" height="68" as="geometry" />
        </mxCell>
        <mxCell id="qJES_g0famqZTqQpGA08-22" value="rg-vnet-eus-spoke-monitoring-01" style="image;aspect=fixed;html=1;points=[];align=center;fontSize=12;image=img/lib/azure2/networking/Virtual_Networks.svg;" parent="1" vertex="1">
          <mxGeometry x="160" y="970" width="67" height="40" as="geometry" />
        </mxCell>
        <mxCell id="qJES_g0famqZTqQpGA08-27" value="9090" style="edgeStyle=orthogonalEdgeStyle;rounded=0;orthogonalLoop=1;jettySize=auto;html=1;" parent="1" source="qJES_g0famqZTqQpGA08-10" target="qJES_g0famqZTqQpGA08-25" edge="1">
          <mxGeometry relative="1" as="geometry" />
        </mxCell>
        <mxCell id="qJES_g0famqZTqQpGA08-10" value="" style="image;aspect=fixed;html=1;points=[];align=center;fontSize=12;image=img/lib/azure2/networking/Application_Gateways.svg;" parent="1" vertex="1">
          <mxGeometry x="440" y="1088" width="64" height="64" as="geometry" />
        </mxCell>
        <mxCell id="qJES_g0famqZTqQpGA08-26" value="3000" style="edgeStyle=orthogonalEdgeStyle;rounded=0;orthogonalLoop=1;jettySize=auto;html=1;" parent="1" source="qJES_g0famqZTqQpGA08-10" target="qJES_g0famqZTqQpGA08-24" edge="1">
          <mxGeometry relative="1" as="geometry" />
        </mxCell>
        <mxCell id="qJES_g0famqZTqQpGA08-28" value="" style="rounded=0;whiteSpace=wrap;html=1;fillColor=#f5f5f5;strokeColor=default;fontColor=#333333;dashed=1;dashPattern=8 8;" parent="1" vertex="1">
          <mxGeometry x="244.5" y="1412" width="182" height="190" as="geometry" />
        </mxCell>
        <mxCell id="qJES_g0famqZTqQpGA08-29" value="rg-vnet-eus-spoke-monitoring-01" style="image;aspect=fixed;html=1;points=[];align=center;fontSize=12;image=img/lib/azure2/networking/Virtual_Networks.svg;" parent="1" vertex="1">
          <mxGeometry x="214.5" y="1392" width="67" height="40" as="geometry" />
        </mxCell>
        <mxCell id="qJES_g0famqZTqQpGA08-30" value="ci-eus-app-01" style="image;aspect=fixed;html=1;points=[];align=center;fontSize=12;image=img/lib/azure2/compute/Container_Instances.svg;" parent="1" vertex="1">
          <mxGeometry x="303.5" y="1473" width="64" height="68" as="geometry" />
        </mxCell>
        <mxCell id="qJES_g0famqZTqQpGA08-33" value="8080" style="edgeStyle=orthogonalEdgeStyle;rounded=0;orthogonalLoop=1;jettySize=auto;html=1;" parent="1" source="qJES_g0famqZTqQpGA08-10" target="qJES_g0famqZTqQpGA08-30" edge="1">
          <mxGeometry x="0.3029" relative="1" as="geometry">
            <Array as="points">
              <mxPoint x="470" y="1507" />
            </Array>
            <mxPoint as="offset" />
          </mxGeometry>
        </mxCell>
      </root>
    </mxGraphModel>
  </diagram>
</mxfile>
